<?xml version="1.0" encoding="UTF-8"?>
<svg version="1.1" xmlns="http://www.w3.org/2000/svg" width="107" height="100">
<path d="M0 0 C2.75387823 0.89501042 3.96886237 1.34566714 5.5 3.8125 C5.06521739 9.24728261 5.06521739 9.24728261 3.5 10.8125 C19.34 11.3075 19.34 11.3075 35.5 11.8125 C35.5 13.4625 35.5 15.1125 35.5 16.8125 C34.51 17.4725 33.52 18.1325 32.5 18.8125 C33.70565707 21.25135452 34.91453737 23.68853152 36.125 26.125 C36.48456787 26.85323975 36.84413574 27.58147949 37.21459961 28.33178711 C39.34640388 32.61759702 41.61793484 36.75662669 44.0625 40.875 C45.82528896 44.11969397 46.49465256 45.7494002 46.8125 49.5 C44.64754876 54.96392455 41.08209665 59.22351745 36.0625 62.3125 C29.70067274 63.55383215 24.9933429 63.29330256 19.328125 60.1484375 C15.56878561 57.40122795 13.1475786 53.95622416 11.80541992 49.51318359 C11.42619042 46.15983689 12.15301165 44.69575577 13.703125 41.72265625 C14.18910156 40.77326172 14.67507812 39.82386719 15.17578125 38.84570312 C15.69527344 37.86537109 16.21476562 36.88503906 16.75 35.875 C17.25402344 34.89853516 17.75804688 33.92207031 18.27734375 32.91601562 C19.22310523 31.08530934 20.17460782 29.25754884 21.13378906 27.43383789 C22.62261864 24.57723261 24.05938852 21.69372297 25.5 18.8125 C18.24 18.8125 10.98 18.8125 3.5 18.8125 C3.5 33.6625 3.5 48.5125 3.5 63.8125 C4.49 64.3075 4.49 64.3075 5.5 64.8125 C5.5 65.4725 5.5 66.1325 5.5 66.8125 C6.18707031 66.80089844 6.87414063 66.78929688 7.58203125 66.77734375 C8.48308594 66.76832031 9.38414063 66.75929688 10.3125 66.75 C11.20582031 66.73839844 12.09914062 66.72679688 13.01953125 66.71484375 C15.5 66.8125 15.5 66.8125 18.5 67.8125 C18.5 69.4625 18.5 71.1125 18.5 72.8125 C10.86373615 74.03819331 3.28237309 73.9602613 -4.4375 73.9375 C-5.78971448 73.94106656 -7.14192812 73.94497011 -8.49414062 73.94921875 C-9.76322266 73.94792969 -11.03230469 73.94664063 -12.33984375 73.9453125 C-13.49863037 73.94418457 -14.65741699 73.94305664 -15.85131836 73.94189453 C-18.5 73.8125 -18.5 73.8125 -19.5 72.8125 C-19.54063832 71.14632885 -19.542721 69.47861905 -19.5 67.8125 C-16.35069107 66.76273036 -14.11185544 66.71118405 -10.8125 66.75 C-9.81863281 66.75902344 -8.82476562 66.76804687 -7.80078125 66.77734375 C-7.04152344 66.78894531 -6.28226563 66.80054687 -5.5 66.8125 C-4.55662624 63.98237873 -4.37827171 62.26950082 -4.38647461 59.34106445 C-4.38655014 58.44035721 -4.38662567 57.53964996 -4.38670349 56.61164856 C-4.39186478 55.64281235 -4.39702606 54.67397614 -4.40234375 53.67578125 C-4.4037587 52.68120407 -4.40517365 51.68662689 -4.40663147 50.66191101 C-4.41223239 47.48291018 -4.42478504 44.30397957 -4.4375 41.125 C-4.44251488 38.97070414 -4.44707781 36.81640718 -4.45117188 34.66210938 C-4.46135155 29.37885737 -4.48092687 24.09575738 -4.5 18.8125 C-11.76 18.8125 -19.02 18.8125 -26.5 18.8125 C-24.705625 22.4321875 -24.705625 22.4321875 -22.875 26.125 C-22.28803345 27.31258911 -22.28803345 27.31258911 -21.68920898 28.52416992 C-19.15363433 33.61440222 -16.41409045 38.53660229 -13.43359375 43.3828125 C-12.19310878 46.61118761 -12.58718193 48.50626421 -13.5 51.8125 C-15.81365655 56.2457144 -18.57700065 59.26553742 -22.875 61.8125 C-28.22718785 63.28896561 -32.32285866 63.58090283 -37.6875 61.6875 C-41.97974356 58.82600429 -45.88235811 54.82718986 -47.5 49.8125 C-46.9753945 45.7817811 -45.57555441 42.53357667 -43.8125 38.890625 C-43.27882813 37.78332031 -42.74515625 36.67601562 -42.1953125 35.53515625 C-41.63585937 34.38917969 -41.07640625 33.24320313 -40.5 32.0625 C-39.94054687 30.90105469 -39.38109375 29.73960938 -38.8046875 28.54296875 C-34.64987245 19.96237245 -34.64987245 19.96237245 -33.5 18.8125 C-34.49 18.1525 -35.48 17.4925 -36.5 16.8125 C-36.17 15.1625 -35.84 13.5125 -35.5 11.8125 C-20.155 11.3175 -20.155 11.3175 -4.5 10.8125 C-5.16 10.1525 -5.82 9.4925 -6.5 8.8125 C-6.3125 5.3125 -6.3125 5.3125 -5.5 1.8125 C-2.5 -0.1875 -2.5 -0.1875 0 0 Z M-30.5 22.8125 C-32.16978345 26.2901793 -33.83530299 29.76988341 -35.5 33.25 C-35.97695313 34.24322266 -36.45390625 35.23644531 -36.9453125 36.25976562 C-37.62207031 37.67612305 -37.62207031 37.67612305 -38.3125 39.12109375 C-38.73144531 39.99564209 -39.15039062 40.87019043 -39.58203125 41.77124023 C-40.56835707 43.59147513 -40.56835707 43.59147513 -40.5 44.8125 C-33.57 44.8125 -26.64 44.8125 -19.5 44.8125 C-20.758125 41.925 -22.01625 39.0375 -23.3125 36.0625 C-23.70284424 35.15918945 -24.09318848 34.25587891 -24.49536133 33.32519531 C-24.8127124 32.60428711 -25.13006348 31.88337891 -25.45703125 31.140625 C-25.93619995 30.04089355 -25.93619995 30.04089355 -26.42504883 28.91894531 C-27.57170371 26.67199134 -28.93449236 24.78546853 -30.5 22.8125 Z M28.5 23.8125 C26.99373883 26.93452006 25.49606757 30.06058399 24 33.1875 C23.57074219 34.07695313 23.14148438 34.96640625 22.69921875 35.8828125 C22.29316406 36.73359375 21.88710937 37.584375 21.46875 38.4609375 C21.09169922 39.24645996 20.71464844 40.03198242 20.32617188 40.84130859 C19.37115169 42.7637028 19.37115169 42.7637028 19.5 44.8125 C26.1 44.8125 32.7 44.8125 39.5 44.8125 C38.241875 41.904375 36.98375 38.99625 35.6875 36 C35.10198364 34.63137817 35.10198364 34.63137817 34.50463867 33.23510742 C34.1872876 32.51170166 33.86993652 31.7882959 33.54296875 31.04296875 C33.22352295 30.30457764 32.90407715 29.56618652 32.57495117 28.80541992 C31.45858977 26.73572696 30.23940047 25.37861026 28.5 23.8125 Z M18.5 49.8125 C19.89882724 53.91260305 19.89882724 53.91260305 23.25 56.625 C26.7495007 57.90366372 28.81749182 58.34953244 32.5 57.8125 C37.18667036 55.33948536 37.18667036 55.33948536 39.5 50.8125 C32.46094956 49.87395994 25.59727428 49.70441968 18.5 49.8125 Z M-40.5 50.8125 C-38.10122781 55.66458059 -38.10122781 55.66458059 -35.3125 57.1875 C-31.49140352 58.03663255 -28.26692399 57.88333928 -24.5 56.8125 C-21.51211967 55.04252588 -21.51211967 55.04252588 -19.5 52.8125 C-19.5 52.1525 -19.5 51.4925 -19.5 50.8125 C-26.43 50.8125 -33.36 50.8125 -40.5 50.8125 Z " fill="#AA9986" transform="translate(53.5,14.1875)"/>
<path d="M0 0 C10.89 0 21.78 0 33 0 C33 1.65 33 3.3 33 5 C32.01 5.66 31.02 6.32 30 7 C31.20565707 9.43885452 32.41453737 11.87603152 33.625 14.3125 C33.98456787 15.04073975 34.34413574 15.76897949 34.71459961 16.51928711 C36.84640388 20.80509702 39.11793484 24.94412669 41.5625 29.0625 C43.32528896 32.30719397 43.99465256 33.9369002 44.3125 37.6875 C42.14754876 43.15142455 38.58209665 47.41101745 33.5625 50.5 C27.20067274 51.74133215 22.4933429 51.48080256 16.828125 48.3359375 C13.06878561 45.58872795 10.6475786 42.14372416 9.30541992 37.70068359 C8.92619042 34.34733689 9.65301165 32.88325577 11.203125 29.91015625 C11.68910156 28.96076172 12.17507812 28.01136719 12.67578125 27.03320312 C13.19527344 26.05287109 13.71476562 25.07253906 14.25 24.0625 C14.75402344 23.08603516 15.25804687 22.10957031 15.77734375 21.10351562 C16.72310523 19.27280934 17.67460782 17.44504884 18.63378906 15.62133789 C20.12261864 12.76473261 21.55938852 9.88122297 23 7 C15.74 7 8.48 7 1 7 C1 21.85 1 36.7 1 52 C1.99 52.495 1.99 52.495 3 53 C3 53.66 3 54.32 3 55 C3.68707031 54.98839844 4.37414063 54.97679687 5.08203125 54.96484375 C5.98308594 54.95582031 6.88414063 54.94679687 7.8125 54.9375 C8.70582031 54.92589844 9.59914062 54.91429687 10.51953125 54.90234375 C13 55 13 55 16 56 C16 57.65 16 59.3 16 61 C8.36373615 62.22569331 0.78237309 62.1477613 -6.9375 62.125 C-8.28971448 62.12856656 -9.64192812 62.13247011 -10.99414062 62.13671875 C-12.89776367 62.13478516 -12.89776367 62.13478516 -14.83984375 62.1328125 C-15.99863037 62.13168457 -17.15741699 62.13055664 -18.35131836 62.12939453 C-21 62 -21 62 -22 61 C-22.04063832 59.33382885 -22.042721 57.66611905 -22 56 C-18.85069107 54.95023036 -16.61185544 54.89868405 -13.3125 54.9375 C-12.31863281 54.94652344 -11.32476562 54.95554688 -10.30078125 54.96484375 C-9.16189453 54.98224609 -9.16189453 54.98224609 -8 55 C-7.05662624 52.16987873 -6.87827171 50.45700082 -6.88647461 47.52856445 C-6.88655014 46.62785721 -6.88662567 45.72714996 -6.88670349 44.79914856 C-6.89186478 43.83031235 -6.89702606 42.86147614 -6.90234375 41.86328125 C-6.9037587 40.86870407 -6.90517365 39.87412689 -6.90663147 38.84941101 C-6.91223239 35.67041018 -6.92478504 32.49147957 -6.9375 29.3125 C-6.94251488 27.15820414 -6.94707781 25.00390718 -6.95117188 22.84960938 C-6.96135155 17.56635737 -6.98092687 12.28325738 -7 7 C-14.92 7 -22.84 7 -31 7 C-31 6.01 -31 5.02 -31 4 C-22.75 4 -14.5 4 -6 4 C-4.80774085 6.3845183 -4.87317293 7.84909216 -4.87060547 10.50976562 C-4.86745331 11.44413452 -4.86430115 12.37850342 -4.86105347 13.34118652 C-4.8630777 14.35265747 -4.86510193 15.36412842 -4.8671875 16.40625 C-4.86575241 17.9597113 -4.86575241 17.9597113 -4.86428833 19.54455566 C-4.86360702 21.7368984 -4.86545791 23.92924315 -4.86962891 26.12158203 C-4.87497782 29.4860485 -4.86968225 32.85038146 -4.86328125 36.21484375 C-4.86394204 38.34114613 -4.86522322 40.46744843 -4.8671875 42.59375 C-4.86516327 43.60522095 -4.86313904 44.61669189 -4.86105347 45.65881348 C-4.86420563 46.59318237 -4.86735779 47.52755127 -4.87060547 48.49023438 C-4.87140106 49.31471069 -4.87219666 50.13918701 -4.87301636 50.98864746 C-5 53 -5 53 -6 55 C-5.34 55 -4.68 55 -4 55 C-4 55.66 -4 56.32 -4 57 C-5.14339844 57.04898438 -6.28679688 57.09796875 -7.46484375 57.1484375 C-8.95575473 57.22345189 -10.44663892 57.29900028 -11.9375 57.375 C-13.06961914 57.42140625 -13.06961914 57.42140625 -14.22460938 57.46875 C-16.15507395 57.5726315 -18.07942081 57.77895614 -20 58 C-20.33 58.66 -20.66 59.32 -21 60 C-9.12 60 2.76 60 15 60 C15 59.01 15 58.02 15 57 C9.39 57 3.78 57 -2 57 C-1.67 55.68 -1.34 54.36 -1 53 C-0.92519054 51.42259881 -0.90232052 49.84227777 -0.91821289 48.26318359 C-0.9247438 47.32896576 -0.93127472 46.39474792 -0.93800354 45.43222046 C-0.94943893 44.43107208 -0.96087433 43.42992371 -0.97265625 42.3984375 C-0.98529583 40.27864742 -0.99765727 38.15885568 -1.00976562 36.0390625 C-1.03465449 32.6965617 -1.06270738 29.35414734 -1.09594727 26.01171875 C-1.12603017 22.78645249 -1.14388214 19.56129871 -1.16015625 16.3359375 C-1.17361588 15.33074066 -1.1870755 14.32554382 -1.20094299 13.28988647 C-1.20432175 12.36197296 -1.2077005 11.43405945 -1.21118164 10.47802734 C-1.22236778 9.25036148 -1.22236778 9.25036148 -1.23377991 7.99789429 C-1 6 -1 6 1 4 C3.38256836 3.77294922 3.38256836 3.77294922 6.33984375 3.8046875 C7.9340918 3.81435547 7.9340918 3.81435547 9.56054688 3.82421875 C11.23213867 3.84935547 11.23213867 3.84935547 12.9375 3.875 C14.60329102 3.88853516 14.60329102 3.88853516 16.30273438 3.90234375 C18.36454491 3.9198273 20.42632743 3.94140016 22.48803711 3.96826172 C24.32524189 3.99147453 26.16264858 4 28 4 C29.32 4 30.64 4 32 4 C32 3.01 32 2.02 32 1 C21.44 1 10.88 1 0 1 C0 0.67 0 0.34 0 0 Z M26 12 C24.49373883 15.12202006 22.99606757 18.24808399 21.5 21.375 C21.07074219 22.26445313 20.64148438 23.15390625 20.19921875 24.0703125 C19.79316406 24.92109375 19.38710937 25.771875 18.96875 26.6484375 C18.59169922 27.43395996 18.21464844 28.21948242 17.82617188 29.02880859 C16.87115169 30.9512028 16.87115169 30.9512028 17 33 C23.6 33 30.2 33 37 33 C35.741875 30.091875 34.48375 27.18375 33.1875 24.1875 C32.60198364 22.81887817 32.60198364 22.81887817 32.00463867 21.42260742 C31.6872876 20.69920166 31.36993652 19.9757959 31.04296875 19.23046875 C30.72352295 18.49207764 30.40407715 17.75368652 30.07495117 16.99291992 C28.95858977 14.92322696 27.73940047 13.56611026 26 12 Z M16 38 C17.39882724 42.10010305 17.39882724 42.10010305 20.75 44.8125 C24.2495007 46.09116372 26.31749182 46.53703244 30 46 C34.68667036 43.52698536 34.68667036 43.52698536 37 39 C29.96094956 38.06145994 23.09727428 37.89191968 16 38 Z " fill="#938575" transform="translate(56,26)"/>
<path d="M0 0 C1 2 1 2 1 5 C1.33 4.34 1.66 3.68 2 3 C3.32 3.33 4.64 3.66 6 4 C6.33 2.68 6.66 1.36 7 0 C7.50789063 1.02738281 8.01578125 2.05476563 8.5390625 3.11328125 C9.23422729 4.5130942 9.92955085 5.9128283 10.625 7.3125 C10.98456787 8.04001465 11.34413574 8.7675293 11.71459961 9.51708984 C14.28146936 14.67358025 17.04738751 19.66146644 20.06640625 24.5703125 C21.30689122 27.79868761 20.91281807 29.69376421 20 33 C17.68634345 37.4332144 14.92299935 40.45303742 10.625 43 C5.27281215 44.47646561 1.17714134 44.76840283 -4.1875 42.875 C-8.47974356 40.01350429 -12.38235811 36.01468986 -14 31 C-13.4753945 26.9692811 -12.07555441 23.72107667 -10.3125 20.078125 C-9.77882813 18.97082031 -9.24515625 17.86351562 -8.6953125 16.72265625 C-8.13585937 15.57667969 -7.57640625 14.43070313 -7 13.25 C-6.44054687 12.08855469 -5.88109375 10.92710938 -5.3046875 9.73046875 C-1.14987245 1.14987245 -1.14987245 1.14987245 0 0 Z M3 4 C1.33021655 7.4776793 -0.33530299 10.95738341 -2 14.4375 C-2.47695313 15.43072266 -2.95390625 16.42394531 -3.4453125 17.44726562 C-4.12207031 18.86362305 -4.12207031 18.86362305 -4.8125 20.30859375 C-5.23144531 21.18314209 -5.65039062 22.05769043 -6.08203125 22.95874023 C-7.06835707 24.77897513 -7.06835707 24.77897513 -7 26 C-0.07 26 6.86 26 14 26 C12.741875 23.1125 11.48375 20.225 10.1875 17.25 C9.79715576 16.34668945 9.40681152 15.44337891 9.00463867 14.51269531 C8.6872876 13.79178711 8.36993652 13.07087891 8.04296875 12.328125 C7.56380005 11.22839355 7.56380005 11.22839355 7.07495117 10.10644531 C5.92829629 7.85949134 4.56550764 5.97296853 3 4 Z M-7 32 C-4.60122781 36.85208059 -4.60122781 36.85208059 -1.8125 38.375 C2.00859648 39.22413255 5.23307601 39.07083928 9 38 C11.98788033 36.23002588 11.98788033 36.23002588 14 34 C14 33.34 14 32.68 14 32 C7.07 32 0.14 32 -7 32 Z " fill="#8D8071" transform="translate(20,33)"/>
<path d="M0 0 C10.89 0 21.78 0 33 0 C33 1.65 33 3.3 33 5 C32.01 5.66 31.02 6.32 30 7 C30 7.99 30 8.98 30 10 C29.505 9.505 29.505 9.505 29 9 C27.33382885 8.95936168 25.66611905 8.957279 24 9 C23.34 10.32 22.68 11.64 22 13 C21.505 11.515 21.505 11.515 21 10 C21.66 9.01 22.32 8.02 23 7 C15.74 7 8.48 7 1 7 C1 21.85 1 36.7 1 52 C1.99 52.495 1.99 52.495 3 53 C3 53.66 3 54.32 3 55 C3.68707031 54.98839844 4.37414063 54.97679687 5.08203125 54.96484375 C5.98308594 54.95582031 6.88414063 54.94679687 7.8125 54.9375 C8.70582031 54.92589844 9.59914062 54.91429687 10.51953125 54.90234375 C13 55 13 55 16 56 C16 57.65 16 59.3 16 61 C8.36373615 62.22569331 0.78237309 62.1477613 -6.9375 62.125 C-8.28971448 62.12856656 -9.64192812 62.13247011 -10.99414062 62.13671875 C-12.89776367 62.13478516 -12.89776367 62.13478516 -14.83984375 62.1328125 C-15.99863037 62.13168457 -17.15741699 62.13055664 -18.35131836 62.12939453 C-21 62 -21 62 -22 61 C-22.04063832 59.33382885 -22.042721 57.66611905 -22 56 C-18.85069107 54.95023036 -16.61185544 54.89868405 -13.3125 54.9375 C-12.31863281 54.94652344 -11.32476562 54.95554688 -10.30078125 54.96484375 C-9.16189453 54.98224609 -9.16189453 54.98224609 -8 55 C-7.05662624 52.16987873 -6.87827171 50.45700082 -6.88647461 47.52856445 C-6.88655014 46.62785721 -6.88662567 45.72714996 -6.88670349 44.79914856 C-6.89186478 43.83031235 -6.89702606 42.86147614 -6.90234375 41.86328125 C-6.9037587 40.86870407 -6.90517365 39.87412689 -6.90663147 38.84941101 C-6.91223239 35.67041018 -6.92478504 32.49147957 -6.9375 29.3125 C-6.94251488 27.15820414 -6.94707781 25.00390718 -6.95117188 22.84960938 C-6.96135155 17.56635737 -6.98092687 12.28325738 -7 7 C-14.92 7 -22.84 7 -31 7 C-31 6.01 -31 5.02 -31 4 C-22.75 4 -14.5 4 -6 4 C-4.80774085 6.3845183 -4.87317293 7.84909216 -4.87060547 10.50976562 C-4.86745331 11.44413452 -4.86430115 12.37850342 -4.86105347 13.34118652 C-4.8630777 14.35265747 -4.86510193 15.36412842 -4.8671875 16.40625 C-4.86575241 17.9597113 -4.86575241 17.9597113 -4.86428833 19.54455566 C-4.86360702 21.7368984 -4.86545791 23.92924315 -4.86962891 26.12158203 C-4.87497782 29.4860485 -4.86968225 32.85038146 -4.86328125 36.21484375 C-4.86394204 38.34114613 -4.86522322 40.46744843 -4.8671875 42.59375 C-4.86516327 43.60522095 -4.86313904 44.61669189 -4.86105347 45.65881348 C-4.86420563 46.59318237 -4.86735779 47.52755127 -4.87060547 48.49023438 C-4.87140106 49.31471069 -4.87219666 50.13918701 -4.87301636 50.98864746 C-5 53 -5 53 -6 55 C-5.34 55 -4.68 55 -4 55 C-4 55.66 -4 56.32 -4 57 C-5.14339844 57.04898438 -6.28679688 57.09796875 -7.46484375 57.1484375 C-8.95575473 57.22345189 -10.44663892 57.29900028 -11.9375 57.375 C-13.06961914 57.42140625 -13.06961914 57.42140625 -14.22460938 57.46875 C-16.15507395 57.5726315 -18.07942081 57.77895614 -20 58 C-20.33 58.66 -20.66 59.32 -21 60 C-9.12 60 2.76 60 15 60 C15 59.01 15 58.02 15 57 C9.39 57 3.78 57 -2 57 C-1.67 55.68 -1.34 54.36 -1 53 C-0.92519054 51.42259881 -0.90232052 49.84227777 -0.91821289 48.26318359 C-0.9247438 47.32896576 -0.93127472 46.39474792 -0.93800354 45.43222046 C-0.94943893 44.43107208 -0.96087433 43.42992371 -0.97265625 42.3984375 C-0.98529583 40.27864742 -0.99765727 38.15885568 -1.00976562 36.0390625 C-1.03465449 32.6965617 -1.06270738 29.35414734 -1.09594727 26.01171875 C-1.12603017 22.78645249 -1.14388214 19.56129871 -1.16015625 16.3359375 C-1.17361588 15.33074066 -1.1870755 14.32554382 -1.20094299 13.28988647 C-1.20432175 12.36197296 -1.2077005 11.43405945 -1.21118164 10.47802734 C-1.22236778 9.25036148 -1.22236778 9.25036148 -1.23377991 7.99789429 C-1 6 -1 6 1 4 C3.38256836 3.77294922 3.38256836 3.77294922 6.33984375 3.8046875 C7.9340918 3.81435547 7.9340918 3.81435547 9.56054688 3.82421875 C11.23213867 3.84935547 11.23213867 3.84935547 12.9375 3.875 C14.60329102 3.88853516 14.60329102 3.88853516 16.30273438 3.90234375 C18.36454491 3.9198273 20.42632743 3.94140016 22.48803711 3.96826172 C24.32524189 3.99147453 26.16264858 4 28 4 C29.32 4 30.64 4 32 4 C32 3.01 32 2.02 32 1 C21.44 1 10.88 1 0 1 C0 0.67 0 0.34 0 0 Z " fill="#413A32" transform="translate(56,26)"/>
<path d="M0 0 C0.66 0.33 1.32 0.66 2 1 C2.14285044 7.2113345 2.28525572 13.42267898 2.42724609 19.6340332 C2.47562582 21.74764279 2.5241278 23.86124958 2.57275391 25.97485352 C2.6425733 29.01057218 2.71195493 32.04630058 2.78125 35.08203125 C2.80312378 36.02899368 2.82499756 36.97595612 2.84753418 37.95161438 C2.86755493 38.83230087 2.88757568 39.71298737 2.90820312 40.62036133 C2.92596802 41.39535477 2.94373291 42.17034821 2.96203613 42.96882629 C3.05405131 47.89189737 3.05405131 47.89189737 2 50 C7.61 50 13.22 50 19 50 C19 50.99 19 51.98 19 53 C7.12 53 -4.76 53 -17 53 C-16.67 52.01 -16.34 51.02 -16 50 C-10.72 50 -5.44 50 0 50 C0 49.34 0 48.68 0 48 C-0.66 48 -1.32 48 -2 48 C-1.83923477 47.43267151 -1.67846954 46.86534302 -1.51283264 46.28082275 C-0.99065169 43.95842342 -0.8424977 41.88417133 -0.79467773 39.50683594 C-0.77473251 38.62622498 -0.75478729 37.74561401 -0.73423767 36.83831787 C-0.71752518 35.89651672 -0.70081268 34.95471558 -0.68359375 33.984375 C-0.66281265 33.01340881 -0.64203156 32.04244263 -0.62062073 31.04205322 C-0.55531138 27.94477315 -0.49632677 24.84740932 -0.4375 21.75 C-0.39429708 19.64842889 -0.35068222 17.5468662 -0.30664062 15.4453125 C-0.19964902 10.29696052 -0.0983291 5.14852442 0 0 Z " fill="#D9C5AC" transform="translate(52,33)"/>
<path d="M0 0 C0.66 0.33 1.32 0.66 2 1 C1.87447867 7.02502393 -0.03872293 9.99357456 -4.17578125 14.33203125 C-8.03250855 17.85841788 -11.67372985 18.45838289 -16.87109375 18.3203125 C-20.61438958 17.75710102 -23.98869876 16.29028545 -27 14 C-28.2890625 12.234375 -28.2890625 12.234375 -29 10 C-28.67 8.02 -28.34 6.04 -28 4 C-19.75 4 -11.5 4 -3 4 C-3 4.99 -3 5.98 -3 7 C-2.01 7 -1.02 7 0 7 C0 4.69 0 2.38 0 0 Z M-26 5 C-24.60117276 9.10010305 -24.60117276 9.10010305 -21.25 11.8125 C-17.7504993 13.09116372 -15.68250818 13.53703244 -12 13 C-7.31332964 10.52698536 -7.31332964 10.52698536 -5 6 C-12.03905044 5.06145994 -18.90272572 4.89191968 -26 5 Z " fill="#72675B" transform="translate(98,59)"/>
<path d="M0 0 C3.96873434 1.32291145 4.29905037 2.91149738 6.1875 6.5625 C6.71730469 7.57441406 7.24710938 8.58632813 7.79296875 9.62890625 C8.19128906 10.41136719 8.58960937 11.19382812 9 12 C8.690625 11.13375 8.38125 10.2675 8.0625 9.375 C7.07508101 6.23849262 6.46418941 3.24932587 6 0 C9.21658281 3.7949589 11.11135915 8.14984649 13.1875 12.625 C13.55552734 13.40101562 13.92355469 14.17703125 14.30273438 14.9765625 C17 20.7414048 17 20.7414048 17 23 C16.34 23 15.68 23 15 23 C14.67 23.66 14.34 24.32 14 25 C5.75 25 -2.5 25 -11 25 C-9.03164775 20.07911938 -6.83146885 15.31335467 -4.56640625 10.52734375 C-2.93244295 7.05604832 -1.37743111 3.5813209 0 0 Z M1 2 C-0.50626117 5.12202006 -2.00393243 8.24808399 -3.5 11.375 C-3.92925781 12.26445313 -4.35851562 13.15390625 -4.80078125 14.0703125 C-5.20683594 14.92109375 -5.61289063 15.771875 -6.03125 16.6484375 C-6.40830078 17.43395996 -6.78535156 18.21948242 -7.17382812 19.02880859 C-8.12884831 20.9512028 -8.12884831 20.9512028 -8 23 C-1.4 23 5.2 23 12 23 C10.741875 20.091875 9.48375 17.18375 8.1875 14.1875 C7.60198364 12.81887817 7.60198364 12.81887817 7.00463867 11.42260742 C6.6872876 10.69920166 6.36993652 9.9757959 6.04296875 9.23046875 C5.72352295 8.49207764 5.40407715 7.75368652 5.07495117 6.99291992 C3.95858977 4.92322696 2.73940047 3.56611026 1 2 Z " fill="#695F53" transform="translate(81,36)"/>
<path d="M0 0 C8.25 0 16.5 0 25 0 C26.19225915 2.3845183 26.12682707 3.84909216 26.12939453 6.50976562 C26.13254669 7.44413452 26.13569885 8.37850342 26.13894653 9.34118652 C26.1369223 10.35265747 26.13489807 11.36412842 26.1328125 12.40625 C26.13424759 13.9597113 26.13424759 13.9597113 26.13571167 15.54455566 C26.13639298 17.7368984 26.13454209 19.92924315 26.13037109 22.12158203 C26.12502218 25.4860485 26.13031775 28.85038146 26.13671875 32.21484375 C26.13605796 34.34114613 26.13477678 36.46744843 26.1328125 38.59375 C26.13483673 39.60522095 26.13686096 40.61669189 26.13894653 41.65881348 C26.13579437 42.59318237 26.13264221 43.52755127 26.12939453 44.49023438 C26.12859894 45.31471069 26.12780334 46.13918701 26.12698364 46.98864746 C26 49 26 49 25 51 C25.66 51 26.32 51 27 51 C27 51.66 27 52.32 27 53 C19.08 53.495 19.08 53.495 11 54 C11 54.66 11 55.32 11 56 C24.86 56.495 24.86 56.495 39 57 C39 57.33 39 57.66 39 58 C34.8882744 58.02465746 30.77657722 58.04283959 26.66479492 58.05493164 C25.26504772 58.0599708 23.8653058 58.06680216 22.46557617 58.07543945 C20.45754223 58.0875232 18.44947043 58.09269807 16.44140625 58.09765625 C15.23170166 58.10289307 14.02199707 58.10812988 12.77563477 58.11352539 C10 58 10 58 9 57 C8.95936168 55.33382885 8.957279 53.66611905 9 52 C12.14930893 50.95023036 14.38814456 50.89868405 17.6875 50.9375 C18.68136719 50.94652344 19.67523438 50.95554688 20.69921875 50.96484375 C21.83810547 50.98224609 21.83810547 50.98224609 23 51 C23.94337376 48.16987873 24.12172829 46.45700082 24.11352539 43.52856445 C24.11344986 42.62785721 24.11337433 41.72714996 24.11329651 40.79914856 C24.10813522 39.83031235 24.10297394 38.86147614 24.09765625 37.86328125 C24.0962413 36.86870407 24.09482635 35.87412689 24.09336853 34.84941101 C24.08776761 31.67041018 24.07521496 28.49147957 24.0625 25.3125 C24.05748512 23.15820414 24.05292219 21.00390718 24.04882812 18.84960938 C24.03864845 13.56635737 24.01907313 8.28325738 24 3 C16.08 3 8.16 3 0 3 C0 2.01 0 1.02 0 0 Z " fill="#38322B" transform="translate(25,30)"/>
<path d="M0 0 C2.75387823 0.89501042 3.96886237 1.34566714 5.5 3.8125 C5.28199553 8.60859836 3.47686622 12.51496474 1.5 16.8125 C0.18 16.4825 -1.14 16.1525 -2.5 15.8125 C-2.5 15.1525 -2.5 14.4925 -2.5 13.8125 C-13.39 13.4825 -24.28 13.1525 -35.5 12.8125 C-35.5 12.4825 -35.5 12.1525 -35.5 11.8125 C-20.155 11.3175 -20.155 11.3175 -4.5 10.8125 C-5.16 10.1525 -5.82 9.4925 -6.5 8.8125 C-6.3125 5.3125 -6.3125 5.3125 -5.5 1.8125 C-2.5 -0.1875 -2.5 -0.1875 0 0 Z " fill="#5C544A" transform="translate(53.5,14.1875)"/>
<path d="M0 0 C3.98263689 4.43022682 6.27410245 9.33649667 8.75 14.6875 C9.16121094 15.55439453 9.57242188 16.42128906 9.99609375 17.31445312 C13 23.7264457 13 23.7264457 13 26 C12.34 26 11.68 26 11 26 C9.35 22.7 7.7 19.4 6 16 C6.4640625 17.3303125 6.4640625 17.3303125 6.9375 18.6875 C8 22 8 22 9 27 C1.41 27 -6.18 27 -14 27 C-13.04805076 22.24025378 -11.76344557 19.37420203 -9.4375 15.1875 C-8.9434668 14.2912793 -8.9434668 14.2912793 -8.43945312 13.37695312 C-7.63226733 11.91466002 -6.81695083 10.4568601 -6 9 C-5.67 9.66 -5.34 10.32 -5 11 C-6.07794489 13.44960774 -7.19566321 15.76206427 -8.4375 18.125 C-9.613125 20.39375 -10.78875 22.6625 -12 25 C-5.73 25 0.54 25 7 25 C4.41627403 19.58351424 4.41627403 19.58351424 1.82446289 14.17089844 C1.5021167 13.4905957 1.17977051 12.81029297 0.84765625 12.109375 C0.3527771 11.07248535 0.3527771 11.07248535 -0.15209961 10.01464844 C-0.98917528 8.02572001 -1.53583974 6.10419318 -2 4 C-1.34 4 -0.68 4 0 4 C0 2.68 0 1.36 0 0 Z " fill="#60564B" transform="translate(26,33)"/>
<path d="M0 0 C0.66 0.33 1.32 0.66 2 1 C1.69723124 7.05537521 -1.27754038 10.51483458 -5 15 C-5.66 14.67 -6.32 14.34 -7 14 C-6.67 13.34 -6.34 12.68 -6 12 C-6.825 12.33 -7.65 12.66 -8.5 13 C-13.86430103 14.53265744 -18.0418795 14.61644534 -23.375 12.9375 C-26 11 -26 11 -28 4 C-19.75 4 -11.5 4 -3 4 C-3 5.32 -3 6.64 -3 8 C-2.34 8 -1.68 8 -1 8 C-0.67 5.36 -0.34 2.72 0 0 Z M-26 6 C-23.60122781 10.85208059 -23.60122781 10.85208059 -20.8125 12.375 C-16.99140352 13.22413255 -13.76692399 13.07083928 -10 12 C-7.01211967 10.23002588 -7.01211967 10.23002588 -5 8 C-5 7.34 -5 6.68 -5 6 C-11.93 6 -18.86 6 -26 6 Z " fill="#655C50" transform="translate(39,59)"/>
<path d="M0 0 C1 2 1 2 1 5 C1.33 4.34 1.66 3.68 2 3 C2.66 3.33 3.32 3.66 4 4 C2.36164384 8.6630137 2.36164384 8.6630137 0.625 10.28125 C-1.61160651 12.6468915 -2.77304029 15.26428326 -4.1875 18.1875 C-4.71730469 19.27417969 -5.24710938 20.36085938 -5.79296875 21.48046875 C-6.19128906 22.31191406 -6.58960938 23.14335938 -7 24 C-7.66 24 -8.32 24 -9 24 C-9.33 24.66 -9.66 25.32 -10 26 C-10.66 26 -11.32 26 -12 26 C-10.34176227 20.46347949 -7.92776074 15.38439485 -5.4375 10.1875 C-5.02564453 9.31673828 -4.61378906 8.44597656 -4.18945312 7.54882812 C-1.13502139 1.13502139 -1.13502139 1.13502139 0 0 Z " fill="#7E7265" transform="translate(20,33)"/>
<path d="M0 0 C2.97246802 2.54782974 4.41535288 5.45340883 6 9 C6 9.66 6 10.32 6 11 C6.66 11 7.32 11 8 11 C8.93065133 13.60582371 9.14917407 14.64198224 8.0625 17.25 C7.5365625 18.11625 7.5365625 18.11625 7 19 C6.34 19 5.68 19 5 19 C5 17.68 5 16.36 5 15 C3.865625 15.01160156 2.73125 15.02320313 1.5625 15.03515625 C0.04166833 15.0445441 -1.47916514 15.05364322 -3 15.0625 C-4.11568359 15.07506836 -4.11568359 15.07506836 -5.25390625 15.08789062 C-10.26148844 15.10966272 -15.04279032 14.71541549 -20 14 C-20 13.67 -20 13.34 -20 13 C-11.75 13 -3.5 13 5 13 C3.35 9.7 1.7 6.4 0 3 C0 2.01 0 1.02 0 0 Z " fill="#D1BDA6" transform="translate(31,48)"/>
<path d="M0 0 C2.5625 0.1875 2.5625 0.1875 4.5625 2.1875 C5.3485966 3.80691456 6.07175173 5.45753765 6.75 7.125 C7.11480469 8.00027344 7.47960937 8.87554687 7.85546875 9.77734375 C8.5625 12.1875 8.5625 12.1875 7.5625 15.1875 C7.08039063 14.33285156 6.59828125 13.47820313 6.1015625 12.59765625 C5.46992187 11.49292969 4.83828125 10.38820313 4.1875 9.25 C3.56101562 8.14785156 2.93453125 7.04570313 2.2890625 5.91015625 C0.84351386 3.11306953 0.84351386 3.11306953 -1.4375 2.1875 C-1.53933594 2.88230469 -1.64117187 3.57710937 -1.74609375 4.29296875 C-2.55467006 7.67802552 -3.90425713 10.41037019 -5.5 13.5 C-6.04785156 14.56863281 -6.59570312 15.63726562 -7.16015625 16.73828125 C-7.58167969 17.54652344 -8.00320312 18.35476562 -8.4375 19.1875 C-9.0975 18.5275 -9.7575 17.8675 -10.4375 17.1875 C-9.5403125 15.455 -9.5403125 15.455 -8.625 13.6875 C-7.15149175 10.75615912 -5.8755976 7.83146273 -4.75 4.75 C-3.0875 0.2375 -3.0875 0.2375 0 0 Z " fill="#D7C3AC" transform="translate(82.4375,33.8125)"/>
<path d="M0 0 C10.23 0 20.46 0 31 0 C31 0.33 31 0.66 31 1 C18.625 1.495 18.625 1.495 6 2 C6.33 4.31 6.66 6.62 7 9 C5.68 8.67 4.36 8.34 3 8 C2.34 9.65 1.68 11.3 1 13 C-0.13643966 9.59068103 0.13252236 8.99664544 1.4375 5.8125 C1.72496094 5.09707031 2.01242188 4.38164063 2.30859375 3.64453125 C2.53675781 3.10183594 2.76492187 2.55914063 3 2 C2.01 2 1.02 2 0 2 C0 1.34 0 0.68 0 0 Z " fill="#EBD4BA" transform="translate(19,28)"/>
<path d="M0 0 C0.33 0.66 0.66 1.32 1 2 C1.99 2 2.98 2 4 2 C4 2.66 4 3.32 4 4 C-3.92 4.495 -3.92 4.495 -12 5 C-12 5.66 -12 6.32 -12 7 C1.86 7.495 1.86 7.495 16 8 C16 8.33 16 8.66 16 9 C11.8882744 9.02465746 7.77657722 9.04283959 3.66479492 9.05493164 C2.26504772 9.0599708 0.8653058 9.06680216 -0.53442383 9.07543945 C-2.54245777 9.0875232 -4.55052957 9.09269807 -6.55859375 9.09765625 C-7.76829834 9.10289307 -8.97800293 9.10812988 -10.22436523 9.11352539 C-13 9 -13 9 -14 8 C-14.04063832 6.33382885 -14.042721 4.66611905 -14 3 C-10.85069107 1.95023036 -8.61185544 1.89868405 -5.3125 1.9375 C-4.31863281 1.94652344 -3.32476562 1.95554687 -2.30078125 1.96484375 C-1.16189453 1.98224609 -1.16189453 1.98224609 0 2 C0 1.34 0 0.68 0 0 Z " fill="#201C18" transform="translate(48,79)"/>
<path d="M0 0 C8.25 0 16.5 0 25 0 C24.67 1.32 24.34 2.64 24 4 C23.67 3.34 23.34 2.68 23 2 C16.07 1.67 9.14 1.34 2 1 C2.99 2.98 3.98 4.96 5 7 C4.01 7 3.02 7 2 7 C2.66 8.32 3.32 9.64 4 11 C2.0625 10.1875 2.0625 10.1875 0 9 C-1 6 -1 6 0 0 Z " fill="#3A352E" transform="translate(70,63)"/>
<path d="M0 0 C2.5625 0.1875 2.5625 0.1875 4.5625 2.1875 C4.9375 4.625 4.9375 4.625 4.5625 7.1875 C2.5625 9 2.5625 9 0.5625 10.1875 C-1.4375 9.0625 -1.4375 9.0625 -3.4375 7.1875 C-3.75 4.0625 -3.75 4.0625 -3.4375 1.1875 C-2.4375 0.1875 -2.4375 0.1875 0 0 Z " fill="#BFAE9A" transform="translate(52.4375,15.8125)"/>
<path d="M0 0 C0.66 0 1.32 0 2 0 C2 0.66 2 1.32 2 2 C9.45965441 4.98386177 15.60379867 4.46540044 23 2 C22.1875 3.9375 22.1875 3.9375 21 6 C15.51616488 7.82794504 9.30503079 7.9408289 3.9375 5.75 C1.93801378 3.94401245 0.95091673 2.50696229 0 0 Z " fill="#CFBCA5" transform="translate(11,68)"/>
<path d="M0 0 C8.25 0 16.5 0 25 0 C24.67 0.99 24.34 1.98 24 3 C16.41 3 8.82 3 1 3 C0.67 2.01 0.34 1.02 0 0 Z " fill="#302A24" transform="translate(11,63)"/>
<path d="M0 0 C0.99 0.33 1.98 0.66 3 1 C4.125 5.75 4.125 5.75 3 8 C2.01 8 1.02 8 0 8 C0 6.68 0 5.36 0 4 C-8.25 4 -16.5 4 -25 4 C-25 3.67 -25 3.34 -25 3 C-16.75 3 -8.5 3 0 3 C0 2.01 0 1.02 0 0 Z " fill="#DFC8AF" transform="translate(95,58)"/>
<path d="M0 0 C9.9 0 19.8 0 30 0 C30 0.66 30 1.32 30 2 C28.02 2.66 26.04 3.32 24 4 C23.67 3.67 23.34 3.34 23 3 C21.2962092 2.77246643 19.58426501 2.60526762 17.87109375 2.46484375 C16.83662109 2.37783203 15.80214844 2.29082031 14.73632812 2.20117188 C13.1034082 2.0706543 13.1034082 2.0706543 11.4375 1.9375 C10.34501953 1.84662109 9.25253906 1.75574219 8.12695312 1.66210938 C5.41827508 1.43737189 2.70931834 1.21685911 0 1 C0 0.67 0 0.34 0 0 Z " fill="#E2CCB3" transform="translate(58,28)"/>
<path d="M0 0 C10.89 0 21.78 0 33 0 C33 0.33 33 0.66 33 1 C22.77 1 12.54 1 2 1 C2 1.66 2 2.32 2 3 C2.99 3 3.98 3 5 3 C4.67 3.99 4.34 4.98 4 6 C2.68 5.34 1.36 4.68 0 4 C0 2.68 0 1.36 0 0 Z " fill="#867A6B" transform="translate(17,27)"/>
<path d="M0 0 C1.32 0.33 2.64 0.66 4 1 C4 4 4 4 3 6 C8.61 6 14.22 6 20 6 C19.67 6.99 19.34 7.98 19 9 C19 8.34 19 7.68 19 7 C12.07 7 5.14 7 -2 7 C-1.01 6.67 -0.02 6.34 1 6 C1 5.34 1 4.68 1 4 C0.34 4 -0.32 4 -1 4 C-0.67 2.68 -0.34 1.36 0 0 Z " fill="#C3B099" transform="translate(51,77)"/>
<path d="M0 0 C0.53109375 0.13277344 1.0621875 0.26554687 1.609375 0.40234375 C2.79273437 0.69818359 2.79273437 0.69818359 4 1 C6.08333333 1.52083333 8.16666667 2.04166667 10.25 2.5625 C11.86648437 2.96662109 11.86648437 2.96662109 13.515625 3.37890625 C14.33546875 3.58386719 15.1553125 3.78882812 16 4 C14 6 14 6 11.3125 6.3125 C7.19816685 5.92435536 4.6539144 4.93442527 1 3 C0.67 2.01 0.34 1.02 0 0 Z " fill="#C7B49E" transform="translate(72,70)"/>
<path d="M0 0 C0.6875 1.625 0.6875 1.625 1 4 C-0.4375 7.25 -0.4375 7.25 -2 10 C-2.66 10 -3.32 10 -4 10 C-4.33 10.66 -4.66 11.32 -5 12 C-5.66 12 -6.32 12 -7 12 C-5.8905928 8.51329166 -4.73662334 5.22515763 -3 2 C-2.01 2 -1.02 2 0 2 C0 1.34 0 0.68 0 0 Z " fill="#998B7B" transform="translate(15,47)"/>
<path d="M0 0 C0.33 0 0.66 0 1 0 C1.04898438 0.78246094 1.09796875 1.56492187 1.1484375 2.37109375 C1.22320312 3.38300781 1.29796875 4.39492187 1.375 5.4375 C1.44460937 6.44683594 1.51421875 7.45617187 1.5859375 8.49609375 C1.72257812 9.32238281 1.85921875 10.14867188 2 11 C2.66 11.33 3.32 11.66 4 12 C4 12.66 4 13.32 4 14 C7.3 14 10.6 14 14 14 C14 14.33 14 14.66 14 15 C9.38 15 4.76 15 0 15 C0 10.05 0 5.1 0 0 Z " fill="#2D2923" transform="translate(55,67)"/>
<path d="M0 0 C0.99 0 1.98 0 3 0 C3.33 2.31 3.66 4.62 4 7 C2.68 6.67 1.36 6.34 0 6 C-0.66 7.65 -1.32 9.3 -2 11 C-3.13643966 7.59068103 -2.86747764 6.99664544 -1.5625 3.8125 C-1.13130859 2.73935547 -1.13130859 2.73935547 -0.69140625 1.64453125 C-0.46324219 1.10183594 -0.23507813 0.55914063 0 0 Z " fill="#D1BFA9" transform="translate(22,30)"/>
<path d="M0 0 C0.99 0.33 1.98 0.66 3 1 C2.34 1 1.68 1 1 1 C1.66 2.65 2.32 4.3 3 6 C0.69 5.67 -1.62 5.34 -4 5 C-4.66 6.32 -5.32 7.64 -6 9 C-6.33 8.01 -6.66 7.02 -7 6 C-6.34 5.01 -5.68 4.02 -5 3 C-4.34 3 -3.68 3 -3 3 C-2.67 2.34 -2.34 1.68 -2 1 C-1.34 0.67 -0.68 0.34 0 0 Z " fill="#766B5F" transform="translate(84,30)"/>
<path d="M0 0 C0 0.99 0 1.98 0 3 C-3.06246747 4.78409802 -5.22079273 5.22880021 -8.75 5.125 C-9.54921875 5.10695313 -10.3484375 5.08890625 -11.171875 5.0703125 C-11.77515625 5.04710938 -12.3784375 5.02390625 -13 5 C-13 4.67 -13 4.34 -13 4 C-11.96875 3.71125 -10.9375 3.4225 -9.875 3.125 C-6.54992003 2.17691202 -3.27248547 1.11743406 0 0 Z " fill="#D7C2AA" transform="translate(33,70)"/>
<path d="M0 0 C3 1 3 1 4.1875 3.0625 C4.455625 3.701875 4.72375 4.34125 5 5 C4.01 5 3.02 5 2 5 C2.66 6.32 3.32 7.64 4 9 C2.0625 8.1875 2.0625 8.1875 0 7 C-1.04449911 3.86650268 -0.93423645 3.01031744 0 0 Z " fill="#807466" transform="translate(70,65)"/>
<path d="M0 0 C0.99 0.33 1.98 0.66 3 1 C4.125 5.75 4.125 5.75 3 8 C2.01 8 1.02 8 0 8 C0 7.01 0 6.02 0 5 C0.66 5 1.32 5 2 5 C1.34 3.35 0.68 1.7 0 0 Z " fill="#C8B6A1" transform="translate(95,58)"/>
<path d="M0 0 C2.15377564 2.62198774 3.40072174 4.64404172 4 8 C2.68 8 1.36 8 0 8 C0 5.36 0 2.72 0 0 Z " fill="#807466" transform="translate(94,51)"/>
</svg>
