<?xml version="1.0" encoding="UTF-8"?>
<svg version="1.1" xmlns="http://www.w3.org/2000/svg" width="83" height="93">
<path d="M0 0 C2.375 0.375 2.375 0.375 4.375 2.375 C7.68183466 2.08516731 7.68183466 2.08516731 10.375 0.375 C12.84428056 0.24152537 14.92889361 0.24548524 17.3125 0.9375 C19.51439934 1.53701619 19.51439934 1.53701619 22.3125 0.875 C25.375 0.375 25.375 0.375 27.8125 0.875 C30.53516696 1.55798314 30.53516696 1.55798314 33.9375 0.8125 C37.4005283 0.37175094 38.5605938 0.46120379 41.375 2.375 C42.365 1.715 43.355 1.055 44.375 0.375 C47.9375 0.5625 47.9375 0.5625 51.375 1.375 C53.79119631 4.99929446 53.61798934 6.64638362 53.60205078 10.95776367 C53.60234283 11.62144455 53.60263489 12.28512543 53.60293579 12.96891785 C53.60154357 15.16040161 53.58598779 17.35154445 53.5703125 19.54296875 C53.56658198 21.06325596 53.56373519 22.58354558 53.56173706 24.10383606 C53.55410366 28.10369514 53.53445774 32.10340879 53.5123291 36.10321045 C53.49186434 40.18532341 53.482734 44.26745989 53.47265625 48.34960938 C53.45121152 56.35813963 53.41707917 64.36655172 53.375 72.375 C52.385 72.705 51.395 73.035 50.375 73.375 C50.045 74.035 49.715 74.695 49.375 75.375 C46.04166667 73.70833333 42.70833333 72.04166667 39.375 70.375 C38.653125 71.055625 37.93125 71.73625 37.1875 72.4375 C34.375 74.375 34.375 74.375 31.8125 74.3125 C29.375 73.375 29.375 73.375 27.3125 71.75 C25.49783312 70.15700796 25.49783312 70.15700796 23.375 70.5 C21.26764923 71.31012074 21.26764923 71.31012074 19.4375 73 C17.375 74.375 17.375 74.375 14.875 74.25 C12.375 73.375 12.375 73.375 10.375 71.6875 C9.715 71.254375 9.055 70.82125 8.375 70.375 C5.20413833 71.22571899 3.118586 72.54594266 0.375 74.375 C-5.18055556 73.81944444 -5.18055556 73.81944444 -6.625 72.375 C-6.74027019 70.27992687 -6.78469915 68.18093412 -6.80200195 66.08276367 C-6.80857315 65.42580002 -6.81514435 64.76883636 -6.82191467 64.09196472 C-6.84169076 61.90896502 -6.85332042 59.72603428 -6.86328125 57.54296875 C-6.86735678 56.79866419 -6.8714323 56.05435963 -6.87563133 55.28750038 C-6.89651164 51.3471873 -6.91080414 47.40690923 -6.92016602 43.46655273 C-6.93122771 39.39412527 -6.96561849 35.32224467 -7.00533772 31.25001049 C-7.03147481 28.12131224 -7.03985527 24.99274474 -7.04344749 21.86394691 C-7.04832197 20.36281966 -7.05996054 18.86169858 -7.07848549 17.36067772 C-7.10281447 15.25848422 -7.10192436 13.15771087 -7.0949707 11.05541992 C-7.10083694 9.85930588 -7.10670319 8.66319183 -7.11274719 7.43083191 C-6.40399477 2.99035885 -4.52160045 0.64594292 0 0 Z M-0.625 6.375 C-0.625 26.505 -0.625 46.635 -0.625 67.375 C1.025 66.385 2.675 65.395 4.375 64.375 C10.69642857 64.69642857 10.69642857 64.69642857 13.375 67.375 C16.4191709 67.13467072 17.99149731 66.70901847 20.3125 64.6875 C22.375 63.375 22.375 63.375 25.5 64.0625 C28.375 65.375 28.375 65.375 30.375 67.375 C33.81665321 67.02200993 35.44372538 66.32918308 38.375 64.375 C41.96283942 64.74298353 44.06977423 65.72238712 47.375 67.375 C47.375 47.245 47.375 27.115 47.375 6.375 C44.9 7.86 44.9 7.86 42.375 9.375 C39.375 9.375 39.375 9.375 37.6875 7.75 C35.54685069 6.13912093 35.54685069 6.13912093 33.515625 6.69140625 C32.11777179 7.10918569 30.72194286 7.53379267 29.328125 7.96484375 C26.5815452 8.54162551 24.89431127 7.4644319 22.375 6.375 C21.570625 6.705 20.76625 7.035 19.9375 7.375 C17.375 8.375 17.375 8.375 14.3125 7.3125 C13.343125 7.003125 12.37375 6.69375 11.375 6.375 C9.24155232 7.7666876 9.24155232 7.7666876 7.375 9.375 C4.24187343 9.08126938 2.26881194 7.82190597 -0.625 6.375 Z " fill="#807465" transform="translate(17.625,9.625)"/>
<path d="M0 0 C2.375 0.375 2.375 0.375 4.375 2.375 C7.68183466 2.08516731 7.68183466 2.08516731 10.375 0.375 C12.84428056 0.24152537 14.92889361 0.24548524 17.3125 0.9375 C19.51439934 1.53701619 19.51439934 1.53701619 22.3125 0.875 C25.375 0.375 25.375 0.375 27.8125 0.875 C30.53516696 1.55798314 30.53516696 1.55798314 33.9375 0.8125 C37.45928954 0.36427224 38.51374533 0.46749689 41.375 2.375 C42.035 2.705 42.695 3.035 43.375 3.375 C42.715 4.035 42.055 4.695 41.375 5.375 C40.385 5.375 39.395 5.375 38.375 5.375 C38.375 6.365 38.375 7.355 38.375 8.375 C40.025 8.375 41.675 8.375 43.375 8.375 C42.385 9.365 41.395 10.355 40.375 11.375 C39.715 10.67375 39.055 9.9725 38.375 9.25 C35.68367291 7.12698071 35.68367291 7.12698071 33.4375 7.625 C32.05139777 8.04503098 30.66980523 8.48021368 29.29296875 8.9296875 C26.56186809 9.56379234 24.88674578 8.46116034 22.375 7.375 C21.570625 7.705 20.76625 8.035 19.9375 8.375 C17.375 9.375 17.375 9.375 14.3125 8.3125 C13.343125 8.003125 12.37375 7.69375 11.375 7.375 C9.24155232 8.7666876 9.24155232 8.7666876 7.375 10.375 C4.30788436 10.09617131 3.01129294 9.13252863 0.375 7.375 C0.375 26.845 0.375 46.315 0.375 66.375 C1.365 66.375 2.355 66.375 3.375 66.375 C2.0625 67.875 2.0625 67.875 0.375 69.375 C-0.615 69.375 -1.605 69.375 -2.625 69.375 C-2.955 47.925 -3.285 26.475 -3.625 4.375 C-3.955 26.815 -4.285 49.255 -4.625 72.375 C-1.985 72.045 0.655 71.715 3.375 71.375 C2.25 72.9375 2.25 72.9375 0.375 74.375 C-5.05978261 73.94021739 -5.05978261 73.94021739 -6.625 72.375 C-6.74027019 70.27992687 -6.78469915 68.18093412 -6.80200195 66.08276367 C-6.80857315 65.42580002 -6.81514435 64.76883636 -6.82191467 64.09196472 C-6.84169076 61.90896502 -6.85332042 59.72603428 -6.86328125 57.54296875 C-6.86735678 56.79866419 -6.8714323 56.05435963 -6.87563133 55.28750038 C-6.89651164 51.3471873 -6.91080414 47.40690923 -6.92016602 43.46655273 C-6.93122771 39.39412527 -6.96561849 35.32224467 -7.00533772 31.25001049 C-7.03147481 28.12131224 -7.03985527 24.99274474 -7.04344749 21.86394691 C-7.04832197 20.36281966 -7.05996054 18.86169858 -7.07848549 17.36067772 C-7.10281447 15.25848422 -7.10192436 13.15771087 -7.0949707 11.05541992 C-7.10083694 9.85930588 -7.10670319 8.66319183 -7.11274719 7.43083191 C-6.40399477 2.99035885 -4.52160045 0.64594292 0 0 Z " fill="#71665B" transform="translate(17.625,9.625)"/>
<path d="M0 0 C0.85722656 -0.00773437 1.71445312 -0.01546875 2.59765625 -0.0234375 C5.34062296 0.44364531 6.21849347 1.24455912 7.9375 3.375 C7.2775 4.695 6.6175 6.015 5.9375 7.375 C5.29941406 7.29121094 4.66132812 7.20742188 4.00390625 7.12109375 C3.17761719 7.01925781 2.35132812 6.91742188 1.5 6.8125 C0.67628906 6.70808594 -0.14742187 6.60367188 -0.99609375 6.49609375 C-1.67800781 6.45613281 -2.35992187 6.41617188 -3.0625 6.375 C-3.3925 6.705 -3.7225 7.035 -4.0625 7.375 C-1.7525 8.035 0.5575 8.695 2.9375 9.375 C2.6075 12.345 2.2775 15.315 1.9375 18.375 C-0.3725 18.375 -2.6825 18.375 -5.0625 18.375 C-4.7325 19.035 -4.4025 19.695 -4.0625 20.375 C-0.1025 20.375 3.8575 20.375 7.9375 20.375 C6.9375 24.375 6.9375 24.375 4.9375 26.375 C-0.48166465 27.20401875 -4.7483062 27.32843472 -9.25 24.0625 C-11.0625 21.375 -11.0625 21.375 -11.0625 18.375 C-12.7125 18.375 -14.3625 18.375 -16.0625 18.375 C-15.7325 15.075 -15.4025 11.775 -15.0625 8.375 C-13.7425 8.375 -12.4225 8.375 -11.0625 8.375 C-10.815 7.611875 -10.5675 6.84875 -10.3125 6.0625 C-8.08255705 1.26812267 -5.16932346 -0.04678121 0 0 Z " fill="#6C6357" transform="translate(44.0625,26.625)"/>
<path d="M0 0 C6.875 0.875 6.875 0.875 8 2 C8.09425595 4.14743549 8.11742648 6.29801026 8.11352539 8.44750977 C8.11367142 9.12065216 8.11381744 9.79379456 8.1139679 10.48733521 C8.11326878 12.72205784 8.10547652 14.9566981 8.09765625 17.19140625 C8.09579206 18.73697362 8.09436816 20.28254157 8.09336853 21.82810974 C8.0895434 25.90357077 8.07971317 29.97899637 8.06866455 34.05444336 C8.05845032 38.21011882 8.05387089 42.36579999 8.04882812 46.52148438 C8.03809089 54.68100587 8.02101454 62.84049853 8 71 C6.02 71.495 6.02 71.495 4 72 C4 50.22 4 28.44 4 6 C3.01 6 2.02 6 1 6 C0.67 6.66 0.34 7.32 0 8 C-1.98 8 -3.96 8 -6 8 C-6 7.01 -6 6.02 -6 5 C-5.38125 4.731875 -4.7625 4.46375 -4.125 4.1875 C-1.7004767 3.04443152 -1.7004767 3.04443152 0 0 Z " fill="#C9BAA6" transform="translate(62,10)"/>
<path d="M0 0 C0.33 0 0.66 0 1 0 C1 22.44 1 44.88 1 68 C-0.485 68.495 -0.485 68.495 -2 69 C-2.495 69.99 -2.495 69.99 -3 71 C-8.75 68.375 -8.75 68.375 -11 65 C-9.35 65.66 -7.7 66.32 -6 67 C-6 45.88 -6 24.76 -6 3 C-6.66 2.67 -7.32 2.34 -8 2 C-6.0625 1.4375 -6.0625 1.4375 -4 1 C-2.199382 2.800618 -2.87231616 5.52984124 -2.87060547 7.95678711 C-2.86745331 9.23158432 -2.86430115 10.50638153 -2.86105347 11.81980896 C-2.86284344 13.2223209 -2.86489444 14.62483254 -2.8671875 16.02734375 C-2.86651435 17.45601925 -2.86554423 18.88469464 -2.86428833 20.31336975 C-2.8628114 23.31203295 -2.86496543 26.31066642 -2.86962891 29.30932617 C-2.87532106 33.15752758 -2.87205043 37.00565916 -2.86605644 40.85385799 C-2.8624463 43.8057559 -2.86359159 46.7576372 -2.86618423 49.7095356 C-2.86685252 51.12854584 -2.86602852 52.54755759 -2.86370468 53.96656609 C-2.86117137 55.94898323 -2.86571569 57.93140563 -2.87060547 59.91381836 C-2.87140106 61.04331406 -2.87219666 62.17280975 -2.87301636 63.33653259 C-3 66 -3 66 -4 68 C-2.515 67.505 -2.515 67.505 -1 67 C-0.67 44.89 -0.34 22.78 0 0 Z " fill="#463F38" transform="translate(70,14)"/>
<path d="M0 0 C0.33 0 0.66 0 1 0 C1 21.78 1 43.56 1 66 C3.69652403 64.38208558 6.38348441 62.74434373 9 61 C11.6875 61.375 11.6875 61.375 14 62 C14 63.32 14 64.64 14 66 C12.6293189 66.51172094 11.25315925 67.00877492 9.875 67.5 C9.10929687 67.7784375 8.34359375 68.056875 7.5546875 68.34375 C4.62620051 69.09602189 2.01273146 69.04350515 -1 69 C-1.02312589 60.1511761 -1.04091634 51.30236253 -1.05181217 42.45351505 C-1.05704046 38.34505715 -1.06413713 34.23661986 -1.07543945 30.12817383 C-1.08627025 26.16653172 -1.09227724 22.20490948 -1.09487724 18.24325371 C-1.09673114 16.72851689 -1.1003511 15.21378121 -1.10573006 13.69905281 C-1.11294307 11.58458187 -1.11399083 9.47019406 -1.11352539 7.35571289 C-1.115746 6.14992081 -1.11796661 4.94412872 -1.12025452 3.70179749 C-1 1 -1 1 0 0 Z " fill="#DFCBB5" transform="translate(14,13)"/>
<path d="M0 0 C9.24 0 18.48 0 28 0 C27.67 1.65 27.34 3.3 27 5 C18.09 5 9.18 5 0 5 C0 3.35 0 1.7 0 0 Z " fill="#796C5E" transform="translate(27,59)"/>
<path d="M0 0 C6.75 0.75 6.75 0.75 9 3 C13.05261287 3.34490322 14.54754176 3.30163882 18 1 C20.6875 1.375 20.6875 1.375 23 2 C23 3.32 23 4.64 23 6 C22.0925 6.268125 21.185 6.53625 20.25 6.8125 C17.02916435 7.78724453 17.02916435 7.78724453 14.9375 9.6875 C13 11 13 11 10.5 10.9375 C7.54646679 9.82992505 6.05436898 8.35871993 4 6 C4.66 4.68 5.32 3.36 6 2 C3.69 2 1.38 2 -1 2 C-0.67 1.34 -0.34 0.68 0 0 Z " fill="#85796B" transform="translate(22,73)"/>
<path d="M0 0 C0.66 0 1.32 0 2 0 C2 0.99 2 1.98 2 3 C4.97 3 7.94 3 11 3 C11 3.66 11 4.32 11 5 C8.36 5 5.72 5 3 5 C3.66 6.65 4.32 8.3 5 10 C10.445 9.505 10.445 9.505 16 9 C15.34 10.32 14.68 11.64 14 13 C6.23496241 13.91353383 6.23496241 13.91353383 3.2890625 11.734375 C0 7.81791908 0 7.81791908 0 5 C-1.32 5 -2.64 5 -4 5 C-4 4.34 -4 3.68 -4 3 C-2.68 3 -1.36 3 0 3 C0 2.01 0 1.02 0 0 Z " fill="#D5C2AB" transform="translate(34,39)"/>
<path d="M0 0 C3.625 0.25 3.625 0.25 5.3515625 1.765625 C5.98191406 2.50039063 5.98191406 2.50039063 6.625 3.25 C5.98691406 3.16621094 5.34882812 3.08242188 4.69140625 2.99609375 C3.86511719 2.89425781 3.03882813 2.79242188 2.1875 2.6875 C1.36378906 2.58308594 0.54007813 2.47867188 -0.30859375 2.37109375 C-1.33146484 2.31115234 -1.33146484 2.31115234 -2.375 2.25 C-2.705 2.58 -3.035 2.91 -3.375 3.25 C-1.065 3.91 1.245 4.57 3.625 5.25 C3.295 8.22 2.965 11.19 2.625 14.25 C0.315 14.25 -1.995 14.25 -4.375 14.25 C-4.705 14.91 -5.035 15.57 -5.375 16.25 C-5.705 15.26 -6.035 14.27 -6.375 13.25 C-3.735 13.25 -1.095 13.25 1.625 13.25 C1.625 12.59 1.625 11.93 1.625 11.25 C-1.015 11.25 -3.655 11.25 -6.375 11.25 C-6.375 10.26 -6.375 9.27 -6.375 8.25 C-3.735 8.25 -1.095 8.25 1.625 8.25 C1.625 7.26 1.625 6.27 1.625 5.25 C-0.685 5.25 -2.995 5.25 -5.375 5.25 C-4.26078372 0.31561361 -4.26078372 0.31561361 0 0 Z " fill="#37322B" transform="translate(43.375,30.75)"/>
<path d="M0 0 C1.299375 0.02900391 1.299375 0.02900391 2.625 0.05859375 C3.49125 0.05988281 4.3575 0.06117187 5.25 0.0625 C8.00063053 0.56467103 8.8974894 1.3537533 10.625 3.49609375 C10.295 4.48609375 9.965 5.47609375 9.625 6.49609375 C9.109375 6.33109375 8.59375 6.16609375 8.0625 5.99609375 C4.77061587 5.32083547 1.9809157 5.20171518 -1.375 5.49609375 C-4.28309543 7.35325562 -4.28309543 7.35325562 -6.375 9.49609375 C-5.75589361 5.03852772 -4.85868833 1.01489049 0 0 Z " fill="#AC9C8B" transform="translate(41.375,26.50390625)"/>
<path d="M0 0 C1.11375 0.3403125 1.11375 0.3403125 2.25 0.6875 C2.25 2.0075 2.25 3.3275 2.25 4.6875 C-2.85334017 6.592747 -7.21342706 8.11339023 -12.75 7.6875 C-12.42 6.6975 -12.09 5.7075 -11.75 4.6875 C-10.1023962 3.97502268 -8.43236471 3.31349617 -6.75 2.6875 C-5.76 1.8521875 -5.76 1.8521875 -4.75 1 C-2.75 -0.3125 -2.75 -0.3125 0 0 Z " fill="#D1BDA5" transform="translate(25.75,74.3125)"/>
<path d="M0 0 C0 0.99 0 1.98 0 3 C-0.804375 3.12375 -1.60875 3.2475 -2.4375 3.375 C-3.7059375 3.684375 -3.7059375 3.684375 -5 4 C-5.33 4.66 -5.66 5.32 -6 6 C-7.98 6 -9.96 6 -12 6 C-12 5.01 -12 4.02 -12 3 C-4.71428571 -1.71428571 -4.71428571 -1.71428571 0 0 Z " fill="#CEBBA4" transform="translate(68,12)"/>
<path d="M0 0 C3.64542483 -0.2025236 5.84877287 0.15272892 9 2 C9.66 2.33 10.32 2.66 11 3 C10.34 3.66 9.68 4.32 9 5 C8.01 5 7.02 5 6 5 C6 5.99 6 6.98 6 8 C7.65 8 9.3 8 11 8 C10.01 8.99 9.02 9.98 8 11 C6.82780457 10.21654285 5.66236332 9.42297164 4.5 8.625 C3.52546875 7.96371094 3.52546875 7.96371094 2.53125 7.2890625 C2.0259375 6.86367188 1.520625 6.43828125 1 6 C1 5.34 1 4.68 1 4 C1.99 3.34 2.98 2.68 4 2 C2.68 1.34 1.36 0.68 0 0 Z " fill="#867A6B" transform="translate(50,10)"/>
<path d="M0 0 C3.3125 0.1875 3.3125 0.1875 7 1 C9 3.4375 9 3.4375 10 6 C9.67 6.66 9.34 7.32 9 8 C10.65 8.33 12.3 8.66 14 9 C13.67 9.66 13.34 10.32 13 11 C8.68607774 10.5206753 6.83430453 9.2542015 4 6 C4.66 4.68 5.32 3.36 6 2 C3.69 2 1.38 2 -1 2 C-0.67 1.34 -0.34 0.68 0 0 Z " fill="#786C5E" transform="translate(22,73)"/>
<path d="M0 0 C0.99 0.495 0.99 0.495 2 1 C2 1.66 2 2.32 2 3 C7.445 2.505 7.445 2.505 13 2 C12.34 3.32 11.68 4.64 11 6 C9.54207116 6.05399736 8.08357288 6.09279177 6.625 6.125 C5.81289063 6.14820313 5.00078125 6.17140625 4.1640625 6.1953125 C2 6 2 6 0 4 C0 2.68 0 1.36 0 0 Z " fill="#C3B099" transform="translate(37,46)"/>
<path d="M0 0 C2.31 0.66 4.62 1.32 7 2 C7 3.65 7 5.3 7 7 C6.236875 6.690625 5.47375 6.38125 4.6875 6.0625 C2.81210323 5.32106407 0.91315348 4.63771783 -1 4 C-0.67 2.68 -0.34 1.36 0 0 Z " fill="#BCA994" transform="translate(57,74)"/>
<path d="M0 0 C3.95397245 0.43933027 6.73348973 1.76010725 10 4 C10 4.33 10 4.66 10 5 C6.37 4.67 2.74 4.34 -1 4 C-1 1 -1 1 0 0 Z " fill="#DFCCB6" transform="translate(39,11)"/>
<path d="M0 0 C0.721875 0.268125 1.44375 0.53625 2.1875 0.8125 C1.1975 1.3075 1.1975 1.3075 0.1875 1.8125 C-0.4725 1.4825 -1.1325 1.1525 -1.8125 0.8125 C-2.1425 2.1325 -2.4725 3.4525 -2.8125 4.8125 C-1.8225 5.1425 -0.8325 5.4725 0.1875 5.8125 C-1.1325 6.8025 -2.4525 7.7925 -3.8125 8.8125 C-4.4725 8.4825 -5.1325 8.1525 -5.8125 7.8125 C-5.4825 7.4825 -5.1525 7.1525 -4.8125 6.8125 C-5.8025 6.1525 -6.7925 5.4925 -7.8125 4.8125 C-3.50480769 -0.23365385 -3.50480769 -0.23365385 0 0 Z " fill="#877A6A" transform="translate(58.8125,73.1875)"/>
<path d="M0 0 C0.99 0.66 1.98 1.32 3 2 C2.67 2.66 2.34 3.32 2 4 C2.66 4 3.32 4 4 4 C3.67 4.99 3.34 5.98 3 7 C-2.75 4.375 -2.75 4.375 -5 1 C-2.525 1.99 -2.525 1.99 0 3 C0 2.01 0 1.02 0 0 Z " fill="#7A6E60" transform="translate(64,78)"/>
<path d="M0 0 C0.33 0 0.66 0 1 0 C1 4.29 1 8.58 1 13 C0.01 13 -0.98 13 -2 13 C-1.85915204 11.20793453 -1.71216299 9.41635083 -1.5625 7.625 C-1.48128906 6.62726563 -1.40007812 5.62953125 -1.31640625 4.6015625 C-1 2 -1 2 0 0 Z " fill="#DBC7B0" transform="translate(68,69)"/>
<path d="M0 0 C2.4375 0.375 2.4375 0.375 5 1 C5.33 1.66 5.66 2.32 6 3 C4.8553125 3.185625 4.8553125 3.185625 3.6875 3.375 C0.79732864 3.88102792 0.79732864 3.88102792 -2 6 C-4.125 5.75 -4.125 5.75 -6 5 C-6.33 4.34 -6.66 3.68 -7 3 C-5.02 3 -3.04 3 -1 3 C-0.67 2.01 -0.34 1.02 0 0 Z " fill="#6A6055" transform="translate(27,14)"/>
<path d="M0 0 C0 1.32 0 2.64 0 4 C-2.31 3.34 -4.62 2.68 -7 2 C-7 1.34 -7 0.68 -7 0 C-4.3333581 -1.33332095 -2.83319697 -0.67102033 0 0 Z " fill="#D7C2AA" transform="translate(45,75)"/>
<path d="M0 0 C1.65 0.33 3.3 0.66 5 1 C5 2.32 5 3.64 5 5 C2.69 5.66 0.38 6.32 -2 7 C-2.33 6.01 -2.66 5.02 -3 4 C-2.01 4 -1.02 4 0 4 C0 3.01 0 2.02 0 1 C0 0.67 0 0.34 0 0 Z " fill="#B09D89" transform="translate(23,74)"/>
<path d="M0 0 C1.98 0 3.96 0 6 0 C5.67 1.32 5.34 2.64 5 4 C2.03 3.505 2.03 3.505 -1 3 C-0.67 2.01 -0.34 1.02 0 0 Z " fill="#E1CEB7" transform="translate(21,14)"/>
<path d="M0 0 C4.08091471 -0.11335874 7.32836527 0.16418263 11 2 C7.25 5 7.25 5 5 5 C4.67 4.01 4.34 3.02 4 2 C2.35 2 0.7 2 -1 2 C-0.67 1.34 -0.34 0.68 0 0 Z " fill="#73685B" transform="translate(28,10)"/>
<path d="M0 0 C0.598125 0.350625 1.19625 0.70125 1.8125 1.0625 C-0.1875 3.0625 -0.1875 3.0625 -2.8125 3.1875 C-3.59625 3.14625 -4.38 3.105 -5.1875 3.0625 C-5.1875 2.0725 -5.1875 1.0825 -5.1875 0.0625 C-2.1875 -0.9375 -2.1875 -0.9375 0 0 Z " fill="#D8C4AB" transform="translate(36.1875,78.9375)"/>
<path d="M0 0 C-0.33 0.99 -0.66 1.98 -1 3 C-1.99 3.33 -2.98 3.66 -4 4 C-4.66 3.67 -5.32 3.34 -6 3 C-6 2.01 -6 1.02 -6 0 C-3.50907189 -1.24546405 -2.58919267 -0.7767578 0 0 Z " fill="#A99A89" transform="translate(39,15)"/>
<path d="M0 0 C-0.33 1.32 -0.66 2.64 -1 4 C-3.475 3.01 -3.475 3.01 -6 2 C-6 1.34 -6 0.68 -6 0 C-3.50907189 -1.24546405 -2.58919267 -0.7767578 0 0 Z " fill="#DBC7B0" transform="translate(33,12)"/>
<path d="M0 0 C1.65 0.33 3.3 0.66 5 1 C5 1.99 5 2.98 5 4 C4.01 4.495 4.01 4.495 3 5 C3 4.34 3 3.68 3 3 C1.68 2.67 0.36 2.34 -1 2 C-0.67 1.34 -0.34 0.68 0 0 Z " fill="#D7C2AB" transform="translate(63,11)"/>
<path d="M0 0 C3.41021743 0.78697325 6.68885166 1.87119943 10 3 C9.01 3.99 8.02 4.98 7 6 C5.83054208 5.19152271 4.66449539 4.37810888 3.5 3.5625 C2.8503125 3.11003906 2.200625 2.65757813 1.53125 2.19140625 C1.0259375 1.79824219 0.520625 1.40507812 0 1 C0 0.67 0 0.34 0 0 Z " fill="#3E3830" transform="translate(51,15)"/>
</svg>
