<?xml version="1.0" encoding="UTF-8"?>
<svg version="1.1" xmlns="http://www.w3.org/2000/svg" width="82" height="74">
<path d="M0 0 C1.35738281 1.43859375 1.35738281 1.43859375 2.7421875 2.90625 C3.52851562 3.7621875 4.31484375 4.618125 5.125 5.5 C5.72441406 6.06203125 6.32382813 6.6240625 6.94140625 7.203125 C8.125 8.5 8.125 8.5 8.1875 10.75 C6.65092513 14.72701732 4.36131935 17.72267786 1.125 20.5 C-1.625 21.125 -1.625 21.125 -3.875 20.5 C-4.535 19.51 -5.195 18.52 -5.875 17.5 C-5.545 28.06 -5.215 38.62 -4.875 49.5 C-9.76611432 51.13037144 -12.26618178 51.75523323 -17.15625 51.765625 C-18.91388672 51.76949219 -18.91388672 51.76949219 -20.70703125 51.7734375 C-21.91746094 51.76570313 -23.12789062 51.75796875 -24.375 51.75 C-25.58542969 51.75773437 -26.79585937 51.76546875 -28.04296875 51.7734375 C-29.21472656 51.77085938 -30.38648438 51.76828125 -31.59375 51.765625 C-32.65529297 51.76336914 -33.71683594 51.76111328 -34.81054688 51.75878906 C-37.875 51.5 -37.875 51.5 -43.875 49.5 C-43.875 39.6 -43.875 29.7 -43.875 19.5 C-45.525 19.83 -47.175 20.16 -48.875 20.5 C-50.9375 18.875 -50.9375 18.875 -52.875 16.5 C-53.6175 15.5925 -54.36 14.685 -55.125 13.75 C-55.7025 13.0075 -56.28 12.265 -56.875 11.5 C-55.39645313 6.62259843 -52.6607698 3.80083875 -49.125 0.3125 C-48.61195312 -0.22052734 -48.09890625 -0.75355469 -47.5703125 -1.30273438 C-41.26227163 -7.60285057 -34.63977865 -7.91449581 -26.0625 -8.3125 C-24.64227539 -8.40821289 -24.64227539 -8.40821289 -23.19335938 -8.50585938 C-13.41162839 -8.98383797 -6.71734786 -7.24305334 0 0 Z " fill="#D9CAB5" transform="translate(66.875,12.5)"/>
<path d="M0 0 C0.66 0 1.32 0 2 0 C2 12.54 2 25.08 2 38 C13.55 38 25.1 38 37 38 C37 28.43 37 18.86 37 9 C37.33 9 37.66 9 38 9 C38.495 23.355 38.495 23.355 39 38 C34.10888568 39.63037144 31.60881822 40.25523323 26.71875 40.265625 C24.96111328 40.26949219 24.96111328 40.26949219 23.16796875 40.2734375 C21.35232422 40.26183594 21.35232422 40.26183594 19.5 40.25 C18.28957031 40.25773437 17.07914063 40.26546875 15.83203125 40.2734375 C14.66027344 40.27085938 13.48851562 40.26828125 12.28125 40.265625 C11.21970703 40.26336914 10.15816406 40.26111328 9.06445312 40.25878906 C6 40 6 40 0 38 C0 28.1 0 18.2 0 8 C-1.65 8.33 -3.3 8.66 -5 9 C-5.66 8.67 -6.32 8.34 -7 8 C-6.67 7.34 -6.34 6.68 -6 6 C-3.03 6.495 -3.03 6.495 0 7 C0 4.69 0 2.38 0 0 Z " fill="#5D584F" transform="translate(23,24)"/>
<path d="M0 0 C0.66 0.99 1.32 1.98 2 3 C0.948125 2.566875 0.948125 2.566875 -0.125 2.125 C-3.05452503 0.97866412 -6.00921653 -0.02625654 -9 -1 C-9.226875 -0.401875 -9.45375 0.19625 -9.6875 0.8125 C-11.42429529 3.70715882 -12.9183036 4.63035715 -16 6 C-19.5 6.5625 -19.5 6.5625 -23 6 C-25.11705667 4.16946228 -26.39291145 2.33758335 -28 0 C-35.36393782 2.02182452 -35.36393782 2.02182452 -41 7 C-41.66 6.67 -42.32 6.34 -43 6 C-41.75803878 4.84545838 -40.50607155 3.70167438 -39.25 2.5625 C-38.55390625 1.92441406 -37.8578125 1.28632813 -37.140625 0.62890625 C-32.39261129 -2.98408958 -26.05057116 -2.43901399 -20.3125 -2.75 C-19.35666016 -2.81832031 -18.40082031 -2.88664063 -17.41601562 -2.95703125 C-11.22988097 -3.28594638 -5.55599415 -3.01336849 0 0 Z " fill="#46433D" transform="translate(61,7)"/>
<path d="M0 0 C0.99 0 1.98 0 3 0 C2.731875 0.66 2.46375 1.32 2.1875 2 C0.74294953 5.64939067 -0.62871178 9.32245433 -2 13 C-0.35 13 1.3 13 3 13 C1.38462556 16.89917968 -1.27924873 19.71293772 -4.125 22.75 C-4.59292969 23.25660156 -5.06085937 23.76320313 -5.54296875 24.28515625 C-6.69126541 25.52719141 -7.84508672 26.76411494 -9 28 C-10.13643966 24.59068103 -9.86747764 23.99664544 -8.5625 20.8125 C-8.27503906 20.09707031 -7.98757812 19.38164063 -7.69140625 18.64453125 C-7.46324219 18.10183594 -7.23507813 17.55914062 -7 17 C-8.32 17 -9.64 17 -11 17 C-9.51213344 12.66508068 -7.29029201 9.35590995 -4.5625 5.6875 C-4.16740234 5.13771484 -3.77230469 4.58792969 -3.36523438 4.02148438 C-2.19140625 2.44921875 -2.19140625 2.44921875 0 0 Z " fill="#2D1E12" transform="translate(47,20)"/>
<path d="M0 0 C0.33 0 0.66 0 1 0 C1.33 12.54 1.66 25.08 2 38 C-7.57 38 -17.14 38 -27 38 C-26.67 37.34 -26.34 36.68 -26 36 C-17.75 36 -9.5 36 -1 36 C-0.67 24.12 -0.34 12.24 0 0 Z " fill="#E7D6C0" transform="translate(58,24)"/>
<path d="M0 0 C0.66 0 1.32 0 2 0 C2 12.54 2 25.08 2 38 C1.34 38 0.68 38 0 38 C0 28.1 0 18.2 0 8 C-1.65 8.33 -3.3 8.66 -5 9 C-5.66 8.67 -6.32 8.34 -7 8 C-6.67 7.34 -6.34 6.68 -6 6 C-3.03 6.495 -3.03 6.495 0 7 C0 4.69 0 2.38 0 0 Z " fill="#4B4741" transform="translate(23,24)"/>
<path d="M0 0 C1.32 0 2.64 0 4 0 C2.38462556 3.89917968 -0.27924873 6.71293772 -3.125 9.75 C-3.59292969 10.25660156 -4.06085937 10.76320313 -4.54296875 11.28515625 C-5.69126541 12.52719141 -6.84508672 13.76411494 -8 15 C-9.13643966 11.59068103 -8.86747764 10.99664544 -7.5625 7.8125 C-7.27503906 7.09707031 -6.98757812 6.38164063 -6.69140625 5.64453125 C-6.46324219 5.10183594 -6.23507813 4.55914062 -6 4 C-7.32 4 -8.64 4 -10 4 C-9.67 3.01 -9.34 2.02 -9 1 C-7.02 1.66 -5.04 2.32 -3 3 C-3 3.99 -3 4.98 -3 6 C-2.01 4.02 -1.02 2.04 0 0 Z " fill="#22160C" transform="translate(46,33)"/>
<path d="M0 0 C0 3 0 3 -1.0625 4.9375 C-2.18584267 6.9311377 -2.18584267 6.9311377 -1.75 9 C-0.96713323 11.08764473 -0.05252193 13.03529239 1 15 C-0.32 15 -1.64 15 -3 15 C-5.25 12.5 -5.25 12.5 -7 10 C-5.6062718 5.56541027 -3.39417765 3.12621626 0 0 Z " fill="#A0988B" transform="translate(17,14)"/>
<path d="M0 0 C2.475 0.495 2.475 0.495 5 1 C5 2.65 5 4.3 5 6 C5.66 6 6.32 6 7 6 C5.60667426 9.36720387 4.0210714 10.9859524 1 13 C1.67170806 9.1936543 2.72746564 5.64793184 4 2 C2.68 2 1.36 2 0 2 C0 1.34 0 0.68 0 0 Z " fill="#2D2923" transform="translate(36,35)"/>
<path d="M0 0 C3.63 0 7.26 0 11 0 C10.67 0.99 10.34 1.98 10 3 C7.03 3 4.06 3 1 3 C0.67 2.01 0.34 1.02 0 0 Z " fill="#D4C6B1" transform="translate(37,7)"/>
<path d="M0 0 C0.99 0 1.98 0 3 0 C1.87548273 2.9719385 0.77706209 5.33440687 -1 8 C-2.32 7.67 -3.64 7.34 -5 7 C-4.24172908 5.82512964 -3.46792245 4.66027408 -2.6875 3.5 C-2.25824219 2.8503125 -1.82898437 2.200625 -1.38671875 1.53125 C-0.70029297 0.77328125 -0.70029297 0.77328125 0 0 Z " fill="#2C2823" transform="translate(47,20)"/>
<path d="M0 0 C0.99 0.33 1.98 0.66 3 1 C2.69381595 4.67420866 2.24228216 5.78135513 -0.5625 8.3125 C-1.366875 8.869375 -2.17125 9.42625 -3 10 C-2.67 8.35 -2.34 6.7 -2 5 C-1.01 4.67 -0.02 4.34 1 4 C0.67 2.68 0.34 1.36 0 0 Z " fill="#90877A" transform="translate(72,20)"/>
<path d="M0 0 C0.33 0.66 0.66 1.32 1 2 C0.67 2.66 0.34 3.32 0 4 C1.32 4 2.64 4 4 4 C2.25 8.875 2.25 8.875 0 10 C0 8.68 0 7.36 0 6 C-0.99 5.34 -1.98 4.68 -3 4 C-2.01 2.68 -1.02 1.36 0 0 Z " fill="#924609" transform="translate(42,30)"/>
<path d="M0 0 C0.66 0 1.32 0 2 0 C1.42655063 2.86724686 1.1385485 3.8614515 -1 6 C-3.1640625 6.1953125 -3.1640625 6.1953125 -5.625 6.125 C-6.44226562 6.10695313 -7.25953125 6.08890625 -8.1015625 6.0703125 C-8.72804687 6.04710937 -9.35453125 6.02390625 -10 6 C-10 5.67 -10 5.34 -10 5 C-6.7 4.34 -3.4 3.68 0 3 C0 2.01 0 1.02 0 0 Z " fill="#171513" transform="translate(49,6)"/>
<path d="M0 0 C0.66 0.99 1.32 1.98 2 3 C-0.97 5.475 -0.97 5.475 -4 8 C-4.66 7.67 -5.32 7.34 -6 7 C-4.02 4.69 -2.04 2.38 0 0 Z " fill="#CBBBA5" transform="translate(46,38)"/>
</svg>
