<?xml version="1.0" encoding="UTF-8"?>
<svg version="1.1" xmlns="http://www.w3.org/2000/svg" width="106" height="104">
<path d="M0 0 C4.18043023 0.24270766 7.52785716 1.24669649 11.33984375 2.8515625 C11.99726562 3.12444092 12.6546875 3.39731934 13.33203125 3.6784668 C22.88488332 7.78926712 30.39627317 13.90619535 34.96875 23.453125 C36.72075122 28.24362109 37.29964504 32.88173339 37.49609375 37.96484375 C37.9918276 40.7247466 39.1978112 42.03753749 40.90234375 44.2265625 C41.58984375 47.9765625 41.58984375 47.9765625 41.90234375 51.2265625 C39.25495459 52.687191 38.00786041 53.2265625 34.90234375 53.2265625 C33.48138972 55.22727568 33.48138972 55.22727568 32.21484375 57.7890625 C27.36469117 66.25587206 20.27042727 71.95389234 10.9140625 74.83984375 C9.98013672 75.09314453 9.98013672 75.09314453 9.02734375 75.3515625 C5.83084732 75.9712181 5.83084732 75.9712181 3.90234375 78.2265625 C1.46484375 78.9765625 1.46484375 78.9765625 -1.09765625 79.2265625 C-2.08765625 78.5665625 -3.07765625 77.9065625 -4.09765625 77.2265625 C-4.09765625 76.5665625 -4.09765625 75.9065625 -4.09765625 75.2265625 C-5.21140625 75.1853125 -6.32515625 75.1440625 -7.47265625 75.1015625 C-16.69707203 73.91184103 -24.37333918 67.19644856 -30.09765625 60.2265625 C-33.91365055 54.79785632 -34.74951574 49.28945008 -35.41015625 42.765625 C-35.63703125 41.92773438 -35.86390625 41.08984375 -36.09765625 40.2265625 C-37.41369707 39.52637768 -38.74727301 38.85797942 -40.09765625 38.2265625 C-40.7421875 36.1328125 -40.7421875 36.1328125 -40.91015625 33.7265625 C-41.01263672 32.53546875 -41.01263672 32.53546875 -41.1171875 31.3203125 C-41.09765625 29.2265625 -41.09765625 29.2265625 -40.09765625 27.2265625 C-38.44765625 27.5565625 -36.79765625 27.8865625 -35.09765625 28.2265625 C-34.78828125 27.1128125 -34.47890625 25.9990625 -34.16015625 24.8515625 C-31.17520639 16.88698065 -23.72767605 9.06353983 -16.09765625 5.2265625 C-12.9488591 4.04726777 -9.79224755 2.99762984 -6.57421875 2.0234375 C-0.36973625 0.0270425 -0.36973625 0.0270425 0 0 Z M-1.09765625 6.2265625 C-1.09765625 7.8765625 -1.09765625 9.5265625 -1.09765625 11.2265625 C-0.10765625 11.2265625 0.88234375 11.2265625 1.90234375 11.2265625 C2.23234375 9.9065625 2.56234375 8.5865625 2.90234375 7.2265625 C1.58234375 6.8965625 0.26234375 6.5665625 -1.09765625 6.2265625 Z M-20.32421875 15.28515625 C-24.04576604 19.29766088 -26.9691153 22.72492539 -28.09765625 28.2265625 C-26.11765625 28.8865625 -24.13765625 29.5465625 -22.09765625 30.2265625 C-23.02259413 34.01039929 -23.49136796 35.79349944 -26.72265625 38.1015625 C-27.50640625 38.4728125 -28.29015625 38.8440625 -29.09765625 39.2265625 C-28.89806989 47.75434352 -26.96119583 54.74856019 -21.3046875 61.3046875 C-16.75245662 65.62976115 -12.16484093 67.75189956 -6.09765625 69.2265625 C-5.64390625 68.4428125 -5.19015625 67.6590625 -4.72265625 66.8515625 C-3.09765625 64.2265625 -3.09765625 64.2265625 -1.09765625 62.2265625 C1.33984375 62.2890625 1.33984375 62.2890625 3.90234375 63.2265625 C5.71484375 65.7890625 5.71484375 65.7890625 6.90234375 68.2265625 C14.31019829 67.91790189 18.5291197 64.54867709 23.70703125 59.44921875 C26.661194 56.21942837 28.62722715 53.76598647 28.90234375 49.2265625 C27.25234375 48.5665625 25.60234375 47.9065625 23.90234375 47.2265625 C24.23234375 45.5765625 24.56234375 43.9265625 24.90234375 42.2265625 C27.21234375 41.5665625 29.52234375 40.9065625 31.90234375 40.2265625 C31.68249085 30.83284762 29.0624896 23.29817784 22.58984375 16.3515625 C18.43980578 12.51028009 13.67838266 9.2265625 7.90234375 9.2265625 C7.63421875 9.9896875 7.36609375 10.7528125 7.08984375 11.5390625 C5.92039299 14.18571422 5.20334293 15.52211866 2.90234375 17.2265625 C0.21484375 17.9140625 0.21484375 17.9140625 -2.09765625 18.2265625 C-2.09765625 17.5665625 -2.09765625 16.9065625 -2.09765625 16.2265625 C-3.08765625 15.5665625 -4.07765625 14.9065625 -5.09765625 14.2265625 C-5.78515625 11.6015625 -5.78515625 11.6015625 -6.09765625 9.2265625 C-12.06075086 9.2265625 -15.95031643 11.24121498 -20.32421875 15.28515625 Z M-29.09765625 28.2265625 C-28.09765625 30.2265625 -28.09765625 30.2265625 -28.09765625 30.2265625 Z M-0.09765625 67.2265625 C-0.42765625 68.8765625 -0.75765625 70.5265625 -1.09765625 72.2265625 C-0.10765625 72.2265625 0.88234375 72.2265625 1.90234375 72.2265625 C1.57234375 70.5765625 1.24234375 68.9265625 0.90234375 67.2265625 C0.57234375 67.2265625 0.24234375 67.2265625 -0.09765625 67.2265625 Z " fill="#C6B199" transform="translate(53.09765625,9.7734375)"/>
<path d="M0 0 C0.66 0.66 1.32 1.32 2 2 C1.625 4.625 1.625 4.625 1 7 C-1.97 6.67 -4.94 6.34 -8 6 C-8.99 7.485 -8.99 7.485 -10 9 C-7.36 9.33 -4.72 9.66 -2 10 C-2 13.3 -2 16.6 -2 20 C-4.64 20 -7.28 20 -10 20 C-9.34 20.99 -8.68 21.98 -8 23 C-5.08365871 23.2502157 -5.08365871 23.2502157 -2 23 C-0.68 23 0.64 23 2 23 C2.33 24.32 2.66 25.64 3 27 C-1.2620896 29.663806 -4.23459145 30.49393412 -9.09765625 29.64453125 C-12.33190382 28.54873895 -14.00056955 26.68673467 -16 24 C-16 22.68 -16 21.36 -16 20 C-17.65 19.67 -19.3 19.34 -21 19 C-20.649375 18.443125 -20.29875 17.88625 -19.9375 17.3125 C-18.78154007 14.46113217 -19.19032562 12.91482778 -20 10 C-18.68 9.67 -17.36 9.34 -16 9 C-15.938125 8.2575 -15.87625 7.515 -15.8125 6.75 C-13.58806497 -0.77885702 -6.75981619 -1.02892777 0 0 Z " fill="#38312A" transform="translate(61,33)"/>
<path d="M0 0 C-0.99 0.66 -1.98 1.32 -3 2 C-0.525 2.495 -0.525 2.495 2 3 C2.66 5.31 3.32 7.62 4 10 C8.455 9.505 8.455 9.505 13 9 C13 7.02 13 5.04 13 3 C17.84659077 3.59104765 21.60748167 4.97944157 26 7 C26 7.66 26 8.32 26 9 C22.27566618 7.7874262 18.62197194 6.49140021 15 5 C14.9175 5.7425 14.835 6.485 14.75 7.25 C13.83274141 10.61328151 12.77755085 11.91683686 10 14 C7.25 14.25 7.25 14.25 5 14 C5 13.34 5 12.68 5 12 C3.68 11.34 2.36 10.68 1 10 C1 8.35 1 6.7 1 5 C-9.07033652 8.44458191 -15.01350071 12.4331042 -20.15234375 21.8515625 C-21.244675 24.23520877 -21.244675 24.23520877 -21 28 C-23.64 28.66 -26.28 29.32 -29 30 C-29 28.35 -29 26.7 -29 25 C-29.99 25 -30.98 25 -32 25 C-32 27.64 -32 30.28 -32 33 C-30.35 33.33 -28.7 33.66 -27 34 C-26.66104344 35.72807318 -26.32908475 37.45751974 -26 39.1875 C-25.814375 40.15042969 -25.62875 41.11335938 -25.4375 42.10546875 C-25.03122388 44.7934206 -24.92066428 47.28771019 -25 50 C-28.12340953 46.87659047 -27.75942984 43.02291886 -28.2421875 38.75 C-28.49226563 37.8425 -28.74234375 36.935 -29 36 C-30.31081531 35.29008068 -31.64446667 34.6202835 -33 34 C-33.64453125 31.90625 -33.64453125 31.90625 -33.8125 29.5 C-33.88082031 28.7059375 -33.94914062 27.911875 -34.01953125 27.09375 C-34 25 -34 25 -33 23 C-31.35 23.33 -29.7 23.66 -28 24 C-27.690625 22.88625 -27.38125 21.7725 -27.0625 20.625 C-23.57027295 11.30687759 -14.98042919 4.05975447 -6.3125 -0.375 C-3.76858809 -1.06254376 -2.44608238 -0.90595644 0 0 Z " fill="#7E7366" transform="translate(46,14)"/>
<path d="M0 0 C0.62487305 0.26272705 1.24974609 0.5254541 1.89355469 0.79614258 C2.87533691 1.19893433 2.87533691 1.19893433 3.87695312 1.60986328 C8.96862807 3.78198244 13.36398155 6.40601343 17.45605469 10.17114258 C18.27783203 10.91750977 18.27783203 10.91750977 19.11621094 11.67895508 C20.92487051 13.693264 21.09976054 15.53456588 21.45605469 18.17114258 C20.46605469 18.83114258 19.47605469 19.49114258 18.45605469 20.17114258 C17.97394531 19.60524414 17.49183594 19.0393457 16.99511719 18.45629883 C16.36347656 17.72282227 15.73183594 16.9893457 15.08105469 16.23364258 C14.45457031 15.50274414 13.82808594 14.7718457 13.18261719 14.01879883 C11.57857755 12.08733352 11.57857755 12.08733352 9.45605469 11.17114258 C9.45605469 10.51114258 9.45605469 9.85114258 9.45605469 9.17114258 C8.04003755 8.69005983 6.62321032 8.21136117 5.20605469 7.73364258 C4.41714844 7.46680664 3.62824219 7.1999707 2.81542969 6.92504883 C0.70783481 6.2515955 -1.39148504 5.67963663 -3.54394531 5.17114258 C-3.54394531 7.15114258 -3.54394531 9.13114258 -3.54394531 11.17114258 C-4.99858012 11.56024242 -6.45785738 11.93202287 -7.91894531 12.29614258 C-9.13710938 12.60938477 -9.13710938 12.60938477 -10.37988281 12.92895508 C-11.09402344 13.00887695 -11.80816406 13.08879883 -12.54394531 13.17114258 C-14.54394531 11.17114258 -14.54394531 11.17114258 -14.66894531 8.04614258 C-14.62769531 7.09739258 -14.58644531 6.14864258 -14.54394531 5.17114258 C-16.52394531 5.17114258 -18.50394531 5.17114258 -20.54394531 5.17114258 C-19.88394531 4.18114258 -19.22394531 3.19114258 -18.54394531 2.17114258 C-17.88394531 2.17114258 -17.22394531 2.17114258 -16.54394531 2.17114258 C-16.54394531 1.51114258 -16.54394531 0.85114258 -16.54394531 0.17114258 C-11.23634199 -3.22572355 -5.62864957 -2.20049174 0 0 Z M-10.54394531 4.17114258 C-10.54394531 5.82114258 -10.54394531 7.47114258 -10.54394531 9.17114258 C-9.55394531 9.17114258 -8.56394531 9.17114258 -7.54394531 9.17114258 C-7.21394531 7.85114258 -6.88394531 6.53114258 -6.54394531 5.17114258 C-7.86394531 4.84114258 -9.18394531 4.51114258 -10.54394531 4.17114258 Z " fill="#D4C0A8" transform="translate(62.5439453125,11.828857421875)"/>
<path d="M0 0 C1.65 0 3.3 0 5 0 C5.66 1.32 6.32 2.64 7 4 C3.52692308 9.82980769 3.52692308 9.82980769 0.859375 10.69140625 C0.24578125 10.79324219 -0.3678125 10.89507812 -1 11 C-0.57372794 13.06484978 -0.13348551 15.12681821 0.3125 17.1875 C0.55613281 18.33605469 0.79976562 19.48460938 1.05078125 20.66796875 C1.97398114 23.90866631 3.17773304 26.19312105 5 29 C5.4640625 30.299375 5.4640625 30.299375 5.9375 31.625 C7.17426979 34.38954424 8.56119387 35.29283571 11 37 C11 37.66 11 38.32 11 39 C9.515 39.495 9.515 39.495 8 40 C7.608125 39.566875 7.21625 39.13375 6.8125 38.6875 C5.02571094 36.88127388 5.02571094 36.88127388 2.5625 35.6875 C-1.58980431 32.9530557 -3.51343166 30.00400182 -4.69140625 25.15234375 C-5.59609774 20.04684703 -6.09268426 15.19031868 -6 10 C-7.65 9.67 -9.3 9.34 -11 9 C-11 6.36 -11 3.72 -11 1 C-10.01 1 -9.02 1 -8 1 C-8 2.65 -8 4.3 -8 6 C-5.36 5.34 -2.72 4.68 0 4 C0 2.68 0 1.36 0 0 Z " fill="#726658" transform="translate(25,38)"/>
<path d="M0 0 C0.99 0.33 1.98 0.66 3 1 C3 1.66 3 2.32 3 3 C3.66 3 4.32 3 5 3 C5.03738281 3.67546875 5.07476562 4.3509375 5.11328125 5.046875 C5.21189453 6.38492188 5.21189453 6.38492188 5.3125 7.75 C5.39951172 9.07257812 5.39951172 9.07257812 5.48828125 10.421875 C6.0705868 13.35562814 7.17445607 14.68003792 9 17 C9.6875 20.75 9.6875 20.75 10 24 C7.35261084 25.4606285 6.10551666 26 3 26 C1.47217763 28.06296079 1.47217763 28.06296079 0.125 30.6875 C-2.21554919 34.81271795 -4.45612931 37.87305528 -8 41 C-8.66 40.67 -9.32 40.34 -10 40 C-8.35 38.02 -6.7 36.04 -5 34 C-6.98 34.495 -6.98 34.495 -9 35 C-8.59007813 34.50371094 -8.18015625 34.00742188 -7.7578125 33.49609375 C-4.23945432 29.06026897 -2.15643261 25.55087651 -1 20 C-2.65 20.33 -4.3 20.66 -6 21 C-6.66 19.68 -7.32 18.36 -8 17 C-5.3144406 14.3144406 -2.62378672 13.93950026 1 13 C0.67 8.71 0.34 4.42 0 0 Z " fill="#7F7364" transform="translate(85,37)"/>
<path d="M0 0 C0.86625 0.00386719 1.7325 0.00773437 2.625 0.01171875 C5 0.3125 5 0.3125 8 2.3125 C8 2.9725 8 3.6325 8 4.3125 C7.30132812 4.28929687 6.60265625 4.26609375 5.8828125 4.2421875 C4.97273438 4.22414062 4.06265625 4.20609375 3.125 4.1875 C2.22007813 4.16429687 1.31515625 4.14109375 0.3828125 4.1171875 C-2.18806994 4.06925164 -2.18806994 4.06925164 -4 6.3125 C-4.6425235 8.38124034 -4.6425235 8.38124034 -5 10.3125 C-2.36 10.3125 0.28 10.3125 3 10.3125 C3 10.9725 3 11.6325 3 12.3125 C0.36 12.3125 -2.28 12.3125 -5 12.3125 C-5 13.3025 -5 14.2925 -5 15.3125 C-2.36 15.3125 0.28 15.3125 3 15.3125 C3 15.9725 3 16.6325 3 17.3125 C0.36 17.3125 -2.28 17.3125 -5 17.3125 C-3.92598892 20.22767292 -3.22189824 22.09060176 -1 24.3125 C1.22128555 24.33558597 1.22128555 24.33558597 3.625 23.9375 C4.85089844 23.77121094 4.85089844 23.77121094 6.1015625 23.6015625 C6.72804688 23.50617187 7.35453125 23.41078125 8 23.3125 C8 24.3025 8 25.2925 8 26.3125 C4.52148122 28.05175939 0.79481771 27.90135102 -3 27.3125 C-6.0625 25.0625 -6.0625 25.0625 -8 22.3125 C-8 20.9925 -8 19.6725 -8 18.3125 C-9.32 18.3125 -10.64 18.3125 -12 18.3125 C-12 17.6525 -12 16.9925 -12 16.3125 C-11.01 16.3125 -10.02 16.3125 -9 16.3125 C-9 14.9925 -9 13.6725 -9 12.3125 C-9.99 12.3125 -10.98 12.3125 -12 12.3125 C-12 11.6525 -12 10.9925 -12 10.3125 C-10.68 10.3125 -9.36 10.3125 -8 10.3125 C-8.061875 9.219375 -8.12375 8.12625 -8.1875 7 C-8 3.3125 -8 3.3125 -6.80078125 1.6015625 C-4.42257008 -0.10084463 -2.90180795 -0.05613617 0 0 Z " fill="#B9A690" transform="translate(54,33.6875)"/>
<path d="M0 0 C4.29378813 1.92287034 6.77153701 4.62478869 10 8 C10.66 6.68 11.32 5.36 12 4 C14.74522883 8.42778844 16.48474397 11.71862571 17 17 C15.68 16.01 14.36 15.02 13 14 C13.16757813 14.91523437 13.33515625 15.83046875 13.5078125 16.7734375 C13.71148437 17.96195313 13.91515625 19.15046875 14.125 20.375 C14.33382812 21.55835937 14.54265625 22.74171875 14.7578125 23.9609375 C14.83773437 24.96382812 14.91765625 25.96671875 15 27 C12.3144406 29.6855594 9.62378672 30.06049974 6 31 C6.33 31.99 6.66 32.98 7 34 C8.65 34 10.3 34 12 34 C11.85584513 40.91943388 8.86110639 44.28216832 4 49 C2.37458956 50.38332804 0.72614587 51.74462118 -1 53 C-1.66 52.67 -2.32 52.34 -3 52 C-2.31292969 51.43152344 -1.62585938 50.86304688 -0.91796875 50.27734375 C4.22849156 45.86714386 8.04288263 42.57032261 10 36 C8.35 35.67 6.7 35.34 5 35 C4.375 32.625 4.375 32.625 4 30 C6.5654594 27.4345406 8.47686668 27.45953913 12 27 C11.73822355 15.81500612 7.54284808 8.06909329 0 0 Z " fill="#453D35" transform="translate(72,23)"/>
<path d="M0 0 C0.66 0 1.32 0 2 0 C2.24234375 0.81984375 2.4846875 1.6396875 2.734375 2.484375 C3.06953125 3.56203125 3.4046875 4.6396875 3.75 5.75 C4.07484375 6.81734375 4.3996875 7.8846875 4.734375 8.984375 C6.06708671 12.15984859 7.49794983 13.69628307 10 16 C10.33 16.845625 10.66 17.69125 11 18.5625 C12.17371593 21.42343259 13.51581071 22.26106749 16 24 C16 24.66 16 25.32 16 26 C15.01 26.33 14.02 26.66 13 27 C12.608125 26.566875 12.21625 26.13375 11.8125 25.6875 C10.02571094 23.88127388 10.02571094 23.88127388 7.5625 22.6875 C3.27907516 19.86670803 1.35485109 16.5968299 0.25 11.625 C-0.01904264 7.7238817 -0.06857908 3.90900734 0 0 Z " fill="#CEBBA5" transform="translate(20,51)"/>
<path d="M0 0 C1.40907283 2.81814566 0.50872691 4.17277204 -0.4375 7.125 C-0.72496094 8.03507812 -1.01242188 8.94515625 -1.30859375 9.8828125 C-1.53675781 10.58148438 -1.76492187 11.28015625 -2 12 C-1.34 12 -0.68 12 0 12 C0.37125 10.700625 0.37125 10.700625 0.75 9.375 C2.06778613 5.81697746 3.80186822 3.0773845 6 0 C6 3 6 3 4.5 5.9375 C2.70675503 9.03035544 2.70675503 9.03035544 3 13 C0.36 13.66 -2.28 14.32 -5 15 C-5 13.35 -5 11.7 -5 10 C-5.99 10 -6.98 10 -8 10 C-8 12.64 -8 15.28 -8 18 C-6.35 18.33 -4.7 18.66 -3 19 C-2.66104344 20.72807318 -2.32908475 22.45751974 -2 24.1875 C-1.814375 25.15042969 -1.62875 26.11335938 -1.4375 27.10546875 C-1.03122388 29.7934206 -0.92066428 32.28771019 -1 35 C-4.12340953 31.87659047 -3.75942984 28.02291886 -4.2421875 23.75 C-4.49226563 22.8425 -4.74234375 21.935 -5 21 C-6.31081531 20.29008068 -7.64446667 19.6202835 -9 19 C-9.64453125 16.90625 -9.64453125 16.90625 -9.8125 14.5 C-9.88082031 13.7059375 -9.94914063 12.911875 -10.01953125 12.09375 C-10 10 -10 10 -9 8 C-7.35 8.33 -5.7 8.66 -4 9 C-3.79503906 8.43410156 -3.59007812 7.86820313 -3.37890625 7.28515625 C-3.10949219 6.55167969 -2.84007812 5.81820312 -2.5625 5.0625 C-2.29566406 4.33160156 -2.02882813 3.60070313 -1.75390625 2.84765625 C-1 1 -1 1 0 0 Z " fill="#4A433A" transform="translate(22,29)"/>
<path d="M0 0 C2.60249953 0.77826603 4.95343554 1.58057836 7.4375 2.625 C8.41928223 3.02779175 8.41928223 3.02779175 9.42089844 3.4387207 C15.94595163 6.22232201 21.04944211 9.94506288 26 15 C25.67 15.66 25.34 16.32 25 17 C24.46632812 16.46890625 23.93265625 15.9378125 23.3828125 15.390625 C16.89344578 9.23807662 10.66009794 6.04116725 2 4 C1.82984375 4.56589844 1.6596875 5.13179687 1.484375 5.71484375 C1.24203125 6.44832031 0.9996875 7.18179687 0.75 7.9375 C0.51796875 8.66839844 0.2859375 9.39929688 0.046875 10.15234375 C-1 12 -1 12 -3.109375 12.75390625 C-4.04523437 12.87572266 -4.04523437 12.87572266 -5 13 C-7 10 -7 10 -6.75 7.4375 C-6 5 -6 5 -4 3 C-6.31 3 -8.62 3 -11 3 C-7.43576467 -0.42166591 -4.81891345 -0.32586915 0 0 Z M-5 6 C-5 7.65 -5 9.3 -5 11 C-4.01 11 -3.02 11 -2 11 C-1.67 9.68 -1.34 8.36 -1 7 C-2.32 6.67 -3.64 6.34 -5 6 Z " fill="#5A5147" transform="translate(57,10)"/>
<path d="M0 0 C0.4846875 0.39832031 0.969375 0.79664062 1.46875 1.20703125 C6.15201331 4.90861052 10.3175548 7.17349976 16 9 C17.98 6.69 19.96 4.38 22 2 C24.74148672 2.37047118 26.58593199 2.68587944 28.8125 4.375 C30 6 30 6 30 9 C32.97 8.34 35.94 7.68 39 7 C39 7.66 39 8.32 39 9 C35.7 9.66 32.4 10.32 29 11 C28.6596875 9.7934375 28.6596875 9.7934375 28.3125 8.5625 C27.24642852 5.77241554 27.24642852 5.77241554 24.5 5.0625 C23.2625 5.0315625 23.2625 5.0315625 22 5 C19.8614515 7.1385485 19.57344937 8.13275314 19 11 C14.53160785 11.21278058 11.17737474 10.59138085 7 9 C7 9.99 7 10.98 7 12 C2.58110387 10.64978174 0.65654657 8.73884332 -2 5 C-1.13375 5.4640625 -1.13375 5.4640625 -0.25 5.9375 C1.84294184 6.92583364 3.74535275 7.5168613 6 8 C6 7.34 6 6.68 6 6 C5.38125 5.7525 4.7625 5.505 4.125 5.25 C1.62519797 3.77952822 1.16683978 2.58596924 0 0 Z " fill="#453D34" transform="translate(30,69)"/>
<path d="M0 0 C1.875 0.3125 1.875 0.3125 4 1 C6 4 6 4 5.625 6.1875 C5.41875 6.785625 5.2125 7.38375 5 8 C3.02 8 1.04 8 -1 8 C-1 8.66 -1 9.32 -1 10 C3.33229715 9.1395861 3.33229715 9.1395861 7 7 C9.33297433 6.95907063 11.66705225 6.95758277 14 7 C14 7.33 14 7.66 14 8 C12.88625 8.28875 11.7725 8.5775 10.625 8.875 C6.99708908 9.69241329 6.99708908 9.69241329 5 12 C2.5625 12.75 2.5625 12.75 0 13 C-0.99 12.34 -1.98 11.68 -3 11 C-3 10.34 -3 9.68 -3 9 C-4.2375 8.896875 -5.475 8.79375 -6.75 8.6875 C-10.78223642 8.3514803 -11.39235718 7.70573211 -15 5 C-11.04 5.33 -7.08 5.66 -3 6 C-2.01 4.02 -1.02 2.04 0 0 Z M1 1 C0.67 2.65 0.34 4.3 0 6 C0.99 6 1.98 6 3 6 C2.67 4.35 2.34 2.7 2 1 C1.67 1 1.34 1 1 1 Z " fill="#7C6F60" transform="translate(52,76)"/>
<path d="M0 0 C1.32 0 2.64 0 4 0 C4.66 2.31 5.32 4.62 6 7 C10.455 6.505 10.455 6.505 15 6 C15 4.02 15 2.04 15 0 C19.84659077 0.59104765 23.60748167 1.97944157 28 4 C28 4.66 28 5.32 28 6 C24.27566618 4.7874262 20.62197194 3.49140021 17 2 C16.9175 2.7425 16.835 3.485 16.75 4.25 C15.83274141 7.61328151 14.77755085 8.91683686 12 11 C9.25 11.25 9.25 11.25 7 11 C7 10.34 7 9.68 7 9 C5.68 8.34 4.36 7.68 3 7 C3 5.35 3 3.7 3 2 C1.68 1.67 0.36 1.34 -1 1 C-0.67 0.67 -0.34 0.34 0 0 Z " fill="#71675B" transform="translate(44,17)"/>
<path d="M0 0 C3 1 3 1 4 3 C4.59592077 7.10386675 4.77132349 10.91464524 4 15 C1.70231568 17.73509906 -0.83251549 19.38797664 -4 21 C-5.32 20.34 -6.64 19.68 -8 19 C-7.4375 17.125 -7.4375 17.125 -6 15 C-2.375 13.75 -2.375 13.75 1 13 C0.67 8.71 0.34 4.42 0 0 Z " fill="#CCBAA6" transform="translate(85,37)"/>
<path d="M0 0 C4.55555556 0.55555556 4.55555556 0.55555556 6 2 C6.04063832 3.66617115 6.042721 5.33388095 6 7 C5.566875 6.525625 5.13375 6.05125 4.6875 5.5625 C2.97690387 3.76313043 2.97690387 3.76313043 0 3 C-0.309375 3.969375 -0.61875 4.93875 -0.9375 5.9375 C-2 9 -2 9 -3 10 C-8.19040052 10.49432386 -11.42102388 9.19790854 -16 7 C-15.67 6.01 -15.34 5.02 -15 4 C-9.06 5.485 -9.06 5.485 -3 7 C-2.67 5.35 -2.34 3.7 -2 2 C-1.34 1.34 -0.68 0.68 0 0 Z " fill="#D5C0A7" transform="translate(52,73)"/>
<path d="M0 0 C4.29378813 1.92287034 6.77153701 4.62478869 10 8 C10.66 6.68 11.32 5.36 12 4 C14.74522883 8.42778844 16.48474397 11.71862571 17 17 C15.68 16.01 14.36 15.02 13 14 C13 14.99 13 15.98 13 17 C12.34 17 11.68 17 11 17 C10.70867187 16.35933594 10.41734375 15.71867187 10.1171875 15.05859375 C7.35675882 9.23391562 4.40141835 4.70849405 0 0 Z " fill="#6A5F53" transform="translate(72,23)"/>
<path d="M0 0 C0.99 0.495 0.99 0.495 2 1 C2 1.99 2 2.98 2 4 C4.97 4 7.94 4 11 4 C11 4.33 11 4.66 11 5 C8.36 5 5.72 5 3 5 C4.07401108 7.91517292 4.77810176 9.77810176 7 12 C9.22128555 12.02308597 9.22128555 12.02308597 11.625 11.625 C12.44226562 11.51414062 13.25953125 11.40328125 14.1015625 11.2890625 C14.72804688 11.19367187 15.35453125 11.09828125 16 11 C16 11.99 16 12.98 16 14 C12.50525261 15.7473737 8.81321144 15.55225821 5 15 C1.9375 13.125 1.9375 13.125 0 10 C-0.39189688 6.62246766 -0.29553853 3.38227434 0 0 Z " fill="#CCB59B" transform="translate(46,46)"/>
<path d="M0 0 C-0.62653805 3.37719288 -1.90461176 5.58116593 -3.875 8.375 C-6.24822029 11.82643816 -8.24661359 15.20099611 -10 19 C-10.66 19 -11.32 19 -12 19 C-11.38824224 12.88242237 -8.13068254 0 0 0 Z " fill="#DECCB5" transform="translate(32,22)"/>
<path d="M0 0 C1.37562854 1.28965176 2.70766393 2.62689293 4 4 C4 4.66 4 5.32 4 6 C6.1385485 3.8614515 6.42655063 2.86724686 7 0 C7.24234375 0.54269531 7.4846875 1.08539063 7.734375 1.64453125 C9.66613472 5.76809526 11.07666384 8.47785533 15 11 C15 11.66 15 12.32 15 13 C14.01 13.33 13.02 13.66 12 14 C11.608125 13.566875 11.21625 13.13375 10.8125 12.6875 C9.02571094 10.88127388 9.02571094 10.88127388 6.5625 9.6875 C3.37382826 7.587643 1.88830517 5.28704975 0 2 C0 1.34 0 0.68 0 0 Z " fill="#60574C" transform="translate(21,64)"/>
<path d="M0 0 C1.62463842 -0.05395478 3.24978541 -0.09277195 4.875 -0.125 C5.77992187 -0.14820313 6.68484375 -0.17140625 7.6171875 -0.1953125 C10 0 10 0 12 2 C11.625 4.625 11.625 4.625 11 7 C8.03 6.67 5.06 6.34 2 6 C1.01 7.485 1.01 7.485 0 9 C2.31 9.33 4.62 9.66 7 10 C6.67 10.99 6.34 11.98 6 13 C6 12.34 6 11.68 6 11 C3.36 11 0.72 11 -2 11 C-1.25 6.25 -1.25 6.25 1 4 C4.693507 3.79853598 7.47940432 3.82646811 11 5 C9.58480285 2.9656541 8.45017877 2.09589607 6.01953125 1.578125 C4.01823046 1.33726048 2.0090056 1.16467259 0 1 C0 0.67 0 0.34 0 0 Z " fill="#403830" transform="translate(51,33)"/>
<path d="M0 0 C0.33 0 0.66 0 1 0 C1.07347656 0.99580078 1.07347656 0.99580078 1.1484375 2.01171875 C1.55084505 6.76429063 2.1588891 10.58133385 4 15 C4.125 18.3125 4.125 18.3125 4 21 C3.01 20.67 2.02 20.34 1 20 C0.67 19.01 0.34 18.02 0 17 C-0.99 16.34 -1.98 15.68 -3 15 C-2.67 14.01 -2.34 13.02 -2 12 C-1.34 12 -0.68 12 0 12 C0 8.04 0 4.08 0 0 Z " fill="#897C6D" transform="translate(89,40)"/>
<path d="M0 0 C-0.66 0.70125 -1.32 1.4025 -2 2.125 C-4.30233203 5.43460229 -4.36630156 7.06225823 -4 11 C-4.99 11 -5.98 11 -7 11 C-7 9.02 -7 7.04 -7 5 C-8.98 5 -10.96 5 -13 5 C-8.82383994 0.37639422 -6.09215567 -0.16922655 0 0 Z " fill="#D4C2AC" transform="translate(55,12)"/>
<path d="M0 0 C0.88429688 -0.01417969 1.76859375 -0.02835938 2.6796875 -0.04296875 C5.125 0.1875 5.125 0.1875 8.125 2.1875 C8.125 2.8475 8.125 3.5075 8.125 4.1875 C7.13757812 4.17589844 6.15015625 4.16429687 5.1328125 4.15234375 C3.85148437 4.14332031 2.57015625 4.13429687 1.25 4.125 C-0.66425781 4.10759766 -0.66425781 4.10759766 -2.6171875 4.08984375 C-5.76164652 3.95573431 -5.76164652 3.95573431 -7.875 5.1875 C-5.65250417 0.59434195 -5.17833158 0.03752414 0 0 Z " fill="#796A5B" transform="translate(53.875,33.8125)"/>
<path d="M0 0 C4.84659077 0.59104765 8.60748167 1.97944157 13 4 C13 4.66 13 5.32 13 6 C9.27566618 4.7874262 5.62197194 3.49140021 2 2 C1.896875 2.78375 1.79375 3.5675 1.6875 4.375 C1 7 1 7 -2 9 C-1.34 6.03 -0.68 3.06 0 0 Z " fill="#4C443A" transform="translate(59,17)"/>
<path d="M0 0 C1.670625 0.061875 1.670625 0.061875 3.375 0.125 C3.375 0.455 3.375 0.785 3.375 1.125 C1.704375 1.558125 1.704375 1.558125 0 2 C-3.62791092 2.81741329 -3.62791092 2.81741329 -5.625 5.125 C-8.0625 5.875 -8.0625 5.875 -10.625 6.125 C-11.615 5.465 -12.605 4.805 -13.625 4.125 C-13.625 3.465 -13.625 2.805 -13.625 2.125 C-14.945 1.795 -16.265 1.465 -17.625 1.125 C-15.95888095 1.082279 -14.29117115 1.08436168 -12.625 1.125 C-12.295 1.455 -11.965 1.785 -11.625 2.125 C-8.66682893 2.37505386 -8.66682893 2.37505386 -5.625 2.125 C-3.625 0.125 -3.625 0.125 0 0 Z " fill="#453E36" transform="translate(62.625,82.875)"/>
<path d="M0 0 C0.99 1.32 1.98 2.64 3 4 C1.68 6.64 0.36 9.28 -1 12 C-1.66 12 -2.32 12 -3 12 C-2.49202991 7.6822542 -1.80317221 3.96697886 0 0 Z " fill="#D0BDA7" transform="translate(23,29)"/>
<path d="M0 0 C0.99 0.99 1.98 1.98 3 3 C2.01 3.495 2.01 3.495 1 4 C1 5.98 1 7.96 1 10 C-1.97 10.66 -4.94 11.32 -8 12 C-7.34 10.68 -6.68 9.36 -6 8 C-6 8.66 -6 9.32 -6 10 C-3.97034802 9.5748108 -3.97034802 9.5748108 -2 8 C-1.01505446 5.34822355 -0.54087618 2.79452693 0 0 Z " fill="#C0AD97" transform="translate(58,13)"/>
<path d="M0 0 C0.99 0 1.98 0 3 0 C3 1.98 3 3.96 3 6 C3.99 6.33 4.98 6.66 6 7 C6 7.66 6 8.32 6 9 C3.03 8.505 3.03 8.505 0 8 C0 5.36 0 2.72 0 0 Z " fill="#D2C0AA" transform="translate(14,39)"/>
<path d="M0 0 C1.32 0.33 2.64 0.66 4 1 C3.25 5.75 3.25 5.75 1 8 C-1.125 7.625 -1.125 7.625 -3 7 C-1.68 6.34 -0.36 5.68 1 5 C1 4.34 1 3.68 1 3 C0.34 3 -0.32 3 -1 3 C-0.67 2.01 -0.34 1.02 0 0 Z " fill="#CDBAA2" transform="translate(26,39)"/>
<path d="M0 0 C2.3125 0.1875 2.3125 0.1875 5 1 C6.8125 3.5625 6.8125 3.5625 8 6 C7.01 6.66 6.02 7.32 5 8 C0 2.25 0 2.25 0 0 Z " fill="#CDB9A3" transform="translate(76,24)"/>
<path d="M0 0 C-1.28299758 2.86207152 -2.530636 5.0245088 -5 7 C-5.99 7 -6.98 7 -8 7 C-7.8125 5.1875 -7.8125 5.1875 -7 3 C-2.82142857 0 -2.82142857 0 0 0 Z " fill="#DAC7B0" transform="translate(80,71)"/>
<path d="M0 0 C2.94956528 1.36944102 5.52468811 2.87830409 8 5 C8 5.66 8 6.32 8 7 C7.01 7.33 6.02 7.66 5 8 C1.76985216 5.84656811 0.24313463 4.72940389 -1 1 C-0.67 0.67 -0.34 0.34 0 0 Z " fill="#D3BEA5" transform="translate(28,70)"/>
<path d="M0 0 C2 1 2 1 3 3 C1.6875 4.5 1.6875 4.5 0 6 C-0.99 6 -1.98 6 -3 6 C-3.66 4.68 -4.32 3.36 -5 2 C-2.625 0.9375 -2.625 0.9375 0 0 Z " fill="#AF9F8C" transform="translate(41,15)"/>
<path d="M0 0 C0.99 0.66 1.98 1.32 3 2 C3.3125 5.5 3.3125 5.5 3 9 C2.34 9.66 1.68 10.32 1 11 C-1 4.375 -1 4.375 -1 1 C-0.67 0.67 -0.34 0.34 0 0 Z " fill="#948575" transform="translate(85,54)"/>
<path d="M0 0 C0.66 0 1.32 0 2 0 C3.50662097 3.01324195 3.17770373 5.68286377 3 9 C2.34 9.66 1.68 10.32 1 11 C-0.28317892 7.15046324 -0.06643637 4.05261865 0 0 Z " fill="#D5C1A9" transform="translate(20,51)"/>
<path d="M0 0 C0.99 0.495 0.99 0.495 2 1 C2 1.99 2 2.98 2 4 C4.97 4 7.94 4 11 4 C11 4.33 11 4.66 11 5 C8.03 5 5.06 5 2 5 C1.67 6.32 1.34 7.64 1 9 C0 8 0 8 -0.09765625 6.15234375 C-0.06510417 4.1015625 -0.03255208 2.05078125 0 0 Z " fill="#DAC5AD" transform="translate(46,46)"/>
<path d="M0 0 C0 3 0 3 -1.5 5.9375 C-3.29324497 9.03035544 -3.29324497 9.03035544 -3 13 C-3.99 13.33 -4.98 13.66 -6 14 C-5.57202798 8.29370646 -3.15654048 4.58921384 0 0 Z " fill="#4C443B" transform="translate(28,29)"/>
<path d="M0 0 C0.33 0.99 0.66 1.98 1 3 C1.99 3.33 2.98 3.66 4 4 C-1.2734375 7.22265625 -1.2734375 7.22265625 -3 8 C-3.66 7.67 -4.32 7.34 -5 7 C-3.68 6.01 -2.36 5.02 -1 4 C-1.33 3.01 -1.66 2.02 -2 1 C-1.34 0.67 -0.68 0.34 0 0 Z " fill="#8C7F6F" transform="translate(71,75)"/>
<path d="M0 0 C0.99 0.33 1.98 0.66 3 1 C3 4.3 3 7.6 3 11 C2.34 10.67 1.68 10.34 1 10 C0.5859375 7.71484375 0.5859375 7.71484375 0.375 4.9375 C0.30023438 4.01839844 0.22546875 3.09929688 0.1484375 2.15234375 C0.09945312 1.44207031 0.05046875 0.73179688 0 0 Z " fill="#DBC7B0" transform="translate(85,37)"/>
<path d="M0 0 C0.268125 0.5775 0.53625 1.155 0.8125 1.75 C2.01719859 4.0325868 3.40798115 5.9737942 5 8 C4.01 8.33 3.02 8.66 2 9 C0.68 7.68 -0.64 6.36 -2 5 C-1.34 3.35 -0.68 1.7 0 0 Z " fill="#BBA68F" transform="translate(48,51)"/>
<path d="M0 0 C5.625 -0.25 5.625 -0.25 9 2 C9 2.66 9 3.32 9 4 C5.7 3.34 2.4 2.68 -1 2 C-0.67 1.34 -0.34 0.68 0 0 Z " fill="#C2AB92" transform="translate(53,34)"/>
<path d="M0 0 C-3.06117568 2.62386487 -3.73173127 3 -8 3 C-7.67 2.01 -7.34 1.02 -7 0 C-4.3333581 -1.33332095 -2.83319697 -0.67102033 0 0 Z " fill="#D5BEA5" transform="translate(71,79)"/>
<path d="M0 0 C0.66 0 1.32 0 2 0 C3.35439668 2.70879335 3.06501451 5.00933268 3 8 C2.01 7.67 1.02 7.34 0 7 C0 4.69 0 2.38 0 0 Z " fill="#C8B6A1" transform="translate(90,53)"/>
<path d="M0 0 C2 1 4 2 6 3 C6.99 2.67 7.98 2.34 9 2 C9 3.65 9 5.3 9 7 C4.58110387 5.64978174 2.65654657 3.73884332 0 0 Z " fill="#776B5E" transform="translate(28,74)"/>
<path d="M0 0 C1.65 0 3.3 0 5 0 C4.67 0.99 4.34 1.98 4 3 C3.01 2.67 2.02 2.34 1 2 C1.33 3.32 1.66 4.64 2 6 C0.68 5.34 -0.64 4.68 -2 4 C-1.34 2.68 -0.68 1.36 0 0 Z " fill="#C1AF9A" transform="translate(79,52)"/>
<path d="M0 0 C5.75 0.75 5.75 0.75 8 3 C5.6875 3.625 5.6875 3.625 3 4 C2.01 3.34 1.02 2.68 0 2 C0 1.34 0 0.68 0 0 Z " fill="#DDC6AB" transform="translate(60,14)"/>
<path d="M0 0 C4.875 0.875 4.875 0.875 6 2 C6.04063832 3.66617115 6.042721 5.33388095 6 7 C1.125 2.25 1.125 2.25 0 0 Z " fill="#CEBAA3" transform="translate(52,73)"/>
<path d="M0 0 C2.125 0.375 2.125 0.375 4 1 C3.38125 1.598125 2.7625 2.19625 2.125 2.8125 C-0.13676954 5.00811144 -0.13676954 5.00811144 -2 8 C-2.125 5.125 -2.125 5.125 -2 2 C-1.34 1.34 -0.68 0.68 0 0 Z " fill="#DFCAB1" transform="translate(51,74)"/>
</svg>
