<?xml version="1.0" encoding="UTF-8"?>
<svg version="1.1" xmlns="http://www.w3.org/2000/svg" width="69" height="84">
<path d="M0 0 C1.5 1.375 1.5 1.375 3 3 C4.093125 3.2475 5.18625 3.495 6.3125 3.75 C11.05414731 5.35733807 13.42701991 7.75137808 16 12 C16.5 14.8125 16.5 14.8125 16 17 C15.34 17.66 14.68 18.32 14 19 C13.3574765 21.06874034 13.3574765 21.06874034 13 23 C14.2375 22.9175 15.475 22.835 16.75 22.75 C19.62576404 22.5582824 20.77482134 22.85631082 23.234375 24.42578125 C25.89426326 28.30380418 25.58361106 31.84237526 25.5 36.4375 C25.51546875 37.28376953 25.5309375 38.13003906 25.546875 39.00195312 C25.52137187 43.0728909 25.32450141 45.44576307 23.234375 49.015625 C19.90900346 51.968927 17.32231546 52.2075755 13 53 C13.495 56.465 13.495 56.465 14 60 C10.51120968 63.26911773 7.88217772 63.3853134 3.1875 63.3984375 C2.53676514 63.40130768 1.88603027 63.40417786 1.21557617 63.40713501 C-0.15609613 63.40917056 -1.52779779 63.40367623 -2.89941406 63.39111328 C-4.99350165 63.37504985 -7.08565961 63.39097657 -9.1796875 63.41015625 C-10.51562924 63.40817372 -11.85156978 63.40432985 -13.1875 63.3984375 C-15.00314453 63.39336182 -15.00314453 63.39336182 -16.85546875 63.38818359 C-20.19982945 62.97533161 -21.57459183 62.27269172 -24 60 C-23.67 59.01 -23.34 58.02 -23 57 C-22.01 57 -21.02 57 -20 57 C-20.11884529 52.69481986 -20.24312965 48.38984033 -20.37231445 44.08496094 C-20.41545337 42.62243852 -20.45714195 41.15987253 -20.49731445 39.69726562 C-20.5555307 37.5871064 -20.61907288 35.47716225 -20.68359375 33.3671875 C-20.72025146 32.09987793 -20.75690918 30.83256836 -20.79467773 29.52685547 C-20.98493954 26.2586961 -21.26002762 23.18944407 -22 20 C-23.95163118 18.56362302 -23.95163118 18.56362302 -26 18 C-26.42653727 13.64931982 -26.57772872 11.70611288 -23.75 8.25 C-22.8425 7.5075 -21.935 6.765 -21 6 C-20.38125 5.4225 -19.7625 4.845 -19.125 4.25 C-16.19518826 2.52658133 -13.3442138 2.42562721 -10 2 C-6.30513897 -0.46324069 -4.36706908 -0.38991688 0 0 Z M13 28 C13 34.27 13 40.54 13 47 C18.51563484 46.67811123 18.51563484 46.67811123 20 45 C20.09981214 42.3226862 20.13879875 39.67695825 20.125 37 C20.12886719 36.24976563 20.13273437 35.49953125 20.13671875 34.7265625 C20.47675541 31.06393883 20.47675541 31.06393883 19 28 C17.02 28 15.04 28 13 28 Z " fill="#8C7E6D" transform="translate(36,9)"/>
<path d="M0 0 C0.99 0 1.98 0 3 0 C3 0.66 3 1.32 3 2 C3.66 2 4.32 2 5 2 C5 2.66 5 3.32 5 4 C5.99 4 6.98 4 8 4 C8 6.31 8 8.62 8 11 C8.99 11 9.98 11 11 11 C10.979375 9.700625 10.95875 8.40125 10.9375 7.0625 C10.91600546 5.70834367 10.92851801 4.35243917 11 3 C12 2 12 2 13.76586914 1.88647461 C14.51473389 1.89171143 15.26359863 1.89694824 16.03515625 1.90234375 C16.84404297 1.90556641 17.65292969 1.90878906 18.48632812 1.91210938 C19.33646484 1.92048828 20.18660156 1.92886719 21.0625 1.9375 C21.91650391 1.94201172 22.77050781 1.94652344 23.65039062 1.95117188 C25.76695663 1.96299627 27.88348685 1.98093231 30 2 C30.02465392 6.53897705 30.04283789 11.07791543 30.05493164 15.61694336 C30.0599714 17.16219766 30.0668032 18.70744716 30.07543945 20.25268555 C30.08752076 22.46925029 30.09323173 24.68575218 30.09765625 26.90234375 C30.10281754 27.5971434 30.10797882 28.29194305 30.11329651 29.00779724 C30.11349277 30.6722933 30.06189129 32.33665499 30 34 C27.6100329 36.3899671 21.52075324 35.18546042 18.3125 35.1875 C17.31798828 35.19974609 16.32347656 35.21199219 15.29882812 35.22460938 C14.33009766 35.22654297 13.36136719 35.22847656 12.36328125 35.23046875 C11.03744019 35.23663208 11.03744019 35.23663208 9.68481445 35.24291992 C7 35 7 35 1 33 C0.67 22.11 0.34 11.22 0 0 Z " fill="#B85A02" transform="translate(15,34)"/>
<path d="M0 0 C1.5 1.375 1.5 1.375 3 3 C5.30988315 3.74386068 7.64315944 4.42190703 10 5 C10 6.32 10 7.64 10 9 C11.32 9.66 12.64 10.32 14 11 C14 12.65 14 14.3 14 16 C12.33710937 16.19916016 12.33710937 16.19916016 10.640625 16.40234375 C9.1770673 16.58059757 7.71352651 16.75899028 6.25 16.9375 C5.52039063 17.02451172 4.79078125 17.11152344 4.0390625 17.20117188 C-0.06657246 17.69523707 -0.06657246 17.69523707 -4.109375 18.54101562 C-7.45547977 19.35334478 -10.62855696 18.50571646 -14 18 C-14 17.01 -14 16.02 -14 15 C-15.97536745 15.34786708 -15.97536745 15.34786708 -18 16 C-18.33 16.66 -18.66 17.32 -19 18 C-20.65 18 -22.3 18 -24 18 C-24.96684467 14.92367604 -25.21940102 13.48755783 -23.875 10.5 C-18.45728643 3.27638191 -18.45728643 3.27638191 -13.375 2.3125 C-12.26125 2.209375 -11.1475 2.10625 -10 2 C-6.30513897 -0.46324069 -4.36706908 -0.38991688 0 0 Z " fill="#E9DBC7" transform="translate(36,9)"/>
<path d="M0 0 C4.95 0 9.9 0 15 0 C14.67 1.65 14.34 3.3 14 5 C15.2375 4.9175 16.475 4.835 17.75 4.75 C20.62576404 4.5582824 21.77482134 4.85631082 24.234375 6.42578125 C26.89426326 10.30380418 26.58361106 13.84237526 26.5 18.4375 C26.51546875 19.28376953 26.5309375 20.13003906 26.546875 21.00195312 C26.52137187 25.0728909 26.32450141 27.44576307 24.234375 31.015625 C20.90900346 33.968927 18.32231546 34.2075755 14 35 C14.33 37.31 14.66 39.62 15 42 C13.68 42.66 12.36 43.32 11 44 C11.16298584 43.18450684 11.32597168 42.36901367 11.49389648 41.52880859 C12.07003805 37.51165941 12.12526605 33.58582374 12.09765625 29.5390625 C12.0962413 28.74849457 12.09482635 27.95792664 12.09336853 27.1434021 C12.08780504 24.63722834 12.07525944 22.13114642 12.0625 19.625 C12.05748028 17.91797005 12.0529182 16.21093868 12.04882812 14.50390625 C12.03784759 10.33590252 12.02060839 6.16796679 12 2 C8.37 2 4.74 2 1 2 C0.67 1.34 0.34 0.68 0 0 Z M14 10 C14 16.27 14 22.54 14 29 C19.51563484 28.67811123 19.51563484 28.67811123 21 27 C21.09981214 24.3226862 21.13879875 21.67695825 21.125 19 C21.12886719 18.24976563 21.13273437 17.49953125 21.13671875 16.7265625 C21.47675541 13.06393883 21.47675541 13.06393883 20 10 C18.02 10 16.04 10 14 10 Z " fill="#3F3830" transform="translate(35,27)"/>
<path d="M0 0 C0.99 0 1.98 0 3 0 C3 0.66 3 1.32 3 2 C3.66 2.33 4.32 2.66 5 3 C4.34 3 3.68 3 3 3 C3 12.57 3 22.14 3 32 C11.58 32 20.16 32 29 32 C29 22.43 29 12.86 29 3 C25.7 3.33 22.4 3.66 19 4 C16.66693445 4.03534948 14.33278217 4.05071266 12 4 C12 3.34 12 2.68 12 2 C17.94 2 23.88 2 30 2 C30.02291161 6.53904366 30.04283781 11.07788802 30.05493164 15.61694336 C30.0599714 17.16219766 30.0668032 18.70744716 30.07543945 20.25268555 C30.08752076 22.46925029 30.09323173 24.68575218 30.09765625 26.90234375 C30.10281754 27.5971434 30.10797882 28.29194305 30.11329651 29.00779724 C30.11349277 30.6722933 30.06189129 32.33665499 30 34 C27.6100329 36.3899671 21.52075324 35.18546042 18.3125 35.1875 C17.31798828 35.19974609 16.32347656 35.21199219 15.29882812 35.22460938 C14.33009766 35.22654297 13.36136719 35.22847656 12.36328125 35.23046875 C11.03744019 35.23663208 11.03744019 35.23663208 9.68481445 35.24291992 C7 35 7 35 1 33 C0.67 22.11 0.34 11.22 0 0 Z " fill="#4E3323" transform="translate(15,34)"/>
<path d="M0 0 C2.97 0.495 2.97 0.495 6 1 C6 9.25 6 17.5 6 26 C5.34 26 4.68 26 4 26 C4 26.66 4 27.32 4 28 C4.66 28.33 5.32 28.66 6 29 C4.02 29 2.04 29 0 29 C0 19.43 0 9.86 0 0 Z " fill="#CC6B03" transform="translate(30,37)"/>
<path d="M0 0 C0.33 0 0.66 0 1 0 C1.1922881 5.64133763 1.371007 11.28287935 1.53710938 16.92504883 C1.59554321 18.84476269 1.65769741 20.76436704 1.72363281 22.68383789 C1.81771235 25.44136619 1.89844762 28.1990103 1.9765625 30.95703125 C2.00875885 31.81649857 2.0409552 32.67596588 2.0741272 33.56147766 C2.10438492 34.76238289 2.10438492 34.76238289 2.13525391 35.98754883 C2.15746002 36.6914827 2.17966614 37.39541656 2.20254517 38.12068176 C2 40 2 40 0 43 C-2.91748047 43.38818359 -2.91748047 43.38818359 -6.6171875 43.3984375 C-7.27075226 43.40130768 -7.92431702 43.40417786 -8.59768677 43.40713501 C-9.9813117 43.40917731 -11.36496539 43.40363573 -12.74853516 43.39111328 C-14.86036373 43.37511091 -16.97026371 43.39092699 -19.08203125 43.41015625 C-20.42708754 43.40817283 -21.77214264 43.40432712 -23.1171875 43.3984375 C-24.95192627 43.39336182 -24.95192627 43.39336182 -26.82373047 43.38818359 C-30.1885512 42.97695646 -31.56387059 42.28912814 -34 40 C-33.67 39.01 -33.34 38.02 -33 37 C-31.7521875 37.32613281 -30.504375 37.65226562 -29.21875 37.98828125 C-23.62433722 39.23014443 -18.20838213 39.25961387 -12.5 39.1875 C-11.4996875 39.18685547 -10.499375 39.18621094 -9.46875 39.18554688 C-4.89513726 39.58205144 -4.89513726 39.58205144 -1 38 C-0.83982834 35.19023482 -0.74049466 32.40226404 -0.68359375 29.58984375 C-0.66281265 28.74780899 -0.64203156 27.90577423 -0.62062073 27.03822327 C-0.55503188 24.33806821 -0.49619724 21.63781283 -0.4375 18.9375 C-0.39432363 17.11131759 -0.35070964 15.28514546 -0.30664062 13.45898438 C-0.19934106 8.97276008 -0.09810034 4.4864345 0 0 Z " fill="#9F9585" transform="translate(46,29)"/>
<path d="M0 0 C0.84046875 0.06123047 1.6809375 0.12246094 2.546875 0.18554688 C4.61570599 0.33835825 6.68305508 0.51100162 8.75 0.6875 C9.08 2.3375 9.41 3.9875 9.75 5.6875 C4.14 6.3475 -1.47 7.0075 -7.25 7.6875 C-7.58 10.3275 -7.91 12.9675 -8.25 15.6875 C-9.24 15.6875 -10.23 15.6875 -11.25 15.6875 C-11.25 13.3775 -11.25 11.0675 -11.25 8.6875 C-11.91 8.6875 -12.57 8.6875 -13.25 8.6875 C-13.73209607 3.26391921 -13.73209607 3.26391921 -11.8125 0.96875 C-7.88544326 -0.99477837 -4.29066373 -0.37878516 0 0 Z " fill="#D3B896" transform="translate(34.25,29.3125)"/>
<path d="M0 0 C6.28721288 -0.48363176 6.28721288 -0.48363176 9.19921875 1.4921875 C11.71735435 4.9990054 11.62322541 8.21709558 11.5625 12.375 C11.58634766 13.1175 11.61019531 13.86 11.63476562 14.625 C11.6240657 18.66243706 11.19464537 21.2876614 8.671875 24.515625 C6 27 6 27 2.6875 27.375 C1.800625 27.25125 0.91375 27.1275 0 27 C0 26.01 0 25.02 0 24 C2.31 23.34 4.62 22.68 7 22 C7 16.06 7 10.12 7 4 C4.69 3.34 2.38 2.68 0 2 C0 1.34 0 0.68 0 0 Z " fill="#D1C1AD" transform="translate(49,33)"/>
<path d="M0 0 C0.33 0 0.66 0 1 0 C1 2.31 1 4.62 1 7 C1.99 7 2.98 7 4 7 C4 5.35 4 3.7 4 2 C4.33 2 4.66 2 5 2 C5 8.93 5 15.86 5 23 C3.35 23.33 1.7 23.66 0 24 C0 16.08 0 8.16 0 0 Z " fill="#DD7A06" transform="translate(22,38)"/>
<path d="M0 0 C0.66 0.33 1.32 0.66 2 1 C1.030625 1.680625 0.06125 2.36125 -0.9375 3.0625 C-3.7813447 5.39110695 -3.98914562 5.95270592 -4.875 9.8125 C-4.91625 10.864375 -4.9575 11.91625 -5 13 C-3.35 13.33 -1.7 13.66 0 14 C0.33 13.01 0.66 12.02 1 11 C2.32 11 3.64 11 5 11 C4.67 11.99 4.34 12.98 4 14 C2.35 14.33 0.7 14.66 -1 15 C-1 15.66 -1 16.32 -1 17 C0.98 16.67 2.96 16.34 5 16 C5 19.11227195 4.54372951 21.94152152 4 25 C3.67 24.34 3.34 23.68 3 23 C2.34 23 1.68 23 1 23 C1 22.34 1 21.68 1 21 C-0.32 20.67 -1.64 20.34 -3 20 C-3 18.68 -3 17.36 -3 16 C-4.32 15.34 -5.64 14.68 -7 14 C-7.3125 10.8125 -7.3125 10.8125 -7 7 C-4.625 4.1875 -4.625 4.1875 -2 2 C-1.34 1.34 -0.68 0.68 0 0 Z " fill="#958572" transform="translate(17,13)"/>
<path d="M0 0 C0.66 0 1.32 0 2 0 C2.02465881 3.96930989 2.04284023 7.93859034 2.05493164 11.90795898 C2.05997057 13.25920386 2.06680177 14.61044326 2.07543945 15.96166992 C2.08752419 17.90020434 2.09269828 19.838778 2.09765625 21.77734375 C2.10289307 22.94515381 2.10812988 24.11296387 2.11352539 25.31616211 C2 28 2 28 1 29 C-1.35313555 29.07271741 -3.70833668 29.08370868 -6.0625 29.0625 C-7.35285156 29.05347656 -8.64320312 29.04445313 -9.97265625 29.03515625 C-10.97167969 29.02355469 -11.97070312 29.01195313 -13 29 C-13 28.67 -13 28.34 -13 28 C-9.37 27.67 -5.74 27.34 -2 27 C-2 26.34 -2 25.68 -2 25 C-1.34 25 -0.68 25 0 25 C0 16.75 0 8.5 0 0 Z " fill="#9A4502" transform="translate(36,38)"/>
<path d="M0 0 C1.5 1.375 1.5 1.375 3 3 C5.30988315 3.74386068 7.64315944 4.42190703 10 5 C9.67 5.66 9.34 6.32 9 7 C1.25 6.25 1.25 6.25 -1 4 C-3.58354218 3.83312552 -3.58354218 3.83312552 -6 4 C-6.33 4.99 -6.66 5.98 -7 7 C-8.32 7 -9.64 7 -11 7 C-11 6.01 -11 5.02 -11 4 C-12.98 4 -14.96 4 -17 4 C-17 3.67 -17 3.34 -17 3 C-15.906875 2.87625 -14.81375 2.7525 -13.6875 2.625 C-8.35601951 1.72135924 -5.72241885 -0.51093025 0 0 Z " fill="#867E73" transform="translate(36,9)"/>
<path d="M0 0 C0.99 0 1.98 0 3 0 C3 0.66 3 1.32 3 2 C3.66 2.33 4.32 2.66 5 3 C4.34 3 3.68 3 3 3 C3.33 12.9 3.66 22.8 4 33 C3.01 33 2.02 33 1 33 C0.67 22.11 0.34 11.22 0 0 Z " fill="#331C0E" transform="translate(15,34)"/>
<path d="M0 0 C0.99 0 1.98 0 3 0 C3.33 1.32 3.66 2.64 4 4 C5.98 4 7.96 4 10 4 C10 4.33 10 4.66 10 5 C8.02 5.66 6.04 6.32 4 7 C3.67 9.64 3.34 12.28 3 15 C2.01 15 1.02 15 0 15 C0 12.69 0 10.38 0 8 C-0.66 8 -1.32 8 -2 8 C-2.125 5.125 -2.125 5.125 -2 2 C-1.34 1.34 -0.68 0.68 0 0 Z " fill="#E9D6BA" transform="translate(23,30)"/>
<path d="M0 0 C0.99 0.33 1.98 0.66 3 1 C2.67 10.24 2.34 19.48 2 29 C1.34 29 0.68 29 0 29 C0 19.43 0 9.86 0 0 Z " fill="#D06A02" transform="translate(18,37)"/>
<path d="M0 0 C0.99 0.33 1.98 0.66 3 1 C3 4.3 3 7.6 3 11 C0.36 11 -2.28 11 -5 11 C-5 9.68 -5 8.36 -5 7 C-3.35 6.67 -1.7 6.34 0 6 C0 4.02 0 2.04 0 0 Z " fill="#C76401" transform="translate(27,55)"/>
<path d="M0 0 C0.66 0 1.32 0 2 0 C2.66 5.61 3.32 11.22 4 17 C2.68 17.33 1.36 17.66 0 18 C0 12.06 0 6.12 0 0 Z " fill="#E28008" transform="translate(31,45)"/>
<path d="M0 0 C1.86978516 0.47566406 1.86978516 0.47566406 3.77734375 0.9609375 C9.35874183 2.20124818 14.86257297 2.44393018 20.5625 2.625 C21.57119141 2.66367188 22.57988281 2.70234375 23.61914062 2.7421875 C26.0792564 2.83546203 28.53938366 2.92125516 31 3 C31 3.33 31 3.66 31 4 C21.43 4 11.86 4 2 4 C1.34 2.68 0.68 1.36 0 0 Z " fill="#F7E9CC" transform="translate(13,66)"/>
<path d="M0 0 C1.65 0 3.3 0 5 0 C5.33 1.65 5.66 3.3 6 5 C0.63904667 6.12862175 -4.55306686 6.09688221 -10 6 C-10 5.67 -10 5.34 -10 5 C-6.97265625 4.26757812 -6.97265625 4.26757812 -3.9453125 3.53515625 C-1.9414343 3.05153008 -1.9414343 3.05153008 0 2 C0 1.34 0 0.68 0 0 Z " fill="#D8C2A4" transform="translate(38,30)"/>
<path d="M0 0 C0.99 0.99 1.98 1.98 3 3 C3 3.66 3 4.32 3 5 C2.34 5 1.68 5 1 5 C1 10.94 1 16.88 1 23 C1.99 23 2.98 23 4 23 C4 23.66 4 24.32 4 25 C4.66 25.33 5.32 25.66 6 26 C4.02 26 2.04 26 0 26 C0 17.42 0 8.84 0 0 Z " fill="#D67303" transform="translate(30,40)"/>
<path d="M0 0 C1.0528418 0.15662109 1.0528418 0.15662109 2.12695312 0.31640625 C3.85708829 0.57533804 5.58504118 0.84877657 7.3125 1.125 C6.9825 1.785 6.6525 2.445 6.3125 3.125 C0.7025 3.125 -4.9075 3.125 -10.6875 3.125 C-10.6875 2.465 -10.6875 1.805 -10.6875 1.125 C-6.83513991 -1.44324006 -4.32308834 -0.70235049 0 0 Z " fill="#413429" transform="translate(26.6875,26.875)"/>
<path d="M0 0 C6.42246777 -0.48471455 6.42246777 -0.48471455 8.75 1.46875 C10.62370059 5.2629937 10.07491931 8.61524165 9.6875 12.75 C9.62626953 13.54277344 9.56503906 14.33554687 9.50195312 15.15234375 C9.34920979 17.10275869 9.17654756 19.05159555 9 21 C8.67 21 8.34 21 8 21 C7.67 15.39 7.34 9.78 7 4 C4.69 3.34 2.38 2.68 0 2 C0 1.34 0 0.68 0 0 Z " fill="#BAAC9A" transform="translate(49,33)"/>
<path d="M0 0 C0.33 0 0.66 0 1 0 C1 2.31 1 4.62 1 7 C1.99 7 2.98 7 4 7 C4 8.65 4 10.3 4 12 C3.34 12 2.68 12 2 12 C1.34 13.32 0.68 14.64 0 16 C0 10.72 0 5.44 0 0 Z " fill="#E79D34" transform="translate(22,38)"/>
<path d="M0 0 C0.33 0 0.66 0 1 0 C1 4.62 1 9.24 1 14 C0.01 14 -0.98 14 -2 14 C-2.33 15.32 -2.66 16.64 -3 18 C-3.93065133 15.39417629 -4.14917407 14.35801776 -3.0625 11.75 C-2.711875 11.1725 -2.36125 10.595 -2 10 C-1.34 10 -0.68 10 0 10 C0 6.7 0 3.4 0 0 Z " fill="#EC8B11" transform="translate(26,40)"/>
<path d="M0 0 C1.32 0.33 2.64 0.66 4 1 C4.1875 4.375 4.1875 4.375 4 8 C3.01 8.66 2.02 9.32 1 10 C0.67 6.7 0.34 3.4 0 0 Z " fill="#BE5E06" transform="translate(26,37)"/>
<path d="M0 0 C0.66 0.33 1.32 0.66 2 1 C2 3.97 2 6.94 2 10 C0.68 10 -0.64 10 -2 10 C-2 9.01 -2 8.02 -2 7 C-1.34 7 -0.68 7 0 7 C0 4.69 0 2.38 0 0 Z " fill="#BE5F01" transform="translate(40,56)"/>
<path d="M0 0 C4.455 0.99 4.455 0.99 9 2 C9 2.66 9 3.32 9 4 C6.69 4 4.38 4 2 4 C1.34 2.68 0.68 1.36 0 0 Z " fill="#E1CDB5" transform="translate(13,66)"/>
<path d="M0 0 C0 2.31 0 4.62 0 7 C-2.64 7 -5.28 7 -8 7 C-8 6.67 -8 6.34 -8 6 C-6.02 6 -4.04 6 -2 6 C-2.33 4.35 -2.66 2.7 -3 1 C-1 0 -1 0 0 0 Z " fill="#AE9A80" transform="translate(46,29)"/>
<path d="M0 0 C1.32 0 2.64 0 4 0 C3.67 0.99 3.34 1.98 3 3 C1.35 3.33 -0.3 3.66 -2 4 C-2 4.66 -2 5.32 -2 6 C-4 5 -4 5 -5 3 C-3.68 3 -2.36 3 -1 3 C-0.67 2.01 -0.34 1.02 0 0 Z " fill="#AF9A7F" transform="translate(18,24)"/>
<path d="M0 0 C2 3 2 3 1.625 5.6875 C1.41875 6.450625 1.2125 7.21375 1 8 C0.01 8 -0.98 8 -2 8 C-1.34 5.36 -0.68 2.72 0 0 Z " fill="#DECFB9" transform="translate(46,62)"/>
<path d="M0 0 C0.33 0 0.66 0 1 0 C1 2.31 1 4.62 1 7 C0.01 7 -0.98 7 -2 7 C-2 5.35 -2 3.7 -2 2 C-1.34 2 -0.68 2 0 2 C0 1.34 0 0.68 0 0 Z " fill="#EED198" transform="translate(25,38)"/>
</svg>
