<?xml version="1.0" encoding="UTF-8"?>
<svg version="1.1" xmlns="http://www.w3.org/2000/svg" width="88" height="77">
<path d="M0 0 C3 1.5 3 1.5 6 3 C6.66 2.01 7.32 1.02 8 0 C9.32 0.33 10.64 0.66 12 1 C11.25 5.75 11.25 5.75 9 8 C9.35908802 11.5652656 11.20899559 14.20741766 13.09765625 17.18359375 C13.7311499 18.18841797 14.36464355 19.19324219 15.01733398 20.22851562 C15.69223877 21.28748047 16.36714355 22.34644531 17.0625 23.4375 C18.42999975 25.6026674 19.7971896 27.76803056 21.1640625 29.93359375 C22.1545459 31.49762939 22.1545459 31.49762939 23.16503906 33.09326172 C25.44970916 36.71237856 27.70237744 40.35013494 29.9375 44 C30.84822266 45.485 30.84822266 45.485 31.77734375 47 C32.18082031 47.66 32.58429688 48.32 33 49 C33.26554687 48.35546875 33.53109375 47.7109375 33.8046875 47.046875 C34.19914062 46.37140625 34.59359375 45.6959375 35 45 C38.125 44.25 38.125 44.25 41 44 C40.47731534 46.76276177 39.89130413 49.3260876 39 52 C39.66 52 40.32 52 41 52 C40.67 53.65 40.34 55.3 40 57 C16.57 57 -6.86 57 -31 57 C-31 55.35 -31 53.7 -31 52 C-30.01 52 -29.02 52 -28 52 C-28.7734375 51.13375 -28.7734375 51.13375 -29.5625 50.25 C-31 48 -31 48 -30.6875 45.75 C-30.460625 45.1725 -30.23375 44.595 -30 44 C-28.02 44.33 -26.04 44.66 -24 45 C-23.67 46.32 -23.34 47.64 -23 49 C-18.5397021 42.37862176 -14.21394269 35.67880457 -9.9375 28.9375 C-9.33873047 27.99583984 -8.73996094 27.05417969 -8.12304688 26.08398438 C-4.72571218 20.73681027 -1.35021863 15.3768159 2 10 C1.2265625 8.9171875 1.2265625 8.9171875 0.4375 7.8125 C-1.21442982 4.5804634 -1.06351675 3.38391693 0 0 Z M2 19 C1.06154115 20.3758826 0.17311318 21.78590678 -0.6953125 23.20703125 C-1.24356689 24.09946533 -1.79182129 24.99189941 -2.35668945 25.91137695 C-2.94023193 26.86874756 -3.52377441 27.82611816 -4.125 28.8125 C-5.30808485 30.7398958 -6.49167445 32.66698187 -7.67578125 34.59375 C-8.2476416 35.52574219 -8.81950195 36.45773438 -9.40869141 37.41796875 C-12.21970806 41.97907832 -15.09903974 46.49559988 -18 51 C-16.68 51.33 -15.36 51.66 -14 52 C-13.61328125 51.27554688 -13.2265625 50.55109375 -12.828125 49.8046875 C-5.36548952 35.95078501 -5.36548952 35.95078501 -0.25 32.25 C2.1784523 30.31345168 2.91309114 29.50331564 3.44921875 26.3984375 C3.43864468 23.89590759 3.30905728 21.48226957 3 19 C2.67 19 2.34 19 2 19 Z M8 19 C7.64340383 22.40087092 7.49247241 25.6095064 8 29 C10.40028413 31.5679054 10.40028413 31.5679054 12.34765625 32.81640625 C18.59944811 37.29464014 20.73836032 45.01292321 23 52 C24.98 52 26.96 52 29 52 C24.88076358 44.7398458 20.547761 37.7592424 15.8671875 30.84765625 C13.3538634 27.0145741 11.13042141 23.05599461 9 19 C8.67 19 8.34 19 8 19 Z M4 37 C3.18618205 38.93694678 2.37399084 40.87457711 1.5625 42.8125 C1.11003906 43.89144531 0.65757813 44.97039063 0.19140625 46.08203125 C-0.60375013 48.0295126 -1.33479648 50.00438943 -2 52 C2.62 52 7.24 52 12 52 C10.02 47.05 8.04 42.1 6 37 C5.34 37 4.68 37 4 37 Z M-2 38 C-3.50282173 40.14390639 -5.00235797 42.28998027 -6.5 44.4375 C-6.92925781 45.04916016 -7.35851562 45.66082031 -7.80078125 46.29101562 C-10.01284992 48.9191814 -10.01284992 48.9191814 -11 52 C-9.35 52 -7.7 52 -6 52 C-5.13644222 50.04578965 -4.28440066 48.08648653 -3.4375 46.125 C-2.96183594 45.03445312 -2.48617187 43.94390625 -1.99609375 42.8203125 C-1.66738281 41.88960937 -1.33867188 40.95890625 -1 40 C-1.33 39.34 -1.66 38.68 -2 38 Z M12 39 C12.45196245 40.60597325 12.91182327 42.20972508 13.375 43.8125 C13.63023438 44.70582031 13.88546875 45.59914063 14.1484375 46.51953125 C14.95266661 49.20467896 14.95266661 49.20467896 17 52 C18.32 51.67 19.64 51.34 21 51 C19.69161864 48.997193 18.37857806 46.99773901 17.0625 45 C16.68931641 44.42765625 16.31613281 43.8553125 15.93164062 43.265625 C14.98055411 41.82614271 13.99305724 40.41085511 13 39 C12.67 39 12.34 39 12 39 Z " fill="#7A6E60" transform="translate(39,9)"/>
<path d="M0 0 C0.66 0 1.32 0 2 0 C1.67 3.96 1.34 7.92 1 12 C2.32 12.66 3.64 13.32 5 14 C10.75405636 20.04120697 16 26.38714274 16 35 C18.475 34.505 18.475 34.505 21 34 C21 33.01 21 32.02 21 31 C21.33 31.33 21.66 31.66 22 32 C22 30.35 22 28.7 22 27 C23.70840281 28.63412443 24.93453047 29.86906094 26 32 C26.20625 31.360625 26.4125 30.72125 26.625 30.0625 C28 28 28 28 31.125 27.25 C32.07375 27.1675 33.0225 27.085 34 27 C33.47731534 29.76276177 32.89130413 32.3260876 32 35 C32.66 35 33.32 35 34 35 C33.67 36.65 33.34 38.3 33 40 C9.57 40 -13.86 40 -38 40 C-38 38.35 -38 36.7 -38 35 C-37.01 35 -36.02 35 -35 35 C-35.7734375 34.13375 -35.7734375 34.13375 -36.5625 33.25 C-38 31 -38 31 -37.6875 28.75 C-37.460625 28.1725 -37.23375 27.595 -37 27 C-35.02 27.33 -33.04 27.66 -31 28 C-30.67 29.32 -30.34 30.64 -30 32 C-28.35 29.69 -26.7 27.38 -25 25 C-24.34 25.99 -23.68 26.98 -23 28 C-19.7 23.05 -16.4 18.1 -13 13 C-12.67 13.66 -12.34 14.32 -12 15 C-12.98803711 16.97119141 -12.98803711 16.97119141 -14.52734375 19.3515625 C-15.07197266 20.20234375 -15.61660156 21.053125 -16.17773438 21.9296875 C-16.75845703 22.81914063 -17.33917969 23.70859375 -17.9375 24.625 C-18.51435547 25.5221875 -19.09121094 26.419375 -19.68554688 27.34375 C-21.11660783 29.56721661 -22.5549815 31.78558887 -24 34 C-23.01 34.33 -22.02 34.66 -21 35 C-20.896875 34.4225 -20.79375 33.845 -20.6875 33.25 C-19.90207202 30.67950842 -18.69495803 29.06342716 -17 27 C-16.67 27.66 -16.34 28.32 -16 29 C-15.54109375 28.31292969 -15.0821875 27.62585938 -14.609375 26.91796875 C-13.99578125 26.01691406 -13.3821875 25.11585937 -12.75 24.1875 C-12.14671875 23.29417969 -11.5434375 22.40085937 -10.921875 21.48046875 C-9.11129902 19.14364812 -7.44534309 17.62842538 -5 16 C-5.20496094 16.74765625 -5.40992188 17.4953125 -5.62109375 18.265625 C-5.89050781 19.25046875 -6.15992187 20.2353125 -6.4375 21.25 C-6.70433594 22.22453125 -6.97117187 23.1990625 -7.24609375 24.203125 C-7.85544584 26.46372653 -8.44238255 28.72622009 -9 31 C-8.01 29.35 -7.02 27.7 -6 26 C-5.505 26.99 -5.505 26.99 -5 28 C-5.93446535 30.03144641 -6.93224776 32.03533587 -8 34 C-4.04 34 -0.08 34 4 34 C3.34 31.69 2.68 29.38 2 27 C2.66 27.33 3.32 27.66 4 28 C4.99 30.97 5.98 33.94 7 37 C15.25 37 23.5 37 32 37 C30.02 36.67 28.04 36.34 26 36 C25.67 35.34 25.34 34.68 25 34 C24.505 34.99 24.505 34.99 24 36 C18.72 36 13.44 36 8 36 C7.50628906 34.65164062 7.01257812 33.30328125 6.50390625 31.9140625 C5.85683187 30.15101926 5.20969312 28.38799965 4.5625 26.625 C4.23701172 25.73554687 3.91152344 24.84609375 3.57617188 23.9296875 C3.10727539 22.65351562 3.10727539 22.65351562 2.62890625 21.3515625 C2.34088135 20.56604004 2.05285645 19.78051758 1.75610352 18.97119141 C1.02389295 16.96676515 1.02389295 16.96676515 0 15 C-0.0716735 12.44842345 -0.09308442 9.92527029 -0.0625 7.375 C-0.05798828 6.66859375 -0.05347656 5.9621875 -0.04882812 5.234375 C-0.03703875 3.48954725 -0.01910324 1.744763 0 0 Z M-9 21 C-10.50282173 23.14390639 -12.00235797 25.28998027 -13.5 27.4375 C-13.92925781 28.04916016 -14.35851562 28.66082031 -14.80078125 29.29101562 C-17.01284992 31.9191814 -17.01284992 31.9191814 -18 35 C-16.35 35 -14.7 35 -13 35 C-12.13644222 33.04578965 -11.28440066 31.08648653 -10.4375 29.125 C-9.96183594 28.03445312 -9.48617187 26.94390625 -8.99609375 25.8203125 C-8.66738281 24.88960937 -8.33867188 23.95890625 -8 23 C-8.33 22.34 -8.66 21.68 -9 21 Z M5 22 C5.45196245 23.60597325 5.91182327 25.20972508 6.375 26.8125 C6.63023438 27.70582031 6.88546875 28.59914063 7.1484375 29.51953125 C7.95266661 32.20467896 7.95266661 32.20467896 10 35 C11.32 34.67 12.64 34.34 14 34 C12.69161864 31.997193 11.37857806 29.99773901 10.0625 28 C9.68931641 27.42765625 9.31613281 26.8553125 8.93164062 26.265625 C7.98055411 24.82614271 6.99305724 23.41085511 6 22 C5.67 22 5.34 22 5 22 Z " fill="#413B33" transform="translate(46,26)"/>
<path d="M0 0 C0.66 0.33 1.32 0.66 2 1 C1.91298828 2.77503906 1.91298828 2.77503906 1.82421875 4.5859375 C1.39801203 16.19868094 1.39801203 16.19868094 5.6875 26.8203125 C8.27206153 31.11253075 10 35.98380892 10 41 C15.28 41 20.56 41 26 41 C26.33 40.01 26.66 39.02 27 38 C27.33 38.99 27.66 39.98 28 41 C28.99 41 29.98 41 31 41 C31.33 39.68 31.66 38.36 32 37 C32 38.32 32 39.64 32 41 C33.485 41.495 33.485 41.495 35 42 C35 42.33 35 42.66 35 43 C12.23 43 -10.54 43 -34 43 C-34 42.67 -34 42.34 -34 42 C-26.08 42 -18.16 42 -10 42 C-9.67 41.34 -9.34 40.68 -9 40 C-9 40.66 -9 41.32 -9 42 C-3.06 42 2.88 42 9 42 C8.236875 40.515 7.47375 39.03 6.6875 37.5 C5.01649113 34.19093172 3.56596586 30.94670957 2.375 27.4375 C1.92125 26.303125 1.4675 25.16875 1 24 C0.01 23.67 -0.98 23.34 -2 23 C-2.05789006 19.54173658 -2.09355821 16.08359707 -2.125 12.625 C-2.15013672 11.14773437 -2.15013672 11.14773437 -2.17578125 9.640625 C-2.18222656 8.69960938 -2.18867187 7.75859375 -2.1953125 6.7890625 C-2.20578613 5.91975098 -2.21625977 5.05043945 -2.22705078 4.15478516 C-2 2 -2 2 0 0 Z " fill="#D6C4AB" transform="translate(44,21)"/>
<path d="M0 0 C0.66 0 1.32 0 2 0 C1.67 3.96 1.34 7.92 1 12 C2.32 12.66 3.64 13.32 5 14 C10.75405636 20.04120697 16 26.38714274 16 35 C18.475 34.505 18.475 34.505 21 34 C21 33.01 21 32.02 21 31 C21.33 31.33 21.66 31.66 22 32 C22 30.35 22 28.7 22 27 C23.70840281 28.63412443 24.93453047 29.86906094 26 32 C26.66 30.68 27.32 29.36 28 28 C28.66 28.33 29.32 28.66 30 29 C29.01 32.465 29.01 32.465 28 36 C27.34 36 26.68 36 26 36 C25.67 35.34 25.34 34.68 25 34 C24.67 34.66 24.34 35.32 24 36 C18.72 36 13.44 36 8 36 C7.50628906 34.65164062 7.01257812 33.30328125 6.50390625 31.9140625 C5.85683187 30.15101926 5.20969312 28.38799965 4.5625 26.625 C4.23701172 25.73554687 3.91152344 24.84609375 3.57617188 23.9296875 C3.26357422 23.07890625 2.95097656 22.228125 2.62890625 21.3515625 C2.34088135 20.56604004 2.05285645 19.78051758 1.75610352 18.97119141 C1.02389295 16.96676515 1.02389295 16.96676515 0 15 C-0.0716735 12.44842345 -0.09308442 9.92527029 -0.0625 7.375 C-0.05798828 6.66859375 -0.05347656 5.9621875 -0.04882812 5.234375 C-0.03703875 3.48954725 -0.01910324 1.744763 0 0 Z M5 22 C5.45196245 23.60597325 5.91182327 25.20972508 6.375 26.8125 C6.63023438 27.70582031 6.88546875 28.59914063 7.1484375 29.51953125 C7.95266661 32.20467896 7.95266661 32.20467896 10 35 C11.32 34.67 12.64 34.34 14 34 C12.69161864 31.997193 11.37857806 29.99773901 10.0625 28 C9.68931641 27.42765625 9.31613281 26.8553125 8.93164062 26.265625 C7.98055411 24.82614271 6.99305724 23.41085511 6 22 C5.67 22 5.34 22 5 22 Z " fill="#453E35" transform="translate(46,26)"/>
<path d="M0 0 C2.37349334 2.21010543 4.06667885 4.48789996 5.77734375 7.23828125 C6.29103516 8.05876953 6.80472656 8.87925781 7.33398438 9.72460938 C7.86314453 10.57861328 8.39230469 11.43261719 8.9375 12.3125 C9.98759701 13.99652061 11.03836382 15.68012377 12.08984375 17.36328125 C12.58693848 18.16378906 13.0840332 18.96429688 13.59619141 19.7890625 C14.7948675 21.67692522 16.04353161 23.50535612 17.33203125 25.33203125 C19.64978684 29.0393546 19.70319737 31.69636182 20 36 C14.48303609 33.55134754 12.39369257 29.32580211 9.5 24.3125 C8.57326986 22.74588476 7.64618874 21.1794771 6.71875 19.61328125 C6.27273437 18.84709473 5.82671875 18.0809082 5.3671875 17.29150391 C3.6052976 14.33845058 1.71785725 11.47358253 -0.19726562 8.61791992 C-0.46216797 8.08400635 -0.72707031 7.55009277 -1 7 C-0.67 6.34 -0.34 5.68 0 5 C0.33 5.33 0.66 5.66 1 6 C1.33 5.34 1.66 4.68 2 4 C1.34 4 0.68 4 0 4 C0 2.68 0 1.36 0 0 Z " fill="#9E8E7D" transform="translate(49,23)"/>
<path d="M0 0 C0.33 0.66 0.66 1.32 1 2 C0.01196289 3.97119141 0.01196289 3.97119141 -1.52734375 6.3515625 C-2.07197266 7.20234375 -2.61660156 8.053125 -3.17773438 8.9296875 C-4.04881836 10.26386719 -4.04881836 10.26386719 -4.9375 11.625 C-5.51435547 12.5221875 -6.09121094 13.419375 -6.68554688 14.34375 C-8.11660783 16.56721661 -9.5549815 18.78558887 -11 21 C-10.01 21.33 -9.02 21.66 -8 22 C-7.896875 21.4225 -7.79375 20.845 -7.6875 20.25 C-6.90207202 17.67950842 -5.69495803 16.06342716 -4 14 C-3.67 14.66 -3.34 15.32 -3 16 C-2.54109375 15.31292969 -2.0821875 14.62585937 -1.609375 13.91796875 C-0.99578125 13.01691406 -0.3821875 12.11585937 0.25 11.1875 C0.85328125 10.29417969 1.4565625 9.40085937 2.078125 8.48046875 C3.88870098 6.14364812 5.55465691 4.62842538 8 3 C7.34 5.31 6.68 7.62 6 10 C5.34 9.67 4.68 9.34 4 9 C0.04 14.94 0.04 14.94 -4 21 C-2.68 21.66 -1.36 22.32 0 23 C-4.62 23 -9.24 23 -14 23 C-13.67 21.68 -13.34 20.36 -13 19 C-14.98 19.99 -14.98 19.99 -17 21 C-15.50163895 17.88801935 -13.80066242 14.9465385 -12 12 C-11.01 13.485 -11.01 13.485 -10 15 C-6.7 10.05 -3.4 5.1 0 0 Z " fill="#443D35" transform="translate(33,39)"/>
<path d="M0 0 C0 1.32 0 2.64 0 4 C0.61875 4.0825 1.2375 4.165 1.875 4.25 C4 5 4 5 5.3125 6.8125 C6.10151327 9.32299678 5.87324262 10.55492066 5 13 C3.5393715 10.35261084 3 9.10551666 3 6 C2.34 6 1.68 6 1 6 C0.8453125 7.3921875 0.8453125 7.3921875 0.6875 8.8125 C-0.04746414 12.22006102 -0.51102506 12.79821448 -3 15 C-4.03357147 16.64605826 -5.04060332 18.30963442 -6 20 C-7 18 -7 18 -6.00390625 14.5234375 C-5.53099953 13.13802064 -5.05018356 11.75528453 -4.5625 10.375 C-4.31951172 9.66859375 -4.07652344 8.9621875 -3.82617188 8.234375 C-3.22412795 6.48726713 -2.61291983 4.74332214 -2 3 C-4.97591195 6.3528608 -7.87377427 9.66692406 -10.3125 13.4375 C-10.869375 14.283125 -11.42625 15.12875 -12 16 C-12.33 16 -12.66 16 -13 16 C-13.31968208 11.92227743 -12.74491498 10.04843465 -10.1875 6.875 C-9.40439453 5.88113281 -9.40439453 5.88113281 -8.60546875 4.8671875 C-8.07566406 4.25101563 -7.54585937 3.63484375 -7 3 C-6.52175781 2.42507812 -6.04351562 1.85015625 -5.55078125 1.2578125 C-4 0 -4 0 0 0 Z " fill="#928574" transform="translate(42,40)"/>
<path d="M0 0 C0.87840996 3.09720845 0.99435406 4.90645403 0 8 C0.99 6.35 1.98 4.7 3 3 C3.33 3.66 3.66 4.32 4 5 C3.06553465 7.03144641 2.06775224 9.03533587 1 11 C4.96 11 8.92 11 13 11 C12.34 8.69 11.68 6.38 11 4 C11.66 4.33 12.32 4.66 13 5 C13.99 7.97 14.98 10.94 16 14 C4.45 14 -7.1 14 -19 14 C-18.67 13.34 -18.34 12.68 -18 12 C-11.07 12.495 -11.07 12.495 -4 13 C-3.67 11.35 -3.34 9.7 -3 8 C-2.08842301 5.29360823 -1.03785029 2.66231161 0 0 Z " fill="#6D6255" transform="translate(37,49)"/>
<path d="M0 0 C0.66 0 1.32 0 2 0 C0.3410208 4.76257511 -2.20630361 8.81826127 -4.875 13.0625 C-5.30941406 13.76955078 -5.74382813 14.47660156 -6.19140625 15.20507812 C-8.49389886 18.88699198 -10.73567225 22.07728795 -14 25 C-14.86067163 19.4056344 -12.69865013 16.4119517 -9.5859375 12.03515625 C-7.87364096 9.8378496 -6.00130026 7.93459025 -4 6 C-2.948125 4.39125 -2.948125 4.39125 -1.875 2.75 C-1.25625 1.8425 -0.6375 0.935 0 0 Z " fill="#C9B7A0" transform="translate(36,30)"/>
<path d="M0 0 C2.00720923 0.28674418 4.0085944 0.61866701 6 1 C6 2.98 6 4.96 6 7 C7.65 6.34 9.3 5.68 11 5 C10.34 6.65 9.68 8.3 9 10 C6.36 10 3.72 10 1 10 C0.855625 9.2575 0.71125 8.515 0.5625 7.75 C0.21921582 6.07172178 -0.16651881 4.40053228 -0.625 2.75 C-0.74875 2.1725 -0.8725 1.595 -1 1 C-0.67 0.67 -0.34 0.34 0 0 Z " fill="#BFAE98" transform="translate(9,53)"/>
<path d="M0 0 C0.33 0.66 0.66 1.32 1 2 C-0.3451897 5.00827249 -2.22847782 7.72658867 -4 10.5 C-4.47050781 11.28503906 -4.94101562 12.07007813 -5.42578125 12.87890625 C-9.498039 19.27816842 -9.498039 19.27816842 -13.875 20.53125 C-14.90625 20.6859375 -15.9375 20.840625 -17 21 C-15.50163895 17.88801935 -13.80066242 14.9465385 -12 12 C-11.01 13.485 -11.01 13.485 -10 15 C-6.7 10.05 -3.4 5.1 0 0 Z " fill="#3F3830" transform="translate(33,39)"/>
<path d="M0 0 C1.32 0 2.64 0 4 0 C3.47731534 2.76276177 2.89130413 5.3260876 2 8 C2.66 8 3.32 8 4 8 C3.67 9.65 3.34 11.3 3 13 C1.35 12.67 -0.3 12.34 -2 12 C-0.68 11.34 0.64 10.68 2 10 C0.68 9.67 -0.64 9.34 -2 9 C-2.25 3.375 -2.25 3.375 0 0 Z " fill="#6B6053" transform="translate(76,53)"/>
<path d="M0 0 C0.99 0 1.98 0 3 0 C6.89748407 4.58527537 7.60025786 8.20373893 8 14 C4.31534095 10.71012585 2.22105818 7.36279286 0 3 C0 2.01 0 1.02 0 0 Z " fill="#A59582" transform="translate(61,45)"/>
<path d="M0 0 C0.103125 0.639375 0.20625 1.27875 0.3125 1.9375 C0.6528125 2.9584375 0.6528125 2.9584375 1 4 C1.99 4.33 2.98 4.66 4 5 C4 5.33 4 5.66 4 6 C-3.92 5.67 -11.84 5.34 -20 5 C-20 4.67 -20 4.34 -20 4 C-15.05 4 -10.1 4 -5 4 C-4.67 3.01 -4.34 2.02 -4 1 C-3.67 1.99 -3.34 2.98 -3 4 C-2.01 4 -1.02 4 0 4 C0 2.68 0 1.36 0 0 Z " fill="#C7B69F" transform="translate(75,58)"/>
<path d="M0 0 C2.72426311 2.35277269 3.8141763 4.62496331 5 8 C4.34 8 3.68 8 3 8 C3.30035156 8.55429687 3.60070313 9.10859375 3.91015625 9.6796875 C4.29042969 10.40414062 4.67070313 11.12859375 5.0625 11.875 C5.44535156 12.59429687 5.82820313 13.31359375 6.22265625 14.0546875 C6.47917969 14.69664063 6.73570313 15.33859375 7 16 C6.67 16.66 6.34 17.32 6 18 C3.05004453 14.54143152 0.77324262 11.19978515 -1 7 C-0.67 6.34 -0.34 5.68 0 5 C0.33 5.33 0.66 5.66 1 6 C1.33 5.34 1.66 4.68 2 4 C1.34 4 0.68 4 0 4 C0 2.68 0 1.36 0 0 Z " fill="#564C42" transform="translate(49,23)"/>
<path d="M0 0 C1.37562854 1.28965176 2.70766393 2.62689293 4 4 C4 4.66 4 5.32 4 6 C3.34 6 2.68 6 2 6 C2.37253906 6.69867188 2.74507812 7.39734375 3.12890625 8.1171875 C3.60199219 9.02726562 4.07507812 9.93734375 4.5625 10.875 C5.03816406 11.77992187 5.51382813 12.68484375 6.00390625 13.6171875 C6.49697266 14.79667969 6.49697266 14.79667969 7 16 C6.67 16.66 6.34 17.32 6 18 C4.4693001 15.71439353 2.95034956 13.42237333 1.4375 11.125 C0.78104492 10.14853516 0.78104492 10.14853516 0.11132812 9.15234375 C-0.98754836 7.47374503 -2.0007818 5.73976613 -3 4 C-2.67 3.34 -2.34 2.68 -2 2 C-1.01 3.485 -1.01 3.485 0 5 C0 3.35 0 1.7 0 0 Z " fill="#4D453C" transform="translate(59,39)"/>
<path d="M0 0 C7.48071749 4.65201794 7.48071749 4.65201794 8.75390625 7.95703125 C9 9.875 9 9.875 9 13 C5.48026899 9.74098981 2.47239725 6.1139069 0 2 C0 1.34 0 0.68 0 0 Z " fill="#B8A893" transform="translate(49,41)"/>
<path d="M0 0 C0.66 0 1.32 0 2 0 C0.6744419 3.62276315 -0.94346955 6.63505348 -3.125 9.8125 C-3.66382813 10.60269531 -4.20265625 11.39289062 -4.7578125 12.20703125 C-5.37269531 13.09455078 -5.37269531 13.09455078 -6 14 C-6.61328125 12.19921875 -6.61328125 12.19921875 -7 10 C-3.82191781 4.4109589 -3.82191781 4.4109589 -1 3 C-0.67 2.01 -0.34 1.02 0 0 Z " fill="#D0BDA6" transform="translate(29,41)"/>
<path d="M0 0 C1.32 0.33 2.64 0.66 4 1 C3.6875 3.375 3.6875 3.375 3 6 C2.01 6.66 1.02 7.32 0 8 C0 7.01 0 6.02 0 5 C-0.66 5 -1.32 5 -2 5 C-1.34 3.35 -0.68 1.7 0 0 Z " fill="#6A5F53" transform="translate(47,9)"/>
<path d="M0 0 C2.97 0.495 2.97 0.495 6 1 C6.33 3.64 6.66 6.28 7 9 C6.34 9 5.68 9 5 9 C4.67 7.02 4.34 5.04 4 3 C3.01 2.67 2.02 2.34 1 2 C1.33 3.32 1.66 4.64 2 6 C1.01 5.34 0.02 4.68 -1 4 C-0.67 2.68 -0.34 1.36 0 0 Z " fill="#3D372F" transform="translate(9,53)"/>
<path d="M0 0 C0.66 1.32 1.32 2.64 2 4 C-0.46153846 7.81538462 -0.46153846 7.81538462 -3.1875 8.75 C-4.0846875 8.87375 -4.0846875 8.87375 -5 9 C-3.50163895 5.88801935 -1.80066242 2.9465385 0 0 Z " fill="#7D7061" transform="translate(21,51)"/>
<path d="M0 0 C0.66 0 1.32 0 2 0 C1.67 3.96 1.34 7.92 1 12 C1.99 12.33 2.98 12.66 4 13 C3.01 13.495 3.01 13.495 2 14 C1.67 14.66 1.34 15.32 1 16 C0 15 0 15 -0.09765625 11.62109375 C-0.09098369 10.22652923 -0.07902532 8.83198257 -0.0625 7.4375 C-0.05798828 6.72658203 -0.05347656 6.01566406 -0.04882812 5.28320312 C-0.03700864 3.52209987 -0.01907263 1.76103964 0 0 Z " fill="#1F1B17" transform="translate(46,26)"/>
<path d="M0 0 C0.66 0.33 1.32 0.66 2 1 C2 1.66 2 2.32 2 3 C1.34 3 0.68 3 0 3 C0 7.29 0 11.58 0 16 C-0.33 16 -0.66 16 -1 16 C-1.22127098 13.70954632 -1.4266504 11.41755236 -1.625 9.125 C-1.74101563 7.84882813 -1.85703125 6.57265625 -1.9765625 5.2578125 C-1.98816406 3.64519531 -1.98816406 3.64519531 -2 2 C-1.34 1.34 -0.68 0.68 0 0 Z " fill="#BDAC98" transform="translate(44,21)"/>
<path d="M0 0 C2 1 2 1 3.1875 3.3125 C4.03624754 6.11989571 3.99928333 7.301935 3 10 C2.34 9.67 1.68 9.34 1 9 C0.5859375 6.93359375 0.5859375 6.93359375 0.375 4.4375 C0.30023438 3.61121094 0.22546875 2.78492188 0.1484375 1.93359375 C0.09945312 1.29550781 0.05046875 0.65742187 0 0 Z " fill="#5B5246" transform="translate(57,49)"/>
<path d="M0 0 C0.33 1.32 0.66 2.64 1 4 C0.01 4.33 -0.98 4.66 -2 5 C-2.70211894 6.65204456 -3.36971413 8.31923769 -4 10 C-4.99 10.495 -4.99 10.495 -6 11 C-4.54955729 6.89041233 -2.48889248 3.56741255 0 0 Z " fill="#534B41" transform="translate(28,40)"/>
</svg>
