<?xml version="1.0" encoding="UTF-8"?>
<svg version="1.1" xmlns="http://www.w3.org/2000/svg" width="77" height="91">
<path d="M0 0 C0 1.65 0 3.3 0 5 C7.92 5 15.84 5 24 5 C24.33 3.35 24.66 1.7 25 0 C31.625 -1.25 31.625 -1.25 35 1 C35 2.32 35 3.64 35 5 C36.8253125 4.87625 36.8253125 4.87625 38.6875 4.75 C41.68599192 4.54671241 42.9518707 4.97269311 45.609375 6.48046875 C48.41636875 9.43882001 48.56847113 11.24245899 48.56648254 15.24688721 C48.54067612 16.05744568 48.51486969 16.86800415 48.48828125 17.703125 C48.48120651 18.54091492 48.47413177 19.37870483 48.46684265 20.24188232 C48.43890066 22.91217147 48.37616613 25.58034708 48.3125 28.25 C48.28741671 30.06246967 48.26460359 31.87497228 48.24414062 33.6875 C48.18907504 38.12581171 48.10280667 42.56254781 48 47 C46.02 47.33 44.04 47.66 42 48 C42 35.79 42 23.58 42 11 C39.69 11 37.38 11 35 11 C34.896875 11.78375 34.79375 12.5675 34.6875 13.375 C34 16 34 16 31 18 C28.4375 17.8125 28.4375 17.8125 26 17 C24 14 24 14 24 11 C16.08 11 8.16 11 0 11 C0 12.65 0 14.3 0 16 C-3 18 -3 18 -6.125 17.6875 C-9 17 -9 17 -10 16 C-10.04063832 14.33382885 -10.042721 12.66611905 -10 11 C-12.31 11 -14.62 11 -17 11 C-16.67 29.48 -16.34 47.96 -16 67 C-3.46 67.33 9.08 67.66 22 68 C21 73 21 73 20 74 C17.47652459 74.1258401 14.98193301 74.18865555 12.45703125 74.203125 C11.69581467 74.20882507 10.93459808 74.21452515 10.15031433 74.22039795 C8.53373612 74.22986522 6.91713846 74.23638876 5.30053711 74.24023438 C2.83998193 74.24989213 0.38027907 74.28087778 -2.08007812 74.3125 C-3.65103671 74.31903476 -5.22200127 74.32428337 -6.79296875 74.328125 C-7.89018501 74.3466452 -7.89018501 74.3466452 -9.00956726 74.36553955 C-13.75091967 74.34512587 -16.99759058 73.55429961 -21 71 C-23.25867361 67.61198959 -23.26444695 66.39123935 -23.30639648 62.41455078 C-23.32238388 61.26971222 -23.33837128 60.12487366 -23.35484314 58.94534302 C-23.36020584 57.70783295 -23.36556854 56.47032288 -23.37109375 55.1953125 C-23.38012222 53.9240451 -23.3891507 52.65277771 -23.39845276 51.34298706 C-23.41297399 48.65120279 -23.42264172 45.95984348 -23.42553711 43.26806641 C-23.43091891 39.8255433 -23.46858946 36.38419483 -23.51428127 32.94200325 C-23.55125046 29.65150954 -23.55256802 26.360986 -23.55859375 23.0703125 C-23.57812607 21.83685089 -23.59765839 20.60338928 -23.61778259 19.33255005 C-23.56753454 9.81539444 -23.56753454 9.81539444 -20.60498047 6.71362305 C-16.69516927 4.14164884 -14.56894703 4.6128011 -10 5 C-9.87625 4.195625 -9.7525 3.39125 -9.625 2.5625 C-9.41875 1.716875 -9.2125 0.87125 -9 0 C-5.93109813 -1.53445094 -3.29905734 -0.54984289 0 0 Z M-5 4 C-5 6.64 -5 9.28 -5 12 C-4.67 12 -4.34 12 -4 12 C-4 9.36 -4 6.72 -4 4 C-4.33 4 -4.66 4 -5 4 Z M29 4 C29 6.64 29 9.28 29 12 C29.33 12 29.66 12 30 12 C30 9.36 30 6.72 30 4 C29.67 4 29.34 4 29 4 Z " fill="#766C5F" transform="translate(28,8)"/>
<path d="M0 0 C2.475 0.495 2.475 0.495 5 1 C5.40761112 28.26465487 5.40761112 28.26465487 0 34 C-4.19570596 36.09785298 -9.44220784 35.54766528 -14 35 C-17.36873409 32.57451146 -19.67885629 29.96343114 -21 26 C-21.17059125 23.27054 -21.26458179 20.89877021 -20.48828125 18.26171875 C-19.80322819 15.08855296 -19.946264 12.0534525 -20 8.8125 C-20.03741339 6.54197489 -20.04699295 4.27034704 -20 2 C-19 1 -19 1 -16.5625 0.75 C-15.2940625 0.87375 -15.2940625 0.87375 -14 1 C-11.70986347 4.4352048 -11.82157027 5.985331 -12 10 C-9.03 10 -6.06 10 -3 10 C-3.061875 9.0925 -3.12375 8.185 -3.1875 7.25 C-2.98327924 3.71017358 -2.35448165 2.55068845 0 0 Z M-6 15 C-5 18 -5 18 -5 18 Z M-16 21 C-16.38428348 25.2109755 -16.38428348 25.2109755 -14.625 28.875 C-13.05533986 30.18973666 -13.05533986 30.18973666 -11 30 C-11.33 28.35 -11.66 26.7 -12 25 C-12.99 24.67 -13.98 24.34 -15 24 C-15.33 23.01 -15.66 22.02 -16 21 Z M-6 26 C-6 27.32 -6 28.64 -6 30 C-4.68 29.67 -3.36 29.34 -2 29 C-1.67 27.35 -1.34 25.7 -1 24 C-3.32357511 23.81509993 -3.32357511 23.81509993 -6 26 Z " fill="#4A433B" transform="translate(48,33)"/>
<path d="M0 0 C2.01822917 0.06510417 4.03645833 0.13020833 6.0546875 0.1953125 C6.0546875 0.8553125 6.0546875 1.5153125 6.0546875 2.1953125 C3.7446875 2.8553125 1.4346875 3.5153125 -0.9453125 4.1953125 C-1.2753125 22.6753125 -1.6053125 41.1553125 -1.9453125 60.1953125 C18.3496875 60.6903125 18.3496875 60.6903125 39.0546875 61.1953125 C38.0546875 66.1953125 38.0546875 66.1953125 37.0546875 67.1953125 C34.4961447 67.29628254 31.96519234 67.33502223 29.40625 67.328125 C28.25375259 67.32956009 28.25375259 67.32956009 27.07797241 67.33102417 C25.44879067 67.33170607 23.81960624 67.32985111 22.19042969 67.32568359 C19.69720326 67.32034997 17.20415818 67.32562067 14.7109375 67.33203125 C13.13020794 67.33137018 11.54947848 67.33008843 9.96875 67.328125 C8.84830795 67.33116135 8.84830795 67.33116135 7.70523071 67.33425903 C4.55277217 67.3200077 2.0681255 67.19979183 -0.9453125 66.1953125 C-4.06332477 63.02552728 -4.32023798 60.62488705 -4.31762695 56.26513672 C-4.32385574 55.07064911 -4.33008453 53.8761615 -4.33650208 52.64547729 C-4.32729233 51.35996979 -4.31808258 50.07446228 -4.30859375 48.75 C-4.30807493 47.41529338 -4.30859349 46.08058599 -4.31010437 44.74588013 C-4.31001479 41.95335432 -4.29961176 39.16111807 -4.28149414 36.36865234 C-4.25876309 32.78611602 -4.25827217 29.20400094 -4.26501179 25.62141228 C-4.26915127 22.20589318 -4.25718618 18.79050455 -4.24609375 15.375 C-4.24700516 14.08544403 -4.24791656 12.79588806 -4.24885559 11.46725464 C-4.23932358 10.27907135 -4.22979156 9.09088806 -4.2199707 7.86669922 C-4.21536331 6.81731171 -4.21075592 5.76792419 -4.20600891 4.68673706 C-3.88474253 1.61645719 -3.20278949 0.32156521 0 0 Z " fill="#938675" transform="translate(10.9453125,14.8046875)"/>
<path d="M0 0 C-0.51772978 3.95071566 -1.39349138 5.88867645 -4.23828125 8.6640625 C-4.89376953 9.31117187 -5.54925781 9.95828125 -6.22460938 10.625 C-7.25811523 11.615 -7.25811523 11.615 -8.3125 12.625 C-8.98990234 13.29273437 -9.66730469 13.96046875 -10.36523438 14.6484375 C-16.61146953 20.75423922 -16.61146953 20.75423922 -20 23 C-22.25 22.6875 -22.25 22.6875 -24 22 C-23.91249445 19.77011716 -23.80430939 17.54103995 -23.6875 15.3125 C-23.62949219 14.07113281 -23.57148437 12.82976562 -23.51171875 11.55078125 C-22.8431149 6.9113851 -21.27790744 4.27790744 -18 1 C-12.03539314 -0.26906529 -6.0749086 -0.09886831 0 0 Z M-16 6 C-16.33 7.98 -16.66 9.96 -17 12 C-16.01 11.67 -15.02 11.34 -14 11 C-14 10.34 -14 9.68 -14 9 C-13.01 8.67 -12.02 8.34 -11 8 C-11.66 7.34 -12.32 6.68 -13 6 C-13.99 6 -14.98 6 -16 6 Z " fill="#C3B29D" transform="translate(77,59)"/>
<path d="M0 0 C2.31 0 4.62 0 7 0 C7.33 1.65 7.66 3.3 8 5 C8.92232422 4.94779297 8.92232422 4.94779297 9.86328125 4.89453125 C10.67152344 4.86746094 11.47976562 4.84039063 12.3125 4.8125 C13.51326172 4.76029297 13.51326172 4.76029297 14.73828125 4.70703125 C17 5 17 5 18.62304688 5.99414062 C20.81950671 9.19380622 20.36595846 12.64458987 20.29296875 16.38671875 C20.28872391 17.20372757 20.28447906 18.02073639 20.28010559 18.86250305 C20.26331691 21.47117107 20.22566519 24.07906562 20.1875 26.6875 C20.17245337 28.45636905 20.15876492 30.22525021 20.14648438 31.99414062 C20.11341286 36.32972496 20.0616299 40.66473136 20 45 C19.01 45 18.02 45 17 45 C17 33.12 17 21.24 17 9 C13.7 9 10.4 9 7 9 C7 10.65 7 12.3 7 14 C6 15 6 15 3.5 15.125 C1 15 1 15 0 14 C-0.07271741 11.64686445 -0.08370868 9.29166332 -0.0625 6.9375 C-0.05347656 5.64714844 -0.04445312 4.35679688 -0.03515625 3.02734375 C-0.02355469 2.02832031 -0.01195312 1.02929688 0 0 Z M3 3 C3 5.64 3 8.28 3 11 C3.33 11 3.66 11 4 11 C4 8.36 4 5.72 4 3 C3.67 3 3.34 3 3 3 Z " fill="#C5B4A0" transform="translate(54,9)"/>
<path d="M0 0 C0.66 0 1.32 0 2 0 C2.11656783 4.20809884 2.18737611 8.41577996 2.25 12.625 C2.30027344 14.40970703 2.30027344 14.40970703 2.3515625 16.23046875 C2.4622231 26.13459256 2.4622231 26.13459256 0.40625 29.8125 C-2 32 -2 32 -5.234375 32.5859375 C-6.39453125 32.51632813 -7.5546875 32.44671875 -8.75 32.375 C-10.50570312 32.29378906 -10.50570312 32.29378906 -12.296875 32.2109375 C-13.18890625 32.14132813 -14.0809375 32.07171875 -15 32 C-15 31.67 -15 31.34 -15 31 C-14.24074219 30.97421875 -13.48148438 30.9484375 -12.69921875 30.921875 C-11.70535156 30.86515625 -10.71148437 30.8084375 -9.6875 30.75 C-8.70136719 30.70359375 -7.71523438 30.6571875 -6.69921875 30.609375 C-3.90019411 30.23718168 -3.90019411 30.23718168 -2.20703125 28.140625 C-0.87065296 25.92946953 -0.87065296 25.92946953 0 23 C-0.7425 23.33 -1.485 23.66 -2.25 24 C-5 25 -5 25 -9 25 C-9.33 26.32 -9.66 27.64 -10 29 C-14 22.25 -14 22.25 -14 20 C-12.68 20.33 -11.36 20.66 -10 21 C-10.33 21.66 -10.66 22.32 -11 23 C-10.01 22.67 -9.02 22.34 -8 22 C-8 21.01 -8 20.02 -8 19 C-7.01 19 -6.02 19 -5 19 C-5 16.69 -5 14.38 -5 12 C-5.99 12 -6.98 12 -8 12 C-8.33 12.99 -8.66 13.98 -9 15 C-9 14.01 -9 13.02 -9 12 C-9.99 12.33 -10.98 12.66 -12 13 C-12.73323796 15.01508358 -12.73323796 15.01508358 -13 17 C-13.66 17 -14.32 17 -15 17 C-15.66 12.71 -16.32 8.42 -17 4 C-16.90460937 4.98742188 -16.80921875 5.97484375 -16.7109375 6.9921875 C-16.60007813 8.27351563 -16.48921875 9.55484375 -16.375 10.875 C-16.25898437 12.15117188 -16.14296875 13.42734375 -16.0234375 14.7421875 C-16.01570313 15.81726563 -16.00796875 16.89234375 -16 18 C-16.66 18.66 -17.32 19.32 -18 20 C-18.16677282 23.58343976 -18.16677282 23.58343976 -18 27 C-18.66 26.67 -19.32 26.34 -20 26 C-20 18.08 -20 10.16 -20 2 C-18.68 1.67 -17.36 1.34 -16 1 C-15.01 3.97 -14.02 6.94 -13 10 C-9.7 10.33 -6.4 10.66 -3 11 C-3 13.97 -3 16.94 -3 20 C-2.34 20 -1.68 20 -1 20 C-1.0309375 18.2984375 -1.0309375 18.2984375 -1.0625 16.5625 C-1.0706759 11.99217245 -0.58691336 7.52761738 0 3 C-0.66 5.31 -1.32 7.62 -2 10 C-2.33 10 -2.66 10 -3 10 C-2.25 2.25 -2.25 2.25 0 0 Z " fill="#D9CBB7" transform="translate(49,34)"/>
<path d="M0 0 C3.875 1.875 3.875 1.875 5 3 C5.08861992 5.8116338 5.11522355 8.59858255 5.09765625 11.41015625 C5.0962413 12.25219101 5.09482635 13.09422577 5.09336853 13.96177673 C5.08775263 16.66205335 5.07519748 19.36224828 5.0625 22.0625 C5.05748705 23.88867068 5.05292379 25.71484266 5.04882812 27.54101562 C5.03777804 32.02737542 5.02050279 36.51367384 5 41 C2.03 41.495 2.03 41.495 -1 42 C-1 29.79 -1 17.58 -1 5 C-3.31 5 -5.62 5 -8 5 C-8.103125 5.78375 -8.20625 6.5675 -8.3125 7.375 C-9 10 -9 10 -12 12 C-14.5625 11.8125 -14.5625 11.8125 -17 11 C-19 8 -19 8 -19 5 C-26.92 5 -34.84 5 -43 5 C-43 6.65 -43 8.3 -43 10 C-46 12 -46 12 -49.125 11.6875 C-52 11 -52 11 -53 10 C-53.04063832 8.33382885 -53.042721 6.66611905 -53 5 C-54.98 5 -56.96 5 -59 5 C-59 4.67 -59 4.34 -59 4 C-56.69 4 -54.38 4 -52 4 C-51.67 5.65 -51.34 7.3 -51 9 C-49.02 9 -47.04 9 -45 9 C-44.67 7.02 -44.34 5.04 -44 3 C-35.42 3 -26.84 3 -18 3 C-17.34 4.98 -16.68 6.96 -16 9 C-14.35 9 -12.7 9 -11 9 C-10.67 7.35 -10.34 5.7 -10 4 C-6.7 4 -3.4 4 0 4 C0 15.88 0 27.76 0 40 C0.99 40 1.98 40 3 40 C2.90647883 34.78524441 2.80038822 29.57095386 2.68261719 24.35668945 C2.64432321 22.58267229 2.60947105 20.80857736 2.578125 19.03442383 C2.53248328 16.48490601 2.47448815 13.9359237 2.4140625 11.38671875 C2.40251129 10.59287277 2.39096008 9.79902679 2.37905884 8.98112488 C2.27644615 5.15676092 2.16935934 3.25403901 0 0 Z " fill="#423C35" transform="translate(71,14)"/>
<path d="M0 0 C0.66 0.33 1.32 0.66 2 1 C3.29930238 5.28769786 3.07516774 9.56510345 3 14 C3.66 14 4.32 14 5 14 C5.33 12.35 5.66 10.7 6 9 C8.31 9 10.62 9 13 9 C13 11.31 13 13.62 13 16 C12.34 16.33 11.68 16.66 11 17 C10.67 17.99 10.34 18.98 10 20 C9.01 20 8.02 20 7 20 C7 19.34 7 18.68 7 18 C6.01 17.67 5.02 17.34 4 17 C5.98 19.97 5.98 19.97 8 23 C8.99 22.67 9.98 22.34 11 22 C11 23.32 11 24.64 11 26 C13.0162233 25.28436734 13.0162233 25.28436734 15 24 C15.80528889 21.94999129 15.80528889 21.94999129 16 20 C16.66 20 17.32 20 18 20 C17.65397498 22.56058517 17.35714479 24.49806678 15.84375 26.625 C13.22222765 28.58003362 11.04615674 28.51364749 7.8125 28.6875 C6.18248047 28.78611328 6.18248047 28.78611328 4.51953125 28.88671875 C3.68808594 28.92410156 2.85664062 28.96148437 2 29 C-0.78324918 24.72598675 -1.47699978 22.15159764 -1 17 C-0.01 15.515 -0.01 15.515 1 14 C1.2502157 10.91634129 1.2502157 10.91634129 1 8 C0.67 7.67 0.34 7.34 0 7 C-0.04092937 4.66702567 -0.04241723 2.33294775 0 0 Z M11 11 C12 14 12 14 12 14 Z M1 17 C0.61571652 21.2109755 0.61571652 21.2109755 2.375 24.875 C3.94466014 26.18973666 3.94466014 26.18973666 6 26 C5.67 24.35 5.34 22.7 5 21 C4.01 20.67 3.02 20.34 2 20 C1.67 19.01 1.34 18.02 1 17 Z " fill="#716659" transform="translate(31,37)"/>
<path d="M0 0 C0.33 0.66 0.66 1.32 1 2 C13.21 2 25.42 2 38 2 C38 2.99 38 3.98 38 5 C25.46 5 12.92 5 0 5 C0 3.35 0 1.7 0 0 Z " fill="#D3BEA4" transform="translate(10,75)"/>
<path d="M0 0 C0.66 0 1.32 0 2 0 C2.11656783 4.20809884 2.18737611 8.41577996 2.25 12.625 C2.30027344 14.40970703 2.30027344 14.40970703 2.3515625 16.23046875 C2.4622231 26.13459256 2.4622231 26.13459256 0.40625 29.8125 C-2 32 -2 32 -5.234375 32.5859375 C-6.39453125 32.51632813 -7.5546875 32.44671875 -8.75 32.375 C-10.50570312 32.29378906 -10.50570312 32.29378906 -12.296875 32.2109375 C-13.18890625 32.14132813 -14.0809375 32.07171875 -15 32 C-15 31.67 -15 31.34 -15 31 C-14.24074219 30.97421875 -13.48148438 30.9484375 -12.69921875 30.921875 C-11.70535156 30.86515625 -10.71148437 30.8084375 -9.6875 30.75 C-8.70136719 30.70359375 -7.71523438 30.6571875 -6.69921875 30.609375 C-3.90019411 30.23718168 -3.90019411 30.23718168 -2.20703125 28.140625 C-0.87065296 25.92946953 -0.87065296 25.92946953 0 23 C-2.31 23.66 -4.62 24.32 -7 25 C-6.25 23.0625 -6.25 23.0625 -5 21 C-2.875 20.25 -2.875 20.25 -1 20 C-1.020625 18.865625 -1.04125 17.73125 -1.0625 16.5625 C-1.0706759 11.99217245 -0.58691336 7.52761738 0 3 C-0.66 5.31 -1.32 7.62 -2 10 C-2.33 10 -2.66 10 -3 10 C-2.25 2.25 -2.25 2.25 0 0 Z " fill="#B8AB98" transform="translate(49,34)"/>
<path d="M0 0 C0.99 0.495 0.99 0.495 2 1 C3.29930238 5.28769786 3.07516774 9.56510345 3 14 C3.66 14 4.32 14 5 14 C5.33 12.35 5.66 10.7 6 9 C8.31 9 10.62 9 13 9 C13 11.31 13 13.62 13 16 C12.34 16.33 11.68 16.66 11 17 C10.67 17.99 10.34 18.98 10 20 C9.01 20 8.02 20 7 20 C7.33 18.35 7.66 16.7 8 15 C6.5459375 15.0309375 6.5459375 15.0309375 5.0625 15.0625 C2 15 2 15 1 14 C1 12 1 10 1 8 C0.67 7.67 0.34 7.34 0 7 C-0.04092937 4.66702567 -0.04241723 2.33294775 0 0 Z M11 11 C12 14 12 14 12 14 Z " fill="#74695B" transform="translate(31,37)"/>
<path d="M0 0 C-0.7421875 4.7734375 -0.7421875 4.7734375 -3.0625 6.8125 C-3.701875 7.204375 -4.34125 7.59625 -5 8 C-3.79618552 5.50638429 -2.54571278 3.31856917 -1 1 C-3.60662244 1.25496307 -6.20905522 1.52820293 -8.8125 1.8125 C-9.55048828 1.88275391 -10.28847656 1.95300781 -11.04882812 2.02539062 C-13.90631007 2.34863519 -16.41042931 2.66717783 -18.9375 4.09375 C-20.6176129 7.10807021 -20.84400599 10.312435 -21.1875 13.6875 C-21.26935547 14.38939453 -21.35121094 15.09128906 -21.43554688 15.81445312 C-21.63529273 17.54166726 -21.81919988 19.27070003 -22 21 C-21.01 21.33 -20.02 21.66 -19 22 C-20.32 22.33 -21.64 22.66 -23 23 C-24.0618395 18.91306378 -23.9160699 15.60454658 -23.3125 11.4375 C-23.16425781 10.32246094 -23.01601563 9.20742187 -22.86328125 8.05859375 C-21.88153838 4.58029208 -20.82668422 3.20376677 -18 1 C-12.12342716 -0.4391607 -6.01825391 -0.09794627 0 0 Z " fill="#3D3730" transform="translate(77,59)"/>
<path d="M0 0 C0.99 0.33 1.98 0.66 3 1 C2.01 1.66 1.02 2.32 0 3 C0 3.33 0 3.66 0 4 C0.66 3.67 1.32 3.34 2 3 C2.27560214 9.20104812 1.22899346 14.93184478 0 21 C-0.66 21 -1.32 21 -2 21 C-2 18.03 -2 15.06 -2 12 C-5.3 12 -8.6 12 -12 12 C-12 11.67 -12 11.34 -12 11 C-9.03 11 -6.06 11 -3 11 C-3.061875 9.9275 -3.12375 8.855 -3.1875 7.75 C-2.99456691 3.89133813 -2.60334924 2.71182212 0 0 Z " fill="#595147" transform="translate(48,33)"/>
<path d="M0 0 C-1.98 0.99 -1.98 0.99 -4 2 C-4 2.99 -4 3.98 -4 5 C-3.01 5.33 -2.02 5.66 -1 6 C-3.31 8.31 -5.62 10.62 -8 13 C-8.33 11.68 -8.66 10.36 -9 9 C-7.68 8.01 -6.36 7.02 -5 6 C-5.5775 6.28875 -6.155 6.5775 -6.75 6.875 C-8.83333333 7.91666667 -10.91666667 8.95833333 -13 10 C-12.85950482 8.52031676 -12.71245174 7.04125484 -12.5625 5.5625 C-12.48128906 4.73878906 -12.40007813 3.91507812 -12.31640625 3.06640625 C-12 1 -12 1 -11 0 C-3.58695652 -1.19565217 -3.58695652 -1.19565217 0 0 Z M-10 1 C-10.33 2.98 -10.66 4.96 -11 7 C-10.01 6.67 -9.02 6.34 -8 6 C-8 5.34 -8 4.68 -8 4 C-7.01 3.67 -6.02 3.34 -5 3 C-5.66 2.34 -6.32 1.68 -7 1 C-7.99 1 -8.98 1 -10 1 Z " fill="#564D43" transform="translate(71,64)"/>
<path d="M0 0 C-0.64669414 1.34313399 -1.31903578 2.67391178 -2 4 C-2.45375 4.9075 -2.9075 5.815 -3.375 6.75 C-3.91125 7.4925 -4.4475 8.235 -5 9 C-6.32 9 -7.64 9 -9 9 C-9 8.01 -9 7.02 -9 6 C-8.01 5.34 -7.02 4.68 -6 4 C-7.98 4 -9.96 4 -12 4 C-12 3.34 -12 2.68 -12 2 C-13.32 1.67 -14.64 1.34 -16 1 C-10.59255982 0.22750855 -5.46137814 -0.09752461 0 0 Z " fill="#B8A68E" transform="translate(76,60)"/>
<path d="M0 0 C8.91 0 17.82 0 27 0 C26.67 1.32 26.34 2.64 26 4 C17.75 3.67 9.5 3.34 1 3 C0.67 2.01 0.34 1.02 0 0 Z " fill="#CEBCA5" transform="translate(27,14)"/>
<path d="M0 0 C0.33 0.66 0.66 1.32 1 2 C12.88 2 24.76 2 37 2 C37 2.33 37 2.66 37 3 C26.44 3 15.88 3 5 3 C5 3.66 5 4.32 5 5 C3.35 5 1.7 5 0 5 C0 3.35 0 1.7 0 0 Z " fill="#BFAD97" transform="translate(10,75)"/>
<path d="M0 0 C1.76462683 3.08809695 2 4.23312136 2 8 C1.34 8 0.68 8 0 8 C-0.66 9.32 -1.32 10.64 -2 12 C-2.66 12 -3.32 12 -4 12 C-4.33 13.32 -4.66 14.64 -5 16 C-9 9.25 -9 9.25 -9 7 C-7.68 7.33 -6.36 7.66 -5 8 C-5.33 8.66 -5.66 9.32 -6 10 C-5.01 9.67 -4.02 9.34 -3 9 C-3 8.01 -3 7.02 -3 6 C-2.01 6 -1.02 6 0 6 C0 4.02 0 2.04 0 0 Z " fill="#CFC0AA" transform="translate(44,47)"/>
<path d="M0 0 C1.670625 0.061875 1.670625 0.061875 3.375 0.125 C3.375 0.785 3.375 1.445 3.375 2.125 C2.055 2.125 0.735 2.125 -0.625 2.125 C0.035 3.775 0.695 5.425 1.375 7.125 C0.055 6.465 -1.265 5.805 -2.625 5.125 C-3.285 6.115 -3.945 7.105 -4.625 8.125 C-5.625 7.125 -5.625 7.125 -5.8125 4.6875 C-5.49798355 0.38910851 -4.1611078 0.14348648 0 0 Z " fill="#4C443C" transform="translate(35.625,51.875)"/>
<path d="M0 0 C0.33 0 0.66 0 1 0 C1 4.29 1 8.58 1 13 C0.67 13 0.34 13 0 13 C0 11.35 0 9.7 0 8 C-4.455 8.495 -4.455 8.495 -9 9 C-8.67 8.34 -8.34 7.68 -8 7 C-6.02 7 -4.04 7 -2 7 C-2 6.34 -2 5.68 -2 5 C-4.31 5 -6.62 5 -9 5 C-9 4.67 -9 4.34 -9 4 C-6.03 4 -3.06 4 0 4 C0 2.68 0 1.36 0 0 Z " fill="#AFA18F" transform="translate(19,10)"/>
<path d="M0 0 C1.32 0 2.64 0 4 0 C4 3.63 4 7.26 4 11 C2.68 10.67 1.36 10.34 0 10 C0 6.7 0 3.4 0 0 Z M2 1 C2 3.64 2 6.28 2 9 C2.33 9 2.66 9 3 9 C3 6.36 3 3.72 3 1 C2.67 1 2.34 1 2 1 Z " fill="#6C6357" transform="translate(21,11)"/>
<path d="M0 0 C1.32 0 2.64 0 4 0 C4 3.3 4 6.6 4 10 C2.68 10.33 1.36 10.66 0 11 C0 7.37 0 3.74 0 0 Z M1 1 C1 3.64 1 6.28 1 9 C1.33 9 1.66 9 2 9 C2 6.36 2 3.72 2 1 C1.67 1 1.34 1 1 1 Z " fill="#514A41" transform="translate(56,11)"/>
<path d="M0 0 C1.22589844 0.01353516 1.22589844 0.01353516 2.4765625 0.02734375 C3.41628906 0.04474609 3.41628906 0.04474609 4.375 0.0625 C4.375 0.3925 4.375 0.7225 4.375 1.0625 C3.74851562 1.13726563 3.12203125 1.21203125 2.4765625 1.2890625 C-0.03098191 1.69248447 -2.25997183 2.12859491 -4.625 3.0625 C-6.31665301 6.04533157 -6.31665301 6.04533157 -6.625 9.0625 C-8.275 9.0625 -9.925 9.0625 -11.625 9.0625 C-11.295 8.0725 -10.965 7.0825 -10.625 6.0625 C-9.635 6.0625 -8.645 6.0625 -7.625 6.0625 C-7.439375 4.8559375 -7.439375 4.8559375 -7.25 3.625 C-7.04375 2.779375 -6.8375 1.93375 -6.625 1.0625 C-4.21954362 -0.14022819 -2.67503047 -0.03821472 0 0 Z " fill="#E3D3BB" transform="translate(66.625,14.9375)"/>
<path d="M0 0 C0.99 0.33 1.98 0.66 3 1 C2.38125 1.7425 1.7625 2.485 1.125 3.25 C-0.60437281 5.48801188 -1.86106661 7.43739987 -3 10 C-3.66 10 -4.32 10 -5 10 C-5.68359375 8.203125 -5.68359375 8.203125 -6 6 C-4.78515625 4.296875 -4.78515625 4.296875 -3.0625 2.75 C-2.21365234 1.96882813 -2.21365234 1.96882813 -1.34765625 1.171875 C-0.90292969 0.78515625 -0.45820312 0.3984375 0 0 Z " fill="#B5A590" transform="translate(64,69)"/>
<path d="M0 0 C0.78375 0.04125 1.5675 0.0825 2.375 0.125 C2.375 0.785 2.375 1.445 2.375 2.125 C1.055 2.455 -0.265 2.785 -1.625 3.125 C-1.955 5.435 -2.285 7.745 -2.625 10.125 C-4.1875 8.9375 -4.1875 8.9375 -5.625 7.125 C-5.3194111 2.94861841 -4.60880344 0.21946683 0 0 Z " fill="#CDBAA1" transform="translate(61.625,61.875)"/>
<path d="M0 0 C1 3 1 3 -0.01953125 5.171875 C-2.86769569 7.80094987 -4.88371869 7.4006448 -8.6875 7.25 C-10.45673828 7.19585937 -10.45673828 7.19585937 -12.26171875 7.140625 C-13.61716797 7.07101563 -13.61716797 7.07101563 -15 7 C-15 6.67 -15 6.34 -15 6 C-14.25234375 5.98582031 -13.5046875 5.97164063 -12.734375 5.95703125 C-6.40090569 5.81724378 -6.40090569 5.81724378 -1.3125 2.4375 C-0.6628125 1.2309375 -0.6628125 1.2309375 0 0 Z " fill="#DAC5AA" transform="translate(49,59)"/>
<path d="M0 0 C1.32 0.33 2.64 0.66 4 1 C3.01 2.98 2.02 4.96 1 7 C-0.32 7 -1.64 7 -3 7 C-3 4 -3 4 -1.5 2.375 C-1.005 1.92125 -0.51 1.4675 0 1 C0 0.67 0 0.34 0 0 Z " fill="#B19E87" transform="translate(70,62)"/>
<path d="M0 0 C1.41377341 2.63904371 2.37240135 5.07120629 3 8 C1.68 7.34 0.36 6.68 -1 6 C-1.042721 4.33388095 -1.04063832 2.66617115 -1 1 C-0.67 0.67 -0.34 0.34 0 0 Z " fill="#D4C1AA" transform="translate(8,71)"/>
</svg>
