<?xml version="1.0" encoding="UTF-8"?>
<svg version="1.1" xmlns="http://www.w3.org/2000/svg" width="111" height="79">
<path d="M0 0 C4.58785478 3.34890873 9.09802574 6.87544495 10.57421875 12.5546875 C10.70594664 15.95491355 10.63904425 19.26832518 10.421875 22.6640625 C10.29599531 25.57764033 10.29599531 25.57764033 12.0703125 27.4453125 C12.56660156 27.81140625 13.06289062 28.1775 13.57421875 28.5546875 C12.91421875 30.2046875 12.25421875 31.8546875 11.57421875 33.5546875 C10.58421875 33.5546875 9.59421875 33.5546875 8.57421875 33.5546875 C9.06921875 34.575625 9.06921875 34.575625 9.57421875 35.6171875 C10.79378241 39.19965574 10.9776698 41.78914432 10.57421875 45.5546875 C8.76171875 48.4921875 8.76171875 48.4921875 6.57421875 50.5546875 C5.58421875 50.5546875 4.59421875 50.5546875 3.57421875 50.5546875 C3.07921875 51.5446875 3.07921875 51.5446875 2.57421875 52.5546875 C-2.62189346 52.60416703 -7.81786816 52.64044477 -13.01416016 52.66455078 C-14.78143707 52.67460134 -16.54869738 52.68824392 -18.31591797 52.70556641 C-20.8577891 52.72985635 -23.39944014 52.74118005 -25.94140625 52.75 C-27.12443329 52.76548386 -27.12443329 52.76548386 -28.33135986 52.78128052 C-35.28225116 52.78269857 -35.28225116 52.78269857 -38.42578125 50.5546875 C-41.42382663 46.32887116 -42.90298934 41.67804824 -43.42578125 36.5546875 C-43.61317964 34.92967578 -43.80068503 33.30467639 -43.98828125 31.6796875 C-44.13574608 30.30486152 -44.28214598 28.92991885 -44.42578125 27.5546875 C-43.43578125 27.2246875 -42.44578125 26.8946875 -41.42578125 26.5546875 C-41.56757812 25.72066406 -41.709375 24.88664062 -41.85546875 24.02734375 C-43.20661659 13.68039584 -43.20661659 13.68039584 -40.05078125 8.6171875 C-30.75177159 -3.11984557 -13.33596239 -7.94574248 0 0 Z " fill="#A05F20" transform="translate(74.42578125,13.4453125)"/>
<path d="M0 0 C2.16874252 0.50603992 3.99967627 0.99983813 6 2 C9.27905439 2.36922984 12.57944902 2.47366934 15.875 2.625 C17.29679565 2.69146729 17.29679565 2.69146729 18.74731445 2.75927734 C30.15982628 3.63048929 30.15982628 3.63048929 41 1 C43.6723621 0.86584528 46.32250488 0.95681459 49 1 C49.36627907 6.49418605 49.36627907 6.49418605 47.6875 8.8125 C43.83928396 11.52050388 39.72441008 11.16115336 35.2265625 11.16796875 C34.46580414 11.17129715 33.70504578 11.17462555 32.92123413 11.17805481 C31.31240442 11.18311467 29.70356422 11.18546343 28.09472656 11.18530273 C25.64109869 11.18748568 23.18792313 11.20564118 20.734375 11.22460938 C19.16927237 11.22754426 17.6041676 11.22952842 16.0390625 11.23046875 C14.94351547 11.24124702 14.94351547 11.24124702 13.82583618 11.25224304 C8.14303449 11.22692851 4.68233192 10.12155461 0 7 C-0.1875 3.375 -0.1875 3.375 0 0 Z " fill="#91551C" transform="translate(34,53)"/>
<path d="M0 0 C0 1.32 0 2.64 0 4 C0.99 4.33 1.98 4.66 3 5 C2.67 6.65 2.34 8.3 2 10 C1.01 10.33 0.02 10.66 -1 11 C-1 11.99 -1 12.98 -1 14 C-3.06081361 14.50690584 -5.12373526 15.00524619 -7.1875 15.5 C-8.91033203 15.91765625 -8.91033203 15.91765625 -10.66796875 16.34375 C-13.56818829 16.91495385 -16.06096385 17.13283779 -19 17 C-18.34 16.01 -17.68 15.02 -17 14 C-19.92879371 14.62759865 -22.36095629 15.58622659 -25 17 C-25.5775 16.38125 -26.155 15.7625 -26.75 15.125 C-30.04203299 12.01585773 -32.8479129 10.81520871 -37.328125 10.3671875 C-38.12734375 10.28339844 -38.9265625 10.19960938 -39.75 10.11328125 C-40.575 10.03464844 -41.4 9.95601562 -42.25 9.875 C-43.51070312 9.74544922 -43.51070312 9.74544922 -44.796875 9.61328125 C-46.86388223 9.40188278 -48.93185928 9.20000538 -51 9 C-51 8.01 -51 7.02 -51 6 C-50.30414795 6.0707373 -49.6082959 6.14147461 -48.89135742 6.21435547 C-40.6838081 6.981265 -32.55230306 7.15065585 -24.3125 7.125 C-23.05888672 7.12886719 -21.80527344 7.13273437 -20.51367188 7.13671875 C-13.92335053 7.12978522 -7.53114765 6.89157595 -1 6 C-1.495 5.01 -1.495 5.01 -2 4 C-2.93972656 4.16371094 -3.87945312 4.32742187 -4.84765625 4.49609375 C-9.7063754 5.19019649 -14.53934211 5.10834309 -19.4375 5.0625 C-20.35982422 5.05798828 -21.28214844 5.05347656 -22.23242188 5.04882812 C-24.48835048 5.03713938 -26.74413967 5.02075455 -29 5 C-29.33 4.01 -29.66 3.02 -30 2 C-29.09290283 1.96241577 -29.09290283 1.96241577 -28.16748047 1.92407227 C-25.4031438 1.80736994 -22.63908634 1.68498266 -19.875 1.5625 C-18.92367187 1.52318359 -17.97234375 1.48386719 -16.9921875 1.44335938 C-11.30715072 1.18674313 -5.64688381 0 0 0 Z " fill="#C67018" transform="translate(83,36)"/>
<path d="M0 0 C0.66 0 1.32 0 2 0 C2.625 1.8125 2.625 1.8125 3 4 C2.34 4.99 1.68 5.98 1 7 C0.01 7 -0.98 7 -2 7 C-1.505 8.0209375 -1.505 8.0209375 -1 9.0625 C0.21956366 12.64496824 0.40345105 15.23445682 0 19 C-1.8125 21.9375 -1.8125 21.9375 -4 24 C-4.99 24 -5.98 24 -7 24 C-7.33 24.66 -7.66 25.32 -8 26 C-13.19611221 26.04947953 -18.39208691 26.08575727 -23.58837891 26.10986328 C-25.35565582 26.11991384 -27.12291613 26.13355642 -28.89013672 26.15087891 C-31.43200785 26.17516885 -33.97365889 26.18649255 -36.515625 26.1953125 C-37.69865204 26.21079636 -37.69865204 26.21079636 -38.90557861 26.22659302 C-45.92251077 26.22802454 -45.92251077 26.22802454 -49 24 C-50.25 21.875 -50.25 21.875 -51 20 C-50.4225 20.309375 -49.845 20.61875 -49.25 20.9375 C-44.61698822 23.12531112 -40.1906302 23.17362667 -35.12890625 23.203125 C-34.36956284 23.20882507 -33.61021942 23.21452515 -32.8278656 23.22039795 C-31.22502018 23.22982409 -29.62215559 23.23637243 -28.01928711 23.24023438 C-25.57436262 23.24995285 -23.13027476 23.28100275 -20.68554688 23.3125 C-19.12500497 23.31902959 -17.56445708 23.32428024 -16.00390625 23.328125 C-15.27667862 23.3404718 -14.54945099 23.3528186 -13.80018616 23.36553955 C-9.37701477 23.34622963 -6.45937106 22.83207946 -3 20 C-2.10792821 16.9042893 -2.10792821 16.9042893 -2 14 C-2.53625 14.13277344 -3.0725 14.26554687 -3.625 14.40234375 C-14.65680506 16.88812877 -25.86752738 17.27763638 -37.125 16.75 C-37.82310791 16.72381592 -38.52121582 16.69763184 -39.24047852 16.6706543 C-43.79600303 16.39113706 -47.06365804 15.28087104 -51 13 C-51 14.98 -51 16.96 -51 19 C-52.65725255 16.01694542 -53.41339835 13.35200943 -54 10 C-54.33 8.68 -54.66 7.36 -55 6 C-50.71 6 -46.42 6 -42 6 C-42 6.33 -42 6.66 -42 7 C-44.64 7 -47.28 7 -50 7 C-50.33 8.32 -50.66 9.64 -51 11 C-50.23816406 11.04898438 -49.47632813 11.09796875 -48.69140625 11.1484375 C-42.27029384 11.61338696 -36.24558627 12.43860343 -30 14 C-29.67 13.01 -29.34 12.02 -29 11 C-28.401875 11.226875 -27.80375 11.45375 -27.1875 11.6875 C-26.465625 11.790625 -25.74375 11.89375 -25 12 C-24.505 11.505 -24.01 11.01 -23.5 10.5 C-23.005 10.005 -22.51 9.51 -22 9 C-19.8125 9.3125 -19.8125 9.3125 -18 10 C-18.66 10.66 -19.32 11.32 -20 12 C-19.05125 11.855625 -18.1025 11.71125 -17.125 11.5625 C-12.43259653 10.88802722 -7.71865588 10.44623104 -3 10 C-3 9.01 -3 8.02 -3 7 C-4.98 7 -6.96 7 -9 7 C-9 6.67 -9 6.34 -9 6 C-4.545 5.505 -4.545 5.505 0 5 C0 3.35 0 1.7 0 0 Z " fill="#130D07" transform="translate(85,40)"/>
<path d="M0 0 C2.9321307 2.80464675 3.9716438 4.05403705 4.09765625 8.2578125 C4.08605469 9.53398437 4.07445312 10.81015625 4.0625 12.125 C4.05347656 13.40632813 4.04445312 14.68765625 4.03515625 16.0078125 C4.02355469 16.99523437 4.01195312 17.98265625 4 19 C3.34 19 2.68 19 2 19 C2 17.68 2 16.36 2 15 C0.74316406 15.32742187 -0.51367188 15.65484375 -1.80859375 15.9921875 C-7.26002281 17.20361618 -12.50109889 17.22562382 -18.0625 17.125 C-19.02349609 17.11597656 -19.98449219 17.10695313 -20.97460938 17.09765625 C-23.31667805 17.07435208 -25.65819792 17.04164058 -28 17 C-27.67 17.66 -27.34 18.32 -27 19 C-23.81251971 19.02932572 -20.62507472 19.04690739 -17.4375 19.0625 C-16.54224609 19.07087891 -15.64699219 19.07925781 -14.72460938 19.08789062 C-9.70002057 19.10629571 -4.95182709 18.86266398 0 18 C0.495 19.485 0.495 19.485 1 21 C-7.06342465 23.24819963 -14.72869701 23.23179097 -23.0625 23.125 C-24.41861315 23.11494631 -25.77473355 23.1058247 -27.13085938 23.09765625 C-30.420761 23.07424058 -33.71028438 23.04144423 -37 23 C-37 22.34 -37 21.68 -37 21 C-35.02 21 -33.04 21 -31 21 C-31 20.34 -31 19.68 -31 19 C-30.34 19 -29.68 19 -29 19 C-29 18.34 -29 17.68 -29 17 C-30.7634375 17.0309375 -30.7634375 17.0309375 -32.5625 17.0625 C-36.47413467 17.06947261 -40.14497944 16.64250343 -44 16 C-44 15.34 -44 14.68 -44 14 C-44.99 13.67 -45.98 13.34 -47 13 C-30.5 13 -14 13 3 13 C3 11.02 3 9.04 3 7 C2.34 7 1.68 7 1 7 C0.505 3.535 0.505 3.535 0 0 Z " fill="#191109" transform="translate(81,21)"/>
<path d="M0 0 C0.33 0.66 0.66 1.32 1 2 C1.99 2.33 2.98 2.66 4 3 C4 3.99 4 4.98 4 6 C8.95 6.33 13.9 6.66 19 7 C19 7.66 19 8.32 19 9 C18.34 9 17.68 9 17 9 C17 9.66 17 10.32 17 11 C11.06636277 12.21715636 4.81109182 12.93703061 -1 11 C-1 11.99 -1 12.98 -1 14 C-0.2265625 13.97679687 0.546875 13.95359375 1.34375 13.9296875 C10.57035747 13.76982054 17.46638655 14.34978991 25 20 C23.74609375 21.51171875 23.74609375 21.51171875 22 23 C18.87507265 22.85119394 16.06690812 22.52448574 13 22 C11.92492187 21.82726562 10.84984375 21.65453125 9.7421875 21.4765625 C6.82503607 21.0007151 3.91179193 20.50746966 1 20 C1.33 18.68 1.66 17.36 2 16 C0.35 15.67 -1.3 15.34 -3 15 C-3 13.35 -3 11.7 -3 10 C-2.01 9.67 -1.02 9.34 0 9 C0 6.03 0 3.06 0 0 Z " fill="#3E2E1D" transform="translate(33,31)"/>
<path d="M0 0 C2.0625 2.625 2.0625 2.625 3 5 C2.05125 4.690625 1.1025 4.38125 0.125 4.0625 C-8.03866885 1.77930087 -15.86569455 1.34016656 -24 4 C-27.32808239 5.88413915 -27.32808239 5.88413915 -30 8 C-31.3191582 8.69429379 -32.64649406 9.37530495 -34 10 C-31.49037109 4.34415338 -27.30467159 0.93894028 -21.625 -1.375 C-14.52516783 -2.59910899 -6.782369 -2.7943922 0 0 Z " fill="#816C54" transform="translate(72,12)"/>
<path d="M0 0 C0.33 0.66 0.66 1.32 1 2 C1.99 2.33 2.98 2.66 4 3 C4 3.99 4 4.98 4 6 C8.95 6.33 13.9 6.66 19 7 C19 7.66 19 8.32 19 9 C18.34 9 17.68 9 17 9 C17 9.66 17 10.32 17 11 C12.48184719 11.88277755 8.22487306 12.10589503 3.625 12.0625 C1.75714844 12.04896484 1.75714844 12.04896484 -0.1484375 12.03515625 C-1.55996094 12.01775391 -1.55996094 12.01775391 -3 12 C-2.67 11.01 -2.34 10.02 -2 9 C-1.34 9 -0.68 9 0 9 C0 6.03 0 3.06 0 0 Z " fill="#2E2317" transform="translate(33,31)"/>
<path d="M0 0 C0 1.32 0 2.64 0 4 C0.99 4.33 1.98 4.66 3 5 C3 6.32 3 7.64 3 9 C1.68 9 0.36 9 -1 9 C-1.33 7.35 -1.66 5.7 -2 4 C-2.93972656 4.16371094 -3.87945312 4.32742187 -4.84765625 4.49609375 C-9.7063754 5.19019649 -14.53934211 5.10834309 -19.4375 5.0625 C-20.35982422 5.05798828 -21.28214844 5.05347656 -22.23242188 5.04882812 C-24.48835048 5.03713938 -26.74413967 5.02075455 -29 5 C-29.33 4.01 -29.66 3.02 -30 2 C-29.09290283 1.96241577 -29.09290283 1.96241577 -28.16748047 1.92407227 C-25.4031438 1.80736994 -22.63908634 1.68498266 -19.875 1.5625 C-18.92367187 1.52318359 -17.97234375 1.48386719 -16.9921875 1.44335938 C-11.30715072 1.18674313 -5.64688381 0 0 0 Z " fill="#B5AA93" transform="translate(83,36)"/>
<path d="M0 0 C1.98 0 3.96 0 6 0 C6.36601307 7.4422658 6.36601307 7.4422658 4.6875 10 C3 11 3 11 0 11 C-0.33 11.66 -0.66 12.32 -1 13 C-6.19611221 13.04947953 -11.39208691 13.08575727 -16.58837891 13.10986328 C-18.35565582 13.11991384 -20.12291613 13.13355642 -21.89013672 13.15087891 C-24.43200785 13.17516885 -26.97365889 13.18649255 -29.515625 13.1953125 C-30.69865204 13.21079636 -30.69865204 13.21079636 -31.90557861 13.22659302 C-38.92251077 13.22802454 -38.92251077 13.22802454 -42 11 C-43.25 8.875 -43.25 8.875 -44 7 C-43.13375 7.4640625 -43.13375 7.4640625 -42.25 7.9375 C-37.61698822 10.12531112 -33.1906302 10.17362667 -28.12890625 10.203125 C-27.36956284 10.20882507 -26.61021942 10.21452515 -25.8278656 10.22039795 C-24.22502018 10.22982409 -22.62215559 10.23637243 -21.01928711 10.24023438 C-18.57436262 10.24995285 -16.13027476 10.28100275 -13.68554688 10.3125 C-12.12500497 10.31902959 -10.56445708 10.32428024 -9.00390625 10.328125 C-8.27667862 10.3404718 -7.54945099 10.3528186 -6.80018616 10.36553955 C-2.37701477 10.34622963 0.54062894 9.83207946 4 7 C4.89207179 3.9042893 4.89207179 3.9042893 5 1 C3.35 1 1.7 1 0 1 C0 0.67 0 0.34 0 0 Z " fill="#331E0A" transform="translate(78,53)"/>
<path d="M0 0 C0.66 0 1.32 0 2 0 C2.625 1.8125 2.625 1.8125 3 4 C2.01 5.485 2.01 5.485 1 7 C0.01 7 -0.98 7 -2 7 C-1.67 7.680625 -1.34 8.36125 -1 9.0625 C0.17307315 12.50840238 0.14180493 15.38397422 0 19 C-0.33 19 -0.66 19 -1 19 C-1 17.02 -1 15.04 -1 13 C-2.45903258 13.30921884 -3.91720722 13.62248799 -5.375 13.9375 C-6.18710938 14.11152344 -6.99921875 14.28554688 -7.8359375 14.46484375 C-10.029463 14.92330693 -10.029463 14.92330693 -12 16 C-13.87379605 16.07033769 -15.75001102 16.0843022 -17.625 16.0625 C-18.62789063 16.05347656 -19.63078125 16.04445313 -20.6640625 16.03515625 C-21.43492188 16.02355469 -22.20578125 16.01195313 -23 16 C-23 15.67 -23 15.34 -23 15 C-21.5459375 14.814375 -21.5459375 14.814375 -20.0625 14.625 C-19.051875 14.41875 -18.04125 14.2125 -17 14 C-16.67 13.34 -16.34 12.68 -16 12 C-11.54569773 10.42789332 -7.71334503 9.77008073 -3 10 C-3 9.01 -3 8.02 -3 7 C-4.98 7 -6.96 7 -9 7 C-9 6.67 -9 6.34 -9 6 C-4.545 5.505 -4.545 5.505 0 5 C0 3.35 0 1.7 0 0 Z " fill="#211B14" transform="translate(85,40)"/>
<path d="M0 0 C-0.99 0.66 -1.98 1.32 -3 2 C-3 2.99 -3 3.98 -3 5 C-5.06081361 5.50690584 -7.12373526 6.00524619 -9.1875 6.5 C-10.91033203 6.91765625 -10.91033203 6.91765625 -12.66796875 7.34375 C-15.56818829 7.91495385 -18.06096385 8.13283779 -21 8 C-20.34 7.01 -19.68 6.02 -19 5 C-19.66 4.34 -20.32 3.68 -21 3 C-14.67939304 -0.79236417 -7.11516492 -0.12884604 0 0 Z " fill="#342314" transform="translate(85,45)"/>
<path d="M0 0 C2.9321307 2.80464675 3.9716438 4.05403705 4.09765625 8.2578125 C4.08605469 9.53398437 4.07445312 10.81015625 4.0625 12.125 C4.05347656 13.40632813 4.04445312 14.68765625 4.03515625 16.0078125 C4.02355469 16.99523437 4.01195312 17.98265625 4 19 C3.34 19 2.68 19 2 19 C2 17.68 2 16.36 2 15 C0.98993896 15.16749756 -0.02012207 15.33499512 -1.06079102 15.50756836 C-4.81737723 15.97717074 -8.25041308 16.02998348 -12.02734375 15.87890625 C-13.95610352 15.80639648 -13.95610352 15.80639648 -15.92382812 15.73242188 C-17.26172456 15.67591872 -18.59961513 15.6192764 -19.9375 15.5625 C-21.30271194 15.50918787 -22.66794636 15.45644834 -24.03320312 15.40429688 C-27.35573307 15.2751526 -30.67792161 15.1402083 -34 15 C-34 14.67 -34 14.34 -34 14 C-21.79 13.67 -9.58 13.34 3 13 C3 11.02 3 9.04 3 7 C2.34 7 1.68 7 1 7 C0.505 3.535 0.505 3.535 0 0 Z " fill="#3D250F" transform="translate(81,21)"/>
<path d="M0 0 C1.50433594 0.01353516 1.50433594 0.01353516 3.0390625 0.02734375 C3.80992188 0.03894531 4.58078125 0.05054688 5.375 0.0625 C5.98828125 1.921875 5.98828125 1.921875 6.375 4.0625 C4.5625 6.3125 4.5625 6.3125 2.375 8.0625 C0.375 8.0625 0.375 8.0625 -1.5 6.25 C-2.20125 5.528125 -2.9025 4.80625 -3.625 4.0625 C-4.94058703 3.03926564 -6.26877755 2.03123032 -7.625 1.0625 C-4.98041621 -0.25979189 -2.94738699 -0.03427194 0 0 Z " fill="#C16B16" transform="translate(57.625,44.9375)"/>
<path d="M0 0 C6.57315478 -0.36517527 11.79485526 0.86380263 18 3 C18 3.66 18 4.32 18 5 C11.39297513 5.23182543 6.28985365 4.09661788 0 2 C0 1.34 0 0.68 0 0 Z " fill="#C8BBA1" transform="translate(36,48)"/>
<path d="M0 0 C10.75718016 0.60574413 10.75718016 0.60574413 15 4 C15 4.33 15 4.66 15 5 C9.47322267 5.19392201 5.24385089 4.7479503 0 3 C0 2.01 0 1.02 0 0 Z " fill="#B2AB9E" transform="translate(34,36)"/>
<path d="M0 0 C0.66 0 1.32 0 2 0 C2 0.66 2 1.32 2 2 C3.65 2.33 5.3 2.66 7 3 C6.01 3.495 6.01 3.495 5 4 C5 4.66 5 5.32 5 6 C5.804375 5.979375 6.60875 5.95875 7.4375 5.9375 C10 6 10 6 11 7 C11.04063832 8.66617115 11.042721 10.33388095 11 12 C10.01 12 9.02 12 8 12 C8 11.01 8 10.02 8 9 C6.68 8.67 5.36 8.34 4 8 C4 7.01 4 6.02 4 5 C2.68 4.67 1.36 4.34 0 4 C0 2.68 0 1.36 0 0 Z " fill="#91531A" transform="translate(63,14)"/>
<path d="M0 0 C0 0.66 0 1.32 0 2 C-2.06081361 2.50690584 -4.12373526 3.00524619 -6.1875 3.5 C-7.91033203 3.91765625 -7.91033203 3.91765625 -9.66796875 4.34375 C-12.56818829 4.91495385 -15.06096385 5.13283779 -18 5 C-16.54685893 2.09371786 -14.27684759 1.65505919 -11.34375 0.59765625 C-7.55970895 -0.36727422 -3.87406701 -0.24212919 0 0 Z " fill="#C6B9A0" transform="translate(82,48)"/>
<path d="M0 0 C0.66 0 1.32 0 2 0 C2 1.32 2 2.64 2 4 C3.32 4.33 4.64 4.66 6 5 C5.67 5.99 5.34 6.98 5 8 C4.01 7.67 3.02 7.34 2 7 C1.67 8.65 1.34 10.3 1 12 C0.67 12 0.34 12 0 12 C-0.33 9.36 -0.66 6.72 -1 4 C-1.99 3.67 -2.98 3.34 -4 3 C-2.68 3 -1.36 3 0 3 C0 2.01 0 1.02 0 0 Z " fill="#B16A24" transform="translate(61,14)"/>
<path d="M0 0 C0 1.32 0 2.64 0 4 C0.99 4.33 1.98 4.66 3 5 C3 6.32 3 7.64 3 9 C1.68 9 0.36 9 -1 9 C-1.33 7.35 -1.66 5.7 -2 4 C-4.31 3.34 -6.62 2.68 -9 2 C-9 1.67 -9 1.34 -9 1 C-5.94152152 0.45627049 -3.11227195 0 0 0 Z " fill="#AE977A" transform="translate(83,36)"/>
<path d="M0 0 C0 0.99 0 1.98 0 3 C-12.66970387 4.33257403 -12.66970387 4.33257403 -18 3 C-18 2.67 -18 2.34 -18 2 C-15.93827387 1.66191314 -13.8755797 1.32972639 -11.8125 1 C-10.66394531 0.814375 -9.51539062 0.62875 -8.33203125 0.4375 C-5.49584607 0.06510523 -2.85280436 -0.08596021 0 0 Z " fill="#B56514" transform="translate(82,42)"/>
<path d="M0 0 C-1.32 1.65 -2.64 3.3 -4 5 C-7.37462715 4.45276317 -9.08235 3.9451 -12 2 C-7.8794254 0.00214565 -4.54805635 -0.17835515 0 0 Z " fill="#B97027" transform="translate(58,14)"/>
<path d="M0 0 C6.00738007 2.11070111 6.00738007 2.11070111 8 5 C8.6875 8.6875 8.6875 8.6875 9 12 C8.4225 11.2575 7.845 10.515 7.25 9.75 C5.10290284 7.01924077 5.10290284 7.01924077 2.8125 4.875 C1 3 1 3 0 0 Z " fill="#7E5936" transform="translate(73,14)"/>
<path d="M0 0 C-2.30091065 1.53394043 -4.40777165 2.74228627 -6.875 3.9375 C-10.01501629 5.48433459 -13.02907789 7.14317368 -16 9 C-14.49364535 4.78220697 -11.75987578 3.2252326 -8 1 C-5.07175348 0.02391783 -3.04386724 -0.08226668 0 0 Z " fill="#DBC6A6" transform="translate(54,13)"/>
<path d="M0 0 C-0.99 0 -1.98 0 -3 0 C-3 0.66 -3 1.32 -3 2 C-2.34 2.33 -1.68 2.66 -1 3 C-3.64458379 4.32229189 -5.67761301 4.09677194 -8.625 4.0625 C-9.62789063 4.05347656 -10.63078125 4.04445313 -11.6640625 4.03515625 C-12.43492188 4.02355469 -13.20578125 4.01195312 -14 4 C-14 3.67 -14 3.34 -14 3 C-12.5459375 2.814375 -12.5459375 2.814375 -11.0625 2.625 C-9.5465625 2.315625 -9.5465625 2.315625 -8 2 C-7.67 1.34 -7.34 0.68 -7 0 C-3.86650268 -1.04449911 -3.01031744 -0.93423645 0 0 Z " fill="#271E15" transform="translate(76,52)"/>
<path d="M0 0 C1 1 1 1 1.0625 4.5625 C1.041875 5.696875 1.02125 6.83125 1 8 C0.67 8 0.34 8 0 8 C0 6.02 0 4.04 0 2 C-3.63 2.33 -7.26 2.66 -11 3 C-11 2.34 -11 1.68 -11 1 C-7.11651516 -0.29449495 -4.09302664 -0.13203312 0 0 Z " fill="#0C0804" transform="translate(84,51)"/>
<path d="M0 0 C0.81210937 0.46019531 0.81210937 0.46019531 1.640625 0.9296875 C4.34450508 2.15628211 6.82462658 2.63743776 9.75 3.125 C10.73484375 3.29257812 11.7196875 3.46015625 12.734375 3.6328125 C13.85585938 3.81457031 13.85585938 3.81457031 15 4 C15 4.33 15 4.66 15 5 C13.58566794 5.2236337 12.16832382 5.42826476 10.75 5.625 C9.96109375 5.74101563 9.1721875 5.85703125 8.359375 5.9765625 C5.63423237 6.00363345 4.27068706 5.47395476 2 4 C0.75 1.875 0.75 1.875 0 0 Z " fill="#351F0C" transform="translate(34,60)"/>
<path d="M0 0 C3.96 0.33 7.92 0.66 12 1 C10 3 10 3 7.6171875 3.1953125 C6.71226563 3.17210937 5.80734375 3.14890625 4.875 3.125 C3.50988281 3.09792969 3.50988281 3.09792969 2.1171875 3.0703125 C1.41851562 3.04710937 0.71984375 3.02390625 0 3 C0 2.01 0 1.02 0 0 Z " fill="#D08B41" transform="translate(32,42)"/>
<path d="M0 0 C0.33 0.99 0.66 1.98 1 3 C-1.31 3.33 -3.62 3.66 -6 4 C-6.33 3.01 -6.66 2.02 -7 1 C-4.53721199 -0.231394 -2.7204945 -0.07159196 0 0 Z " fill="#24170B" transform="translate(81,39)"/>
<path d="M0 0 C0.33 0.66 0.66 1.32 1 2 C3.31 2 5.62 2 8 2 C8 2.33 8 2.66 8 3 C2.06 3.495 2.06 3.495 -4 4 C-2.68 2.68 -1.36 1.36 0 0 Z " fill="#030201" transform="translate(62,52)"/>
<path d="M0 0 C1.70840281 1.63412443 2.93453047 2.86906094 4 5 C4.04022391 7.3329866 4.04320247 9.66706666 4 12 C3.67 12 3.34 12 3 12 C3 10.35 3 8.7 3 7 C2.34 7 1.68 7 1 7 C0.67 4.69 0.34 2.38 0 0 Z " fill="#573619" transform="translate(81,21)"/>
<path d="M0 0 C0.66 0 1.32 0 2 0 C1.42415568 2.38564077 0.77772405 4.66682784 0 7 C-0.99 7 -1.98 7 -3 7 C-3 6.01 -3 5.02 -3 4 C-2.34 4 -1.68 4 -1 4 C-0.67 2.68 -0.34 1.36 0 0 Z " fill="#7C4615" transform="translate(46,17)"/>
<path d="M0 0 C1.98 0.99 1.98 0.99 4 2 C4 1.34 4 0.68 4 0 C4.66 0 5.32 0 6 0 C5.25 1.9375 5.25 1.9375 4 4 C1.875 4.75 1.875 4.75 0 5 C0 3.35 0 1.7 0 0 Z " fill="#B36C26" transform="translate(50,20)"/>
<path d="M0 0 C0.66 0.33 1.32 0.66 2 1 C1.67 1.99 1.34 2.98 1 4 C0.34 4 -0.32 4 -1 4 C-1 4.66 -1 5.32 -1 6 C-2.32 5.67 -3.64 5.34 -5 5 C-3.35 3.35 -1.7 1.7 0 0 Z " fill="#B6702B" transform="translate(44,17)"/>
<path d="M0 0 C2.31 0 4.62 0 7 0 C5.02 0.99 5.02 0.99 3 2 C3.66 2.66 4.32 3.32 5 4 C2.03 3.505 2.03 3.505 -1 3 C-0.67 2.01 -0.34 1.02 0 0 Z " fill="#342314" transform="translate(39,52)"/>
</svg>
