<?xml version="1.0" encoding="UTF-8"?>
<svg version="1.1" xmlns="http://www.w3.org/2000/svg" width="76" height="74">
<path d="M0 0 C0.71969467 -0.00145523 1.43938934 -0.00291046 2.18089294 -0.00440979 C3.69802918 -0.00275385 5.21518274 0.00877349 6.73217773 0.02954102 C9.05459816 0.05854385 11.37474128 0.05013655 13.69726562 0.03710938 C15.17318817 0.04334585 16.64910353 0.05173609 18.125 0.0625 C19.16570396 0.05809654 19.16570396 0.05809654 20.22743225 0.05360413 C23.0126923 0.10816186 25.04557156 0.21347542 27.43579102 1.71289062 C28.84227885 4.07830328 28.84961836 5.71508689 28.83203125 8.4609375 C28.84492187 9.42580078 28.8578125 10.39066406 28.87109375 11.38476562 C28.87109375 13.4134265 28.86331104 15.44210265 28.84765625 17.47070312 C28.8917582 20.22523736 28.96365849 22.79190566 29.49609375 25.49609375 C31.93825787 27.65509914 31.93825787 27.65509914 34.49609375 29.49609375 C35.27335451 32.39688816 35.28627371 35.2552079 35.30859375 38.24609375 C35.33373047 39.03886719 35.35886719 39.83164062 35.38476562 40.6484375 C35.44346105 42.5971257 35.47268355 44.54666234 35.49609375 46.49609375 C36.48609375 46.82609375 37.47609375 47.15609375 38.49609375 47.49609375 C39.16165284 44.39015131 39.57039174 41.92702209 39.02734375 38.77734375 C38.4214515 35.03506812 38.38601948 31.39775868 38.43359375 27.62109375 C38.43810547 26.93273437 38.44261719 26.244375 38.44726562 25.53515625 C38.45893039 23.8554304 38.47686104 22.17575 38.49609375 20.49609375 C37.71234375 20.20734375 36.92859375 19.91859375 36.12109375 19.62109375 C33.49609375 18.49609375 33.49609375 18.49609375 31.49609375 16.49609375 C30.93089372 13.84072003 30.75821177 11.20464662 30.49609375 8.49609375 C32.62109375 7.74609375 32.62109375 7.74609375 35.49609375 7.49609375 C39.8198297 9.74443644 42.7057425 11.92075167 44.49609375 16.49609375 C44.84988103 20.52533782 45.04090098 24.59663071 43.91796875 28.51171875 C43.38245702 31.03060728 43.85606396 32.69947811 44.49609375 35.18359375 C45.55396444 40.12275551 46.0166805 44.6063638 44.49609375 49.49609375 C42.37109375 52.12109375 42.37109375 52.12109375 39.49609375 53.49609375 C35.87109375 53.49609375 35.87109375 53.49609375 32.49609375 52.49609375 C30.55859375 50.43359375 30.55859375 50.43359375 29.49609375 48.49609375 C29.87513583 51.78685371 29.87513583 51.78685371 31.49609375 54.49609375 C31.62109375 56.99609375 31.62109375 56.99609375 31.49609375 59.49609375 C30.49609375 60.49609375 30.49609375 60.49609375 28.66746521 60.61634827 C27.87026566 60.61412766 27.0730661 60.61190704 26.25170898 60.60961914 C25.35085068 60.60954361 24.44999237 60.60946808 23.52183533 60.60939026 C22.54267654 60.60422897 21.56351776 60.59906769 20.5546875 60.59375 C19.55728043 60.59233505 18.55987335 60.5909201 17.53224182 60.58946228 C14.33266251 60.58384489 11.13315206 60.57128946 7.93359375 60.55859375 C5.7701833 60.55358099 3.60677176 60.5490177 1.44335938 60.54492188 C-3.8724195 60.53386982 -9.18815796 60.51711479 -14.50390625 60.49609375 C-15.19140625 58.18359375 -15.19140625 58.18359375 -15.50390625 55.49609375 C-15.02296005 55.04225815 -14.54201385 54.58842255 -14.04649353 54.12083435 C-11.99417719 51.95921813 -12.13161325 50.75802089 -12.13500977 47.81274414 C-12.12812637 46.86488541 -12.12124298 45.91702667 -12.114151 44.94044495 C-12.1203093 43.91853561 -12.12646759 42.89662628 -12.1328125 41.84375 C-12.11543156 39.6842432 -12.09784716 37.52473802 -12.08007812 35.36523438 C-12.06999556 31.95708233 -12.06641103 28.54903549 -12.06811523 25.14086914 C-12.06455108 21.85400841 -12.03722907 18.56796561 -12.0078125 15.28125 C-12.01599503 14.2613649 -12.02417755 13.2414798 -12.03260803 12.19068909 C-11.95954397 5.26683343 -11.95954397 5.26683343 -9.94140625 1.85302734 C-6.63535419 0.01257889 -3.68754986 -0.05988313 0 0 Z M-5.50390625 5.49609375 C-5.17390625 6.15609375 -4.84390625 6.81609375 -4.50390625 7.49609375 C-3.84390625 6.83609375 -3.18390625 6.17609375 -2.50390625 5.49609375 C-3.49390625 5.49609375 -4.48390625 5.49609375 -5.50390625 5.49609375 Z M18.49609375 5.49609375 C19.48609375 6.15609375 20.47609375 6.81609375 21.49609375 7.49609375 C21.9284668 9.37548828 21.9284668 9.37548828 22.0078125 11.62890625 C22.04092529 12.35480957 22.07403809 13.08071289 22.1081543 13.82861328 C22.13304932 14.75013184 22.15794434 15.67165039 22.18359375 16.62109375 C22.28671875 19.54984375 22.38984375 22.47859375 22.49609375 25.49609375 C13.25609375 25.49609375 4.01609375 25.49609375 -5.50390625 25.49609375 C-5.83390625 35.06609375 -6.16390625 44.63609375 -6.50390625 54.49609375 C-7.49390625 54.99109375 -7.49390625 54.99109375 -8.50390625 55.49609375 C2.71609375 55.49609375 13.93609375 55.49609375 25.49609375 55.49609375 C25.16609375 54.83609375 24.83609375 54.17609375 24.49609375 53.49609375 C24.37786404 51.954672 24.31909564 50.40848278 24.29077148 48.86279297 C24.26085365 47.42152542 24.26085365 47.42152542 24.23033142 45.95114136 C24.21361893 44.91152252 24.19690643 43.87190369 24.1796875 42.80078125 C24.1589064 41.73820099 24.13812531 40.67562073 24.11671448 39.58084106 C24.05119114 36.17765937 23.99232102 32.77439886 23.93359375 29.37109375 C23.89041118 27.06770009 23.84679698 24.76431449 23.80273438 22.4609375 C23.69550693 16.80607354 23.59374573 11.15113072 23.49609375 5.49609375 C21.84609375 5.49609375 20.19609375 5.49609375 18.49609375 5.49609375 Z M-0.50390625 10.49609375 C-0.50390625 13.79609375 -0.50390625 17.09609375 -0.50390625 20.49609375 C5.46283991 21.82203734 11.4219299 21.58455245 17.49609375 21.49609375 C17.49609375 18.19609375 17.49609375 14.89609375 17.49609375 11.49609375 C11.42793709 10.59710758 5.63205508 10.41087206 -0.50390625 10.49609375 Z " fill="#B1A18E" transform="translate(24.50390625,9.50390625)"/>
<path d="M0 0 C0.66209473 -0.00095673 1.32418945 -0.00191345 2.00634766 -0.00289917 C3.40852961 -0.00358076 4.8107147 -0.00172792 6.21289062 0.00244141 C8.36595713 0.00779004 10.51881502 0.0024958 12.671875 -0.00390625 C14.03125046 -0.00324546 15.3906258 -0.00196429 16.75 0 C18.61785156 0.00169189 18.61785156 0.00169189 20.5234375 0.00341797 C23.375 0.1328125 23.375 0.1328125 24.375 1.1328125 C24.46819449 2.6676422 24.492458 4.20673332 24.48852539 5.74438477 C24.48844986 6.72532608 24.48837433 7.7062674 24.48829651 8.7169342 C24.48313522 9.7835881 24.47797394 10.850242 24.47265625 11.94921875 C24.4712413 13.03541 24.46982635 14.12160126 24.46836853 15.2407074 C24.46275048 18.72560325 24.45019492 22.21043592 24.4375 25.6953125 C24.43248733 28.05143137 24.42792402 30.40755124 24.42382812 32.76367188 C24.41277519 38.55340714 24.39601951 44.34310531 24.375 50.1328125 C24.045 50.1328125 23.715 50.1328125 23.375 50.1328125 C23.375 34.2928125 23.375 18.4528125 23.375 2.1328125 C22.715 2.4628125 22.055 2.7928125 21.375 3.1328125 C21.87 3.6278125 21.87 3.6278125 22.375 4.1328125 C22.46131874 5.47548663 22.48206473 6.82255572 22.47265625 8.16796875 C22.46943359 8.97685547 22.46621094 9.78574219 22.46289062 10.61914062 C22.45032227 11.8943457 22.45032227 11.8943457 22.4375 13.1953125 C22.43298828 14.04931641 22.42847656 14.90332031 22.42382812 15.78320312 C22.41200373 17.89976913 22.39406769 20.01629935 22.375 22.1328125 C16.93582283 23.26747529 11.65245741 23.28170641 6.125 23.2578125 C5.21492188 23.26167969 4.30484375 23.26554687 3.3671875 23.26953125 C2.06394531 23.26759766 2.06394531 23.26759766 0.734375 23.265625 C-0.05485352 23.26449707 -0.84408203 23.26336914 -1.65722656 23.26220703 C-3.625 23.1328125 -3.625 23.1328125 -5.625 22.1328125 C-5.61976318 22.94024902 -5.61452637 23.74768555 -5.60913086 24.57958984 C-5.58840071 28.22232288 -5.57535251 31.86504352 -5.5625 35.5078125 C-5.55412109 36.77882812 -5.54574219 38.04984375 -5.53710938 39.359375 C-5.53388672 40.57109375 -5.53066406 41.7828125 -5.52734375 43.03125 C-5.52210693 44.15192871 -5.51687012 45.27260742 -5.51147461 46.42724609 C-5.625 49.1328125 -5.625 49.1328125 -6.625 51.1328125 C4.265 51.1328125 15.155 51.1328125 26.375 51.1328125 C26.705 51.7928125 27.035 52.4528125 27.375 53.1328125 C14.835 53.1328125 2.295 53.1328125 -10.625 53.1328125 C-10.295 52.1428125 -9.965 51.1528125 -9.625 50.1328125 C-8.965 50.1328125 -8.305 50.1328125 -7.625 50.1328125 C-7.62722061 49.52115738 -7.62944122 48.90950226 -7.63172913 48.27931213 C-7.65378122 41.93710919 -7.66890627 35.59491706 -7.67993164 29.25268555 C-7.68497341 26.88288938 -7.69180665 24.51309635 -7.70043945 22.14331055 C-7.7125119 18.74527211 -7.71822971 15.34727465 -7.72265625 11.94921875 C-7.72781754 10.88256485 -7.73297882 9.81591095 -7.73829651 8.7169342 C-7.73837204 7.73599289 -7.73844757 6.75505157 -7.73852539 5.74438477 C-7.740746 4.87612564 -7.74296661 4.00786652 -7.74525452 3.11329651 C-7.47508686 -1.33612235 -3.63363233 0.00329133 0 0 Z M-5.625 2.1328125 C-5.295 2.7928125 -4.965 3.4528125 -4.625 4.1328125 C-3.965 3.4728125 -3.305 2.8128125 -2.625 2.1328125 C-3.615 2.1328125 -4.605 2.1328125 -5.625 2.1328125 Z M-0.625 7.1328125 C-0.625 10.4328125 -0.625 13.7328125 -0.625 17.1328125 C5.34174616 18.45875609 11.30083615 18.2212712 17.375 18.1328125 C17.375 14.8328125 17.375 11.5328125 17.375 8.1328125 C11.30684334 7.23382633 5.51096133 7.04759081 -0.625 7.1328125 Z " fill="#3D3730" transform="translate(24.625,12.8671875)"/>
<path d="M0 0 C0.71969467 -0.00145523 1.43938934 -0.00291046 2.18089294 -0.00440979 C3.69802918 -0.00275385 5.21518274 0.00877349 6.73217773 0.02954102 C9.05459816 0.05854385 11.37474128 0.05013655 13.69726562 0.03710938 C15.17318817 0.04334585 16.64910353 0.05173609 18.125 0.0625 C19.16570396 0.05809654 19.16570396 0.05809654 20.22743225 0.05360413 C23.0126923 0.10816186 25.04557156 0.21347542 27.43579102 1.71289062 C28.84227885 4.07830328 28.84961836 5.71508689 28.83203125 8.4609375 C28.84492187 9.42580078 28.8578125 10.39066406 28.87109375 11.38476562 C28.87109375 13.4134265 28.86331104 15.44210265 28.84765625 17.47070312 C28.8917582 20.22523736 28.96365849 22.79190566 29.49609375 25.49609375 C31.93825787 27.65509914 31.93825787 27.65509914 34.49609375 29.49609375 C35.27335451 32.39688816 35.28627371 35.2552079 35.30859375 38.24609375 C35.33373047 39.03886719 35.35886719 39.83164062 35.38476562 40.6484375 C35.44346105 42.5971257 35.47268355 44.54666234 35.49609375 46.49609375 C36.48609375 46.82609375 37.47609375 47.15609375 38.49609375 47.49609375 C39.16165284 44.39015131 39.57039174 41.92702209 39.02734375 38.77734375 C38.4214515 35.03506812 38.38601948 31.39775868 38.43359375 27.62109375 C38.43810547 26.93273437 38.44261719 26.244375 38.44726562 25.53515625 C38.45893039 23.8554304 38.47686104 22.17575 38.49609375 20.49609375 C37.71234375 20.20734375 36.92859375 19.91859375 36.12109375 19.62109375 C33.49609375 18.49609375 33.49609375 18.49609375 31.49609375 16.49609375 C30.93089372 13.84072003 30.75821177 11.20464662 30.49609375 8.49609375 C32.62109375 7.74609375 32.62109375 7.74609375 35.49609375 7.49609375 C38.80859375 9.43359375 38.80859375 9.43359375 41.49609375 11.49609375 C41.16609375 12.15609375 40.83609375 12.81609375 40.49609375 13.49609375 C39.93921875 13.02171875 39.38234375 12.54734375 38.80859375 12.05859375 C36.31263301 10.37213379 34.45147005 9.90656268 31.49609375 9.49609375 C31.49609375 10.15609375 31.49609375 10.81609375 31.49609375 11.49609375 C32.15609375 11.49609375 32.81609375 11.49609375 33.49609375 11.49609375 C33.78484375 12.46546875 34.07359375 13.43484375 34.37109375 14.43359375 C35.13824057 17.60273578 35.13824057 17.60273578 37.49609375 18.49609375 C36.83609375 16.84609375 36.17609375 15.19609375 35.49609375 13.49609375 C39.37109375 15.37109375 39.37109375 15.37109375 40.49609375 16.49609375 C40.55640412 20.11094633 40.51603882 23.71195799 40.45703125 27.32617188 C40.28298334 31.54316089 40.28298334 31.54316089 41.49609375 35.49609375 C41.61808513 37.49334795 41.67156887 39.49515356 41.68359375 41.49609375 C41.69777344 42.56859375 41.71195313 43.64109375 41.7265625 44.74609375 C41.49609375 47.49609375 41.49609375 47.49609375 39.49609375 49.49609375 C34.94053819 48.94053819 34.94053819 48.94053819 33.49609375 47.49609375 C33.36035702 43.91415231 33.2481026 40.33845898 33.2421875 36.75390625 C33.17090538 34.56291885 33.07573593 32.61235371 32.49609375 30.49609375 C31.66980469 30.06167969 30.84351563 29.62726562 29.9921875 29.1796875 C27.49609375 27.49609375 27.49609375 27.49609375 27.02490234 25.15820312 C26.84995063 22.0761629 26.79923355 19.02058787 26.80859375 15.93359375 C26.79205469 13.82804461 26.7677086 11.72253773 26.734375 9.6171875 C26.73477783 8.68318115 26.73518066 7.7491748 26.7355957 6.78686523 C26.71851672 4.29868623 26.71851672 4.29868623 24.49609375 2.49609375 C21.32185851 2.18358003 21.32185851 2.18358003 17.58984375 2.23046875 C16.9093396 2.2285553 16.22883545 2.22664185 15.52770996 2.22467041 C14.08861929 2.22330912 12.64951631 2.2270017 11.21044922 2.23535156 C9.00460288 2.24605247 6.79957094 2.23545503 4.59375 2.22265625 C3.19661278 2.22397786 1.79947607 2.22654027 0.40234375 2.23046875 C-0.87318359 2.23272461 -2.14871094 2.23498047 -3.46289062 2.23730469 C-6.61393055 2.17638309 -6.61393055 2.17638309 -8.50390625 4.49609375 C-8.81361712 6.61605133 -8.81361712 6.61605133 -8.77514648 9.08178711 C-8.7853331 10.03294907 -8.79551971 10.98411102 -8.80601501 11.96409607 C-8.80815506 12.99430374 -8.8102951 14.02451141 -8.8125 15.0859375 C-8.83765679 17.25325794 -8.86305487 19.42057558 -8.88867188 21.58789062 C-8.91745355 25.01586203 -8.94146197 28.44378502 -8.96020508 31.87182617 C-8.9818006 35.17261895 -9.02123448 38.47284078 -9.0625 41.7734375 C-9.06261581 42.80162094 -9.06273163 43.82980438 -9.06285095 44.8891449 C-9.07618973 45.84345901 -9.0895285 46.79777313 -9.10327148 47.78100586 C-9.10834213 48.62102646 -9.11341278 49.46104706 -9.11863708 50.32652283 C-9.58983865 52.98000589 -10.58850125 53.68737425 -12.50390625 55.49609375 C-12.50390625 56.48609375 -12.50390625 57.47609375 -12.50390625 58.49609375 C1.68609375 58.82609375 15.87609375 59.15609375 30.49609375 59.49609375 C30.49609375 59.82609375 30.49609375 60.15609375 30.49609375 60.49609375 C15.64609375 60.49609375 0.79609375 60.49609375 -14.50390625 60.49609375 C-14.83390625 58.84609375 -15.16390625 57.19609375 -15.50390625 55.49609375 C-14.54042962 54.46085813 -13.5376584 53.46116188 -12.50390625 52.49609375 C-12.06009633 50.28955691 -12.06009633 50.28955691 -12.13500977 47.81274414 C-12.12812637 46.86488541 -12.12124298 45.91702667 -12.114151 44.94044495 C-12.1203093 43.91853561 -12.12646759 42.89662628 -12.1328125 41.84375 C-12.11543156 39.6842432 -12.09784716 37.52473802 -12.08007812 35.36523438 C-12.06999556 31.95708233 -12.06641103 28.54903549 -12.06811523 25.14086914 C-12.06455108 21.85400841 -12.03722907 18.56796561 -12.0078125 15.28125 C-12.01599503 14.2613649 -12.02417755 13.2414798 -12.03260803 12.19068909 C-11.95954397 5.26683343 -11.95954397 5.26683343 -9.94140625 1.85302734 C-6.63535419 0.01257889 -3.68754986 -0.05988313 0 0 Z " fill="#4F483F" transform="translate(24.50390625,9.50390625)"/>
<path d="M0 0 C1.0186338 -0.00074776 1.0186338 -0.00074776 2.05784607 -0.00151062 C3.49098645 0.00082672 4.92413118 0.01053539 6.35717773 0.02709961 C8.55424544 0.05073447 10.75010275 0.04765358 12.94726562 0.04101562 C23.71694742 0.08413492 23.71694742 0.08413492 25.99609375 2.36328125 C26.19140625 5.40234375 26.19140625 5.40234375 26.12109375 8.98828125 C26.10304687 10.17679688 26.085 11.3653125 26.06640625 12.58984375 C26.04320312 13.50507813 26.02 14.4203125 25.99609375 15.36328125 C25.66609375 15.36328125 25.33609375 15.36328125 24.99609375 15.36328125 C24.93550781 14.58082031 24.87492187 13.79835938 24.8125 12.9921875 C24.72871094 11.98027344 24.64492188 10.96835937 24.55859375 9.92578125 C24.47738281 8.91644531 24.39617188 7.90710938 24.3125 6.8671875 C24.26397907 4.42687346 24.26397907 4.42687346 22.99609375 3.36328125 C20.77754111 3.27544583 18.55620879 3.25633516 16.3359375 3.265625 C15.6714711 3.26703995 15.0070047 3.2684549 14.32240295 3.26991272 C12.19275476 3.27552607 10.06321036 3.28808071 7.93359375 3.30078125 C6.49284006 3.30579454 5.05208472 3.31035774 3.61132812 3.31445312 C0.07288273 3.3254998 -3.46550164 3.34277333 -7.00390625 3.36328125 C-7.01270561 4.2741021 -7.01270561 4.2741021 -7.02168274 5.20332336 C-7.08553353 11.513707 -7.16993128 17.8235767 -7.26635742 24.13354492 C-7.29964645 26.48959586 -7.32766586 28.84572731 -7.3503418 31.2019043 C-7.38381428 34.58547332 -7.43612717 37.96830179 -7.4921875 41.3515625 C-7.50177238 42.93605949 -7.50177238 42.93605949 -7.5115509 44.55256653 C-7.53134506 45.53335678 -7.55113922 46.51414703 -7.5715332 47.5246582 C-7.58263626 48.3884761 -7.59373932 49.25229401 -7.60517883 50.14228821 C-8.00390625 52.36328125 -8.00390625 52.36328125 -11.00390625 55.36328125 C1.20609375 55.03328125 13.41609375 54.70328125 25.99609375 54.36328125 C25.66609375 53.70328125 25.33609375 53.04328125 24.99609375 52.36328125 C24.91117875 50.47689005 24.88890075 48.5874961 24.8984375 46.69921875 C24.90166016 45.57773437 24.90488281 44.45625 24.90820312 43.30078125 C24.92077148 41.53734375 24.92077148 41.53734375 24.93359375 39.73828125 C24.93810547 38.55492187 24.94261719 37.3715625 24.94726562 36.15234375 C24.95907908 33.22260618 24.97555117 30.29296853 24.99609375 27.36328125 C25.32609375 27.36328125 25.65609375 27.36328125 25.99609375 27.36328125 C26.01067627 28.07460205 26.02525879 28.78592285 26.0402832 29.51879883 C26.11470381 32.73834457 26.21138375 35.95684643 26.30859375 39.17578125 C26.34243164 40.85510742 26.34243164 40.85510742 26.37695312 42.56835938 C26.41240234 43.64150391 26.44785156 44.71464844 26.484375 45.8203125 C26.51055908 46.8100708 26.53674316 47.7998291 26.5637207 48.81958008 C27.06649467 51.77745812 27.89766124 52.35698016 29.99609375 54.36328125 C29.99609375 55.68328125 29.99609375 57.00328125 29.99609375 58.36328125 C15.80609375 58.36328125 1.61609375 58.36328125 -13.00390625 58.36328125 C-13.33390625 57.04328125 -13.66390625 55.72328125 -14.00390625 54.36328125 C-13.01894648 53.3484639 -12.01749925 52.34950092 -11.00390625 51.36328125 C-10.553386 49.14999005 -10.553386 49.14999005 -10.61914062 46.6640625 C-10.60902954 45.71297607 -10.59891846 44.76188965 -10.58850098 43.78198242 C-10.59152222 42.75693604 -10.59454346 41.73188965 -10.59765625 40.67578125 C-10.58682007 39.62173096 -10.57598389 38.56768066 -10.56481934 37.48168945 C-10.53048897 34.10882426 -10.51494801 30.73629841 -10.50390625 27.36328125 C-10.48937877 22.92545266 -10.45577713 18.48838689 -10.41015625 14.05078125 C-10.41317749 13.02573486 -10.41619873 12.00068848 -10.41931152 10.94458008 C-10.40920044 9.99349365 -10.39908936 9.04240723 -10.38867188 8.0625 C-10.38661743 7.22549561 -10.38456299 6.38849121 -10.38244629 5.52612305 C-9.36415108 -0.29204998 -5.07488079 -0.01190909 0 0 Z " fill="#BFAF9B" transform="translate(25.00390625,10.63671875)"/>
<path d="M0 0 C3.97921094 -0.02682614 7.95824341 -0.04675393 11.9375 -0.0625 C13.07380859 -0.07087891 14.21011719 -0.07925781 15.38085938 -0.08789062 C16.46044922 -0.09111328 17.54003906 -0.09433594 18.65234375 -0.09765625 C20.15269165 -0.10551147 20.15269165 -0.10551147 21.68334961 -0.11352539 C24 0 24 0 25 1 C25.07325436 3.6986905 25.09222351 6.36502556 25.0625 9.0625 C25.041875 11.681875 25.02125 14.30125 25 17 C16.75 17 8.5 17 0 17 C0 11.39 0 5.78 0 0 Z M3 3 C3 6.3 3 9.6 3 13 C8.96674616 14.32594359 14.92583615 14.0884587 21 14 C21 10.7 21 7.4 21 4 C14.93184334 3.10101383 9.13596133 2.91477831 3 3 Z " fill="#D4C3AB" transform="translate(21,17)"/>
<path d="M0 0 C2.95898438 2.70751953 2.95898438 2.70751953 3.328125 5.33984375 C3.30234375 6.19707031 3.2765625 7.05429687 3.25 7.9375 C3.22679687 9.21947266 3.22679687 9.21947266 3.203125 10.52734375 C3 13 3 13 2.421875 15.0234375 C1.88514405 17.53812138 2.36095146 19.20719287 3 21.6875 C4.05787069 26.62666176 4.52058675 31.11027005 3 36 C0.875 38.625 0.875 38.625 -2 40 C-5.625 40 -5.625 40 -9 39 C-10.9375 36.9375 -10.9375 36.9375 -12 35 C-11.62095792 38.29075996 -11.62095792 38.29075996 -10 41 C-9.95936168 42.66617115 -9.957279 44.33388095 -10 46 C-10.28875 45.38125 -10.5775 44.7625 -10.875 44.125 C-11.93720042 41.86674235 -11.93720042 41.86674235 -14 40 C-14.22705078 37.66162109 -14.22705078 37.66162109 -14.1953125 34.7734375 C-14.18886719 33.7421875 -14.18242188 32.7109375 -14.17578125 31.6484375 C-14.15902344 30.56820312 -14.14226563 29.48796875 -14.125 28.375 C-14.11597656 27.28703125 -14.10695312 26.1990625 -14.09765625 25.078125 C-14.07403409 22.38519848 -14.04109556 19.69270745 -14 17 C-12.68 17.33 -11.36 17.66 -10 18 C-9.93941406 19.28777344 -9.87882812 20.57554688 -9.81640625 21.90234375 C-9.73201753 23.58074159 -9.6473687 25.25912636 -9.5625 26.9375 C-9.52318359 27.78763672 -9.48386719 28.63777344 -9.44335938 29.51367188 C-9.40146484 30.32255859 -9.35957031 31.13144531 -9.31640625 31.96484375 C-9.27974854 32.7137085 -9.24309082 33.46257324 -9.20532227 34.23413086 C-9.18228937 36.02461326 -9.18228937 36.02461326 -8 37 C-4.54178598 37.25003964 -4.54178598 37.25003964 -1 37 C1.34263547 35.09354599 1.34263547 35.09354599 1.23046875 31.8125 C1.21628906 30.554375 1.20210937 29.29625 1.1875 28 C1.18105469 26.741875 1.17460938 25.48375 1.16796875 24.1875 C1.2183004 21.10366209 1.2183004 21.10366209 0 19 C-0.08342159 17.55151418 -0.10732861 16.09929131 -0.09765625 14.6484375 C-0.09443359 13.79765625 -0.09121094 12.946875 -0.08789062 12.0703125 C-0.07532227 10.73613281 -0.07532227 10.73613281 -0.0625 9.375 C-0.05798828 8.4778125 -0.05347656 7.580625 -0.04882812 6.65625 C-0.03702591 4.43743352 -0.02056155 2.21874982 0 0 Z " fill="#4B443B" transform="translate(66,23)"/>
<path d="M0 0 C3.50529602 -0.40060526 4.7739406 -0.15413141 7.75 1.875 C10 4 10 4 11 6 C11.05904663 9.63136791 11.02055373 13.24827772 10.9609375 16.87890625 C10.79006557 21.0710661 10.79006557 21.0710661 12 25 C12.14879681 27.30921203 12.22134584 29.6236764 12.25 31.9375 C12.27578125 33.18402344 12.3015625 34.43054687 12.328125 35.71484375 C12 39 12 39 10.65234375 40.9296875 C8.38331491 42.39946032 6.64370834 42.21435473 4 42 C4.825 41.5875 5.65 41.175 6.5 40.75 C10.03664801 36.85968719 9.43510694 33.76605689 9.2734375 28.6796875 C9.16293734 26.03078572 9.16293734 26.03078572 8 24 C8.04064003 20.39781524 8.12656904 16.80693742 8.30273438 13.20898438 C8.40475961 10.65852106 8.40475961 10.65852106 8 7 C6.15842496 4.9111061 6.15842496 4.9111061 4 4 C4.66 5.65 5.32 7.3 6 9 C4.68 8.34 3.36 7.68 2 7 C2 5.35 2 3.7 2 2 C1.34 2 0.68 2 0 2 C0 1.34 0 0.68 0 0 Z " fill="#D4C2AB" transform="translate(56,19)"/>
<path d="M0 0 C0.33 0 0.66 0 1 0 C1.05058729 6.94170022 1.08568579 13.88335315 1.10986328 20.82519531 C1.11993924 23.18816911 1.13360029 25.55113039 1.15087891 27.9140625 C1.17505724 31.30471888 1.18646699 34.69521084 1.1953125 38.0859375 C1.20563507 39.14743011 1.21595764 40.20892273 1.22659302 41.30258179 C1.22674408 42.28344757 1.22689514 43.26431335 1.22705078 44.27490234 C1.231492 45.14094086 1.23593323 46.00697937 1.24050903 46.89926147 C1 49 1 49 -1 51 C-1 51.99 -1 52.98 -1 54 C13.19 54.33 27.38 54.66 42 55 C42 55.33 42 55.66 42 56 C27.15 56 12.3 56 -3 56 C-3.33 54.35 -3.66 52.7 -4 51 C-3.03662402 49.96467072 -2.03366664 48.96515972 -1 48 C-0.52934376 45.76641457 -0.52934376 45.76641457 -0.56762695 43.25317383 C-0.54783279 42.29240433 -0.52803864 41.33163483 -0.50764465 40.3417511 C-0.50125473 39.30729355 -0.49486481 38.272836 -0.48828125 37.20703125 C-0.46135445 35.61528328 -0.46135445 35.61528328 -0.43388367 33.99137878 C-0.37965476 30.59845975 -0.3458441 27.20568238 -0.3125 23.8125 C-0.2793381 21.5136521 -0.2448495 19.21482294 -0.20898438 16.91601562 C-0.12392118 11.27747079 -0.05562466 5.6389079 0 0 Z " fill="#2E2A24" transform="translate(13,14)"/>
<path d="M0 0 C7.26 0 14.52 0 22 0 C22 4.29 22 8.58 22 13 C14.74 13 7.48 13 0 13 C0 8.71 0 4.42 0 0 Z M2 1 C2 4.3 2 7.6 2 11 C7.96674616 12.32594359 13.92583615 12.0884587 20 12 C20 8.7 20 5.4 20 2 C13.93184334 1.10101383 8.13596133 0.91477831 2 1 Z " fill="#49423A" transform="translate(22,19)"/>
<path d="M0 0 C4.37823917 -0.04938149 8.75633146 -0.0857104 13.13476562 -0.10986328 C14.6247032 -0.11993043 16.11462097 -0.13358518 17.60449219 -0.15087891 C19.74419028 -0.17509653 21.88362753 -0.18647564 24.0234375 -0.1953125 C25.31169434 -0.20578613 26.59995117 -0.21625977 27.92724609 -0.22705078 C31 0 31 0 33 2 C33.1953125 5.0390625 33.1953125 5.0390625 33.125 8.625 C33.10695312 9.81351563 33.08890625 11.00203125 33.0703125 12.2265625 C33.04710937 13.14179688 33.02390625 14.05703125 33 15 C32.67 15 32.34 15 32 15 C31.93941406 14.21753906 31.87882812 13.43507813 31.81640625 12.62890625 C31.73261719 11.61699219 31.64882813 10.60507812 31.5625 9.5625 C31.48128906 8.55316406 31.40007813 7.54382813 31.31640625 6.50390625 C31.26788532 4.06359221 31.26788532 4.06359221 30 3 C27.80522309 2.8998509 25.607216 2.86918781 23.41015625 2.8671875 C22.42057167 2.86575241 22.42057167 2.86575241 21.41099548 2.86428833 C20.01300969 2.86360664 18.61502076 2.86546014 17.21704102 2.86962891 C15.07496018 2.87496894 12.93308983 2.86968801 10.79101562 2.86328125 C9.43489537 2.8639422 8.07877524 2.86522371 6.72265625 2.8671875 C5.48265869 2.86831543 4.24266113 2.86944336 2.96508789 2.87060547 C0.07010625 2.79503302 0.07010625 2.79503302 -2 4 C-1.34 2.68 -0.68 1.36 0 0 Z " fill="#D1BEA7" transform="translate(18,11)"/>
<path d="M0 0 C0.33 0 0.66 0 1 0 C1.01981934 0.71655762 1.03963867 1.43311523 1.06005859 2.17138672 C1.15509519 5.4063063 1.26486019 8.64056094 1.375 11.875 C1.4059375 13.00292969 1.436875 14.13085938 1.46875 15.29296875 C1.50742187 16.36933594 1.54609375 17.44570313 1.5859375 18.5546875 C1.63306885 20.04718018 1.63306885 20.04718018 1.68115234 21.56982422 C1.77247083 24.17854517 1.77247083 24.17854517 4 26 C4 27.32 4 28.64 4 30 C-6.23 30 -16.46 30 -27 30 C-27 29.67 -27 29.34 -27 29 C-17.43 29 -7.86 29 2 29 C1.34 27.68 0.68 26.36 0 25 C-0.22705078 22.25097656 -0.22705078 22.25097656 -0.1953125 19.140625 C-0.18886719 18.02558594 -0.18242188 16.91054688 -0.17578125 15.76171875 C-0.15902344 14.60285156 -0.14226563 13.44398437 -0.125 12.25 C-0.11597656 11.07566406 -0.10695313 9.90132812 -0.09765625 8.69140625 C-0.07410063 5.79406464 -0.04120652 2.89713559 0 0 Z " fill="#DFCAB2" transform="translate(50,38)"/>
<path d="M0 0 C4.23169259 0.37615045 6.8083482 1.17661571 10 4 C9.67 4.66 9.34 5.32 9 6 C8.443125 5.525625 7.88625 5.05125 7.3125 4.5625 C4.81653926 2.87604004 2.9553763 2.41046893 0 2 C0 2.66 0 3.32 0 4 C0.66 4 1.32 4 2 4 C2.28875 4.969375 2.5775 5.93875 2.875 6.9375 C3.64214682 10.10664203 3.64214682 10.10664203 6 11 C5.34 9.35 4.68 7.7 4 6 C5.32 6.66 6.64 7.32 8 8 C8 9.65 8 11.3 8 13 C5.45889061 12.65660684 3.45538602 12.27648437 1.25 10.9375 C-0.78594748 7.78178141 -0.75979513 4.7231755 -1 1 C-0.67 0.67 -0.34 0.34 0 0 Z " fill="#38332D" transform="translate(56,17)"/>
<path d="M0 0 C3.60296594 -0.41176754 4.78402067 -0.1535853 7.8125 2 C8.534375 2.66 9.25625 3.32 10 4 C9.67 4.99 9.34 5.98 9 7 C7.35 6.01 5.7 5.02 4 4 C4.66 5.65 5.32 7.3 6 9 C4.68 8.34 3.36 7.68 2 7 C2 5.35 2 3.7 2 2 C1.34 2 0.68 2 0 2 C0 1.34 0 0.68 0 0 Z " fill="#C1B19C" transform="translate(56,19)"/>
<path d="M0 0 C0.66 0 1.32 0 2 0 C2.08097324 2.27024968 2.13917704 4.54132075 2.1875 6.8125 C2.22230469 8.07707031 2.25710937 9.34164062 2.29296875 10.64453125 C2 14 2 14 0.65625 15.9375 C-1.6159092 17.39511156 -3.35930275 17.21411059 -6 17 C-5.19175781 16.47921875 -4.38351563 15.9584375 -3.55078125 15.421875 C-0.28552722 12.32163381 -0.32025631 10.67521033 -0.1875 6.25 C-0.13980469 5.07953125 -0.09210938 3.9090625 -0.04296875 2.703125 C-0.02878906 1.81109375 -0.01460938 0.9190625 0 0 Z " fill="#E0CDB7" transform="translate(66,44)"/>
<path d="M0 0 C2.95898438 2.70751953 2.95898438 2.70751953 3.328125 5.33984375 C3.30234375 6.19707031 3.2765625 7.05429687 3.25 7.9375 C3.22679688 9.21947266 3.22679688 9.21947266 3.203125 10.52734375 C3 13 3 13 2.45703125 15.14453125 C1.84328223 17.63624735 2.38546754 19.54187015 3 22 C1.01489942 20.36292167 0.08152696 19.49903853 -0.34057617 16.9152832 C-0.32486572 16.13499756 -0.30915527 15.35471191 -0.29296875 14.55078125 C-0.28330078 13.70322266 -0.27363281 12.85566406 -0.26367188 11.98242188 C-0.23853516 11.10134766 -0.21339844 10.22027344 -0.1875 9.3125 C-0.17396484 8.41982422 -0.16042969 7.52714844 -0.14648438 6.60742188 C-0.11114079 4.40433834 -0.06180493 2.20247418 0 0 Z " fill="#403A33" transform="translate(66,23)"/>
</svg>
