<?xml version="1.0" encoding="UTF-8"?>
<svg version="1.1" xmlns="http://www.w3.org/2000/svg" width="110" height="79">
<path d="M0 0 C1.3487043 -0.00855011 1.3487043 -0.00855011 2.72465515 -0.01727295 C4.63209857 -0.02673922 6.53955846 -0.03326336 8.44702148 -0.03710938 C11.36406117 -0.04679973 14.28039196 -0.07780123 17.19726562 -0.109375 C19.04817289 -0.11590628 20.8990852 -0.12115626 22.75 -0.125 C23.62304276 -0.1373468 24.49608551 -0.1496936 25.39558411 -0.16241455 C31.42496552 -0.14027543 31.42496552 -0.14027543 34.59448242 1.53613281 C36.07421875 3.203125 36.07421875 3.203125 37.07421875 6.203125 C37.85539062 6.46222656 38.6365625 6.72132812 39.44140625 6.98828125 C43.17930545 8.71303889 43.66984429 10.89240399 45.19921875 14.640625 C47.3616526 19.96315108 47.3616526 19.96315108 51.07421875 24.203125 C52.89855064 27.85178878 52.34466601 32.12318623 52.38671875 36.140625 C52.43022461 37.52024414 52.43022461 37.52024414 52.47460938 38.92773438 C52.48298828 39.81138672 52.49136719 40.69503906 52.5 41.60546875 C52.51458252 42.41491943 52.52916504 43.22437012 52.54418945 44.05834961 C52.07421875 46.203125 52.07421875 46.203125 50.21948242 47.97875977 C47.65192654 49.44413961 45.9846541 49.44566128 43.07421875 49.203125 C42.80609375 49.80125 42.53796875 50.399375 42.26171875 51.015625 C41.03909803 53.26782107 40.04867192 54.58271171 38.07421875 56.203125 C35.00934877 56.89185983 32.15306369 56.79624749 29.07421875 56.203125 C26.01171875 53.828125 26.01171875 53.828125 24.07421875 51.203125 C24.07421875 50.543125 24.07421875 49.883125 24.07421875 49.203125 C17.47421875 49.203125 10.87421875 49.203125 4.07421875 49.203125 C3.41421875 50.523125 2.75421875 51.843125 2.07421875 53.203125 C0.43523482 55.28738202 -0.40689107 56.08652047 -3.01171875 56.671875 C-7.4769332 56.73283356 -9.33450663 56.6616645 -12.98828125 53.828125 C-14.92578125 51.203125 -14.92578125 51.203125 -14.92578125 49.203125 C-16.03953125 49.1 -17.15328125 48.996875 -18.30078125 48.890625 C-20.09515625 48.5503125 -20.09515625 48.5503125 -21.92578125 48.203125 C-24.89660072 43.74689579 -24.30903927 39.51359855 -24.30078125 34.265625 C-24.29916992 33.22615723 -24.29755859 32.18668945 -24.29589844 31.11572266 C-24.14914342 21.92339125 -22.80293259 14.87849593 -17.92578125 6.953125 C-15.92578125 5.203125 -15.92578125 5.203125 -11.92578125 5.203125 C-11.61640625 4.56375 -11.30703125 3.924375 -10.98828125 3.265625 C-8.64945688 -1.27444584 -4.60007759 0.022238 0 0 Z M-7.92578125 6.203125 C-7.92578125 6.533125 -7.92578125 6.863125 -7.92578125 7.203125 C1.64421875 7.203125 11.21421875 7.203125 21.07421875 7.203125 C21.07421875 13.143125 21.07421875 19.083125 21.07421875 25.203125 C8.53421875 25.203125 -4.00578125 25.203125 -16.92578125 25.203125 C-16.92578125 23.553125 -16.92578125 21.903125 -16.92578125 20.203125 C-19.06182433 23.40718962 -19.16787033 24.19913247 -19.12109375 27.87109375 C-19.11464844 28.76376953 -19.10820312 29.65644531 -19.1015625 30.57617188 C-19.08480469 31.50494141 -19.06804688 32.43371094 -19.05078125 33.390625 C-19.04175781 34.33099609 -19.03273438 35.27136719 -19.0234375 36.24023438 C-18.99987181 38.56145468 -18.96697241 40.88216144 -18.92578125 43.203125 C-16.49898272 43.41165654 -16.49898272 43.41165654 -13.92578125 43.203125 C-13.34828125 42.378125 -12.77078125 41.553125 -12.17578125 40.703125 C-9.92578125 38.203125 -9.92578125 38.203125 -7.78125 37.8359375 C-4.19406155 37.82434723 -1.34785111 38.06243505 2.07421875 39.203125 C3.26171875 41.765625 3.26171875 41.765625 4.07421875 44.203125 C7.34458603 44.34822662 10.61412882 44.43711873 13.88671875 44.515625 C14.81548828 44.55751953 15.74425781 44.59941406 16.70117188 44.64257812 C19.25117799 44.68860712 21.56899646 44.68727902 24.07421875 44.203125 C26.18228161 41.88757901 26.18228161 41.88757901 27.07421875 39.203125 C30.55921737 37.46062569 34.28356019 37.47767138 38.07421875 38.203125 C40.36439588 40.00480104 41.46553562 41.7122608 43.07421875 44.203125 C45.05421875 43.708125 45.05421875 43.708125 47.07421875 43.203125 C47.07421875 41.553125 47.07421875 39.903125 47.07421875 38.203125 C46.41421875 38.203125 45.75421875 38.203125 45.07421875 38.203125 C45.07421875 37.543125 45.07421875 36.883125 45.07421875 36.203125 C44.41421875 35.56375 43.75421875 34.924375 43.07421875 34.265625 C41.07421875 32.203125 41.07421875 32.203125 41.07421875 29.203125 C43.05421875 29.203125 45.03421875 29.203125 47.07421875 29.203125 C46.08421875 26.728125 46.08421875 26.728125 45.07421875 24.203125 C37.48421875 24.533125 29.89421875 24.863125 22.07421875 25.203125 C22.40421875 19.593125 22.73421875 13.983125 23.07421875 8.203125 C27.52921875 7.708125 27.52921875 7.708125 32.07421875 7.203125 C32.07421875 6.873125 32.07421875 6.543125 32.07421875 6.203125 C18.87421875 6.203125 5.67421875 6.203125 -7.92578125 6.203125 Z M-8.92578125 12.203125 C-10.94064694 16.07832627 -10.94064694 16.07832627 -11.92578125 20.203125 C-7.96578125 20.203125 -4.00578125 20.203125 0.07421875 20.203125 C-0.25578125 17.563125 -0.58578125 14.923125 -0.92578125 12.203125 C-3.56578125 12.203125 -6.20578125 12.203125 -8.92578125 12.203125 Z M5.07421875 12.203125 C5.07421875 14.843125 5.07421875 17.483125 5.07421875 20.203125 C8.70421875 20.203125 12.33421875 20.203125 16.07421875 20.203125 C16.11663598 17.87017725 16.11514812 15.53609933 16.07421875 13.203125 C15.04015202 11.94363451 15.04015202 11.94363451 12.7890625 12.10546875 C11.87253906 12.11707031 10.95601562 12.12867188 10.01171875 12.140625 C9.09261719 12.14964844 8.17351563 12.15867187 7.2265625 12.16796875 C6.51628906 12.17957031 5.80601563 12.19117188 5.07421875 12.203125 Z M27.07421875 12.203125 C27.07421875 14.843125 27.07421875 17.483125 27.07421875 20.203125 C30.37421875 20.203125 33.67421875 20.203125 37.07421875 20.203125 C35.55556661 15.90423887 35.55556661 15.90423887 33.07421875 12.203125 C31.07463511 12.16231717 29.07376621 12.16058144 27.07421875 12.203125 Z M-16.92578125 17.203125 C-15.92578125 19.203125 -15.92578125 19.203125 -15.92578125 19.203125 Z M-9.92578125 44.203125 C-10.25911458 46.703125 -10.25911458 46.703125 -9.92578125 49.203125 C-8.09874898 51.4523158 -8.09874898 51.4523158 -5.42578125 51.453125 C-2.75281352 51.4523158 -2.75281352 51.4523158 -0.92578125 49.203125 C-0.59244792 46.703125 -0.59244792 46.703125 -0.92578125 44.203125 C-2.75281352 41.9539342 -2.75281352 41.9539342 -5.42578125 41.953125 C-8.09874898 41.9539342 -8.09874898 41.9539342 -9.92578125 44.203125 Z M29.07421875 44.203125 C28.82416489 47.24495393 28.82416489 47.24495393 29.07421875 50.203125 C30.18588739 51.53500293 30.18588739 51.53500293 33.01171875 51.390625 C36.18314734 51.53591233 36.18314734 51.53591233 38.07421875 49.203125 C38.40755208 46.703125 38.40755208 46.703125 38.07421875 44.203125 C36.24718648 41.9539342 36.24718648 41.9539342 33.57421875 41.953125 C30.90125102 41.9539342 30.90125102 41.9539342 29.07421875 44.203125 Z " fill="#B1A08D" transform="translate(40.92578125,10.796875)"/>
<path d="M0 0 C1.3487043 -0.00855011 1.3487043 -0.00855011 2.72465515 -0.01727295 C4.63209857 -0.02673922 6.53955846 -0.03326336 8.44702148 -0.03710938 C11.36406117 -0.04679973 14.28039196 -0.07780123 17.19726562 -0.109375 C19.04817289 -0.11590628 20.8990852 -0.12115626 22.75 -0.125 C23.62304276 -0.1373468 24.49608551 -0.1496936 25.39558411 -0.16241455 C31.42496552 -0.14027543 31.42496552 -0.14027543 34.59448242 1.53613281 C36.07421875 3.203125 36.07421875 3.203125 37.07421875 6.203125 C37.85539062 6.46222656 38.6365625 6.72132812 39.44140625 6.98828125 C43.17930545 8.71303889 43.66984429 10.89240399 45.19921875 14.640625 C47.3616526 19.96315108 47.3616526 19.96315108 51.07421875 24.203125 C52.89855064 27.85178878 52.34466601 32.12318623 52.38671875 36.140625 C52.43022461 37.52024414 52.43022461 37.52024414 52.47460938 38.92773438 C52.48298828 39.81138672 52.49136719 40.69503906 52.5 41.60546875 C52.51458252 42.41491943 52.52916504 43.22437012 52.54418945 44.05834961 C52.07421875 46.203125 52.07421875 46.203125 50.21948242 47.97875977 C47.65192654 49.44413961 45.9846541 49.44566128 43.07421875 49.203125 C42.80609375 49.80125 42.53796875 50.399375 42.26171875 51.015625 C41.03310656 53.27885797 40.08006591 54.59844727 38.07421875 56.203125 C35.8125 56.49609375 35.8125 56.49609375 33.38671875 56.390625 C32.17435547 56.35001953 32.17435547 56.35001953 30.9375 56.30859375 C30.32261719 56.27378906 29.70773438 56.23898438 29.07421875 56.203125 C29.07421875 55.873125 29.07421875 55.543125 29.07421875 55.203125 C29.68910156 55.09355469 30.30398437 54.98398438 30.9375 54.87109375 C31.74574219 54.71253906 32.55398437 54.55398437 33.38671875 54.390625 C34.18722656 54.23980469 34.98773438 54.08898437 35.8125 53.93359375 C38.36461149 53.10933667 39.42738663 52.29586859 41.07421875 50.203125 C41.40421875 49.213125 41.73421875 48.223125 42.07421875 47.203125 C45.53921875 46.708125 45.53921875 46.708125 49.07421875 46.203125 C50.42353098 42.24788915 50.10613456 38.30880395 49.88671875 34.203125 C49.85868164 33.13578125 49.85868164 33.13578125 49.83007812 32.046875 C49.64789744 28.62059971 49.45633776 26.63816477 47.15625 24.01953125 C46.12564453 23.12041016 46.12564453 23.12041016 45.07421875 22.203125 C43.87890625 19.73046875 43.87890625 19.73046875 42.94921875 17.140625 C41.84776991 14.11391641 40.88062503 11.91273443 39.07421875 9.203125 C36.44724811 8.98175107 34.06527911 8.92150475 31.44921875 9.015625 C30.7428125 9.02916016 30.03640625 9.04269531 29.30859375 9.05664062 C27.56347747 9.0920146 25.81875267 9.14582279 24.07421875 9.203125 C23.74421875 13.823125 23.41421875 18.443125 23.07421875 23.203125 C29.01421875 23.203125 34.95421875 23.203125 41.07421875 23.203125 C40.43484375 21.800625 39.79546875 20.398125 39.13671875 18.953125 C37.81528777 16.05450221 36.75304918 13.31859941 36.07421875 10.203125 C39.16959226 11.27049518 40.05877872 12.17831067 41.82421875 15.015625 C43.02150853 18.06871393 43.35894683 19.97620679 43.07421875 23.203125 C43.73421875 23.533125 44.39421875 23.863125 45.07421875 24.203125 C42.19156726 25.16400883 40.39759604 25.31983441 37.40625 25.30078125 C36.51357422 25.29755859 35.62089844 25.29433594 34.70117188 25.29101562 C33.77240234 25.28263672 32.84363281 25.27425781 31.88671875 25.265625 C30.94634766 25.26111328 30.00597656 25.25660156 29.03710938 25.25195312 C26.71608163 25.24017126 24.39518231 25.22372058 22.07421875 25.203125 C22.08582031 23.98753906 22.09742188 22.77195312 22.109375 21.51953125 C22.11875153 19.93489736 22.12785188 18.35026182 22.13671875 16.765625 C22.14928711 15.56196289 22.14928711 15.56196289 22.16210938 14.33398438 C22.17073305 12.29017279 22.12650025 10.24628598 22.07421875 8.203125 C21.57921875 7.708125 21.57921875 7.708125 21.07421875 7.203125 C21.07421875 13.143125 21.07421875 19.083125 21.07421875 25.203125 C8.53421875 25.203125 -4.00578125 25.203125 -16.92578125 25.203125 C-17.25578125 24.543125 -17.58578125 23.883125 -17.92578125 23.203125 C-18.25578125 29.803125 -18.58578125 36.403125 -18.92578125 43.203125 C-17.27578125 43.203125 -15.62578125 43.203125 -13.92578125 43.203125 C-13.92578125 43.863125 -13.92578125 44.523125 -13.92578125 45.203125 C-15.90578125 45.203125 -17.88578125 45.203125 -19.92578125 45.203125 C-20.8369263 17.630474 -20.8369263 17.630474 -15.92578125 10.203125 C-13.78515625 9.4140625 -13.78515625 9.4140625 -11.92578125 9.203125 C-12.49923062 12.07037186 -12.78723275 13.0645765 -14.92578125 15.203125 C-15.88430408 18.0786935 -15.92578125 20.07422589 -15.92578125 23.203125 C-4.04578125 23.203125 7.83421875 23.203125 20.07421875 23.203125 C19.74421875 18.583125 19.41421875 13.963125 19.07421875 9.203125 C5.21421875 8.708125 5.21421875 8.708125 -8.92578125 8.203125 C-8.59578125 6.883125 -8.26578125 5.563125 -7.92578125 4.203125 C-2.26579102 4.17845033 3.39416807 4.16027712 9.05419922 4.14819336 C10.98063706 4.14315713 12.90707106 4.13632788 14.83349609 4.12768555 C17.59864243 4.11558892 20.36373833 4.10988967 23.12890625 4.10546875 C24.42584915 4.09772682 24.42584915 4.09772682 25.74899292 4.08982849 C31.84647534 4.08925329 31.84647534 4.08925329 34.07421875 5.203125 C33.57921875 4.213125 33.57921875 4.213125 33.07421875 3.203125 C27.12942246 3.12910921 21.18489282 3.07458687 15.23974609 3.03833008 C13.21626109 3.02321974 11.19280895 3.00273063 9.16943359 2.97680664 C6.2652171 2.94052172 3.3614326 2.92342145 0.45703125 2.91015625 C-0.45134491 2.89467239 -1.35972107 2.87918854 -2.29562378 2.86323547 C-3.1363443 2.86300888 -3.97706482 2.86278229 -4.84326172 2.86254883 C-5.58494598 2.85588699 -6.32663025 2.84922516 -7.09078979 2.84236145 C-7.69633698 2.96141342 -8.30188416 3.08046539 -8.92578125 3.203125 C-9.91578125 4.688125 -9.91578125 4.688125 -10.92578125 6.203125 C-11.70953125 6.409375 -12.49328125 6.615625 -13.30078125 6.828125 C-17.45733039 9.00536503 -18.43296315 12.91493183 -19.92578125 17.203125 C-20.97628579 20.60983527 -21.04087341 23.72432341 -21.0234375 27.28125 C-21.02021484 28.44140625 -21.01699219 29.6015625 -21.01367188 30.796875 C-21.00529297 32.0034375 -20.99691406 33.21 -20.98828125 34.453125 C-20.98376953 35.67515625 -20.97925781 36.8971875 -20.97460938 38.15625 C-20.9628294 41.17192446 -20.94637978 44.18749998 -20.92578125 47.203125 C-18.61578125 47.203125 -16.30578125 47.203125 -13.92578125 47.203125 C-12.44078125 50.668125 -12.44078125 50.668125 -10.92578125 54.203125 C-11.58578125 54.203125 -12.24578125 54.203125 -12.92578125 54.203125 C-13.58578125 52.553125 -14.24578125 50.903125 -14.92578125 49.203125 C-16.03953125 49.1 -17.15328125 48.996875 -18.30078125 48.890625 C-20.09515625 48.5503125 -20.09515625 48.5503125 -21.92578125 48.203125 C-24.89660072 43.74689579 -24.30903927 39.51359855 -24.30078125 34.265625 C-24.29916992 33.22615723 -24.29755859 32.18668945 -24.29589844 31.11572266 C-24.14914342 21.92339125 -22.80293259 14.87849593 -17.92578125 6.953125 C-15.92578125 5.203125 -15.92578125 5.203125 -11.92578125 5.203125 C-11.61640625 4.56375 -11.30703125 3.924375 -10.98828125 3.265625 C-8.64945688 -1.27444584 -4.60007759 0.022238 0 0 Z " fill="#453E36" transform="translate(40.92578125,10.796875)"/>
<path d="M0 0 C13.86 0 27.72 0 42 0 C42.495 1.485 42.495 1.485 43 3 C29.14 3 15.28 3 1 3 C0.67 3.99 0.34 4.98 0 6 C0.84296631 5.99476318 1.68593262 5.98952637 2.55444336 5.98413086 C5.67227936 5.96712174 8.79009177 5.95456594 11.90795898 5.94506836 C13.25920386 5.94002943 14.61044326 5.93319823 15.96166992 5.92456055 C17.90020434 5.91247581 19.838778 5.90730172 21.77734375 5.90234375 C23.52905884 5.89448853 23.52905884 5.89448853 25.31616211 5.88647461 C28 6 28 6 29 7 C29 11.62 29 16.24 29 21 C17.12 21 5.24 21 -7 21 C-7 14 -7 14 -6 11 C-5.34 11 -4.68 11 -4 11 C-4 10.01 -4 9.02 -4 8 C-4.66 8 -5.32 8 -6 8 C-11.16695676 19.17504601 -10.82181279 30.91399156 -11 43 C-9.02 43 -7.04 43 -5 43 C-5 42.34 -5 41.68 -5 41 C-4.34 41 -3.68 41 -3 41 C-2.67 43.64 -2.34 46.28 -2 49 C-2.99 48.67 -3.98 48.34 -5 48 C-5 47.01 -5 46.02 -5 45 C-7.31 45 -9.62 45 -12 45 C-16.1380496 36.72390081 -13.98453439 20.32414437 -11.1875 11.6875 C-9.94897076 8.51287907 -8.76274875 6.06704447 -6 4 C-4.68 4 -3.36 4 -2 4 C-1.34 2.68 -0.68 1.36 0 0 Z M0 10 C-2.01486569 13.87520127 -2.01486569 13.87520127 -3 18 C0.96 18 4.92 18 9 18 C8.67 15.36 8.34 12.72 8 10 C5.36 10 2.72 10 0 10 Z M14 10 C14 12.64 14 15.28 14 18 C17.63 18 21.26 18 25 18 C25.04241723 15.66705225 25.04092937 13.33297433 25 11 C23.96593327 9.74050951 23.96593327 9.74050951 21.71484375 9.90234375 C20.79832031 9.91394531 19.88179687 9.92554688 18.9375 9.9375 C18.01839844 9.94652344 17.09929688 9.95554687 16.15234375 9.96484375 C15.44207031 9.97644531 14.73179688 9.98804688 14 10 Z " fill="#8B7E6F" transform="translate(32,13)"/>
<path d="M0 0 C3.82393375 0.06784399 4.55739862 0.33660505 7.75 2.8125 C9.6875 5.4375 9.6875 5.4375 9.6875 7.4375 C16.2875 7.4375 22.8875 7.4375 29.6875 7.4375 C30.3475 5.7875 31.0075 4.1375 31.6875 2.4375 C32.6775 2.4375 33.6675 2.4375 34.6875 2.4375 C34.6875 3.0975 34.6875 3.7575 34.6875 4.4375 C36.605625 4.375625 36.605625 4.375625 38.5625 4.3125 C40.7421875 4.2421875 40.7421875 4.2421875 42.6875 4.4375 C44.6875 6.4375 44.6875 6.4375 44.9375 9.875 C44.6875 13.4375 44.6875 13.4375 42.6875 16.4375 C38.74023438 16.86655061 36.07507921 16.52216413 32.6875 14.4375 C33.3475 15.7575 34.0075 17.0775 34.6875 18.4375 C32.75 17.6875 32.75 17.6875 30.6875 16.4375 C30.1925 14.4575 30.1925 14.4575 29.6875 12.4375 C23.0875 12.4375 16.4875 12.4375 9.6875 12.4375 C9.0275 13.7575 8.3675 15.0775 7.6875 16.4375 C6.35546875 18.17578125 6.35546875 18.17578125 4.6875 19.4375 C2.42578125 19.73046875 2.42578125 19.73046875 0 19.625 C-0.80824219 19.59792969 -1.61648437 19.57085937 -2.44921875 19.54296875 C-3.06410156 19.50816406 -3.67898437 19.47335938 -4.3125 19.4375 C-6.56078052 14.94093896 -6.47932272 11.35877034 -6.3125 6.4375 C-6.9725 6.4375 -7.6325 6.4375 -8.3125 6.4375 C-6.27313728 2.06743702 -4.98459771 0.14241708 0 0 Z M-4.3125 7.4375 C-4.64583333 9.9375 -4.64583333 9.9375 -4.3125 12.4375 C-2.48546773 14.6866908 -2.48546773 14.6866908 0.1875 14.6875 C2.86046773 14.6866908 2.86046773 14.6866908 4.6875 12.4375 C5.02083333 9.9375 5.02083333 9.9375 4.6875 7.4375 C2.86046773 5.1883092 2.86046773 5.1883092 0.1875 5.1875 C-2.48546773 5.1883092 -2.48546773 5.1883092 -4.3125 7.4375 Z M34.6875 7.4375 C34.43744614 10.47932893 34.43744614 10.47932893 34.6875 13.4375 C35.79916864 14.76937793 35.79916864 14.76937793 38.625 14.625 C41.79642859 14.77028733 41.79642859 14.77028733 43.6875 12.4375 C44.02083333 9.9375 44.02083333 9.9375 43.6875 7.4375 C41.86046773 5.1883092 41.86046773 5.1883092 39.1875 5.1875 C36.51453227 5.1883092 36.51453227 5.1883092 34.6875 7.4375 Z " fill="#A29382" transform="translate(35.3125,47.5625)"/>
<path d="M0 0 C0.66 0.33 1.32 0.66 2 1 C2 1.66 2 2.32 2 3 C3.918125 2.938125 3.918125 2.938125 5.875 2.875 C8.0546875 2.8046875 8.0546875 2.8046875 10 3 C12 5 12 5 12.25 8.4375 C12 12 12 12 10 15 C6.05273438 15.42905061 3.38757921 15.08466413 0 13 C0.66 14.32 1.32 15.64 2 17 C0.0625 16.25 0.0625 16.25 -2 15 C-2.33 13.68 -2.66 12.36 -3 11 C-9.6 11 -16.2 11 -23 11 C-23.66 12.32 -24.32 13.64 -25 15 C-25 12 -25 12 -24 9 C-19.38 8.67 -14.76 8.34 -10 8 C-16.93 7.505 -16.93 7.505 -24 7 C-24.33 5.68 -24.66 4.36 -25 3 C-24.34 3.33 -23.68 3.66 -23 4 C-23 4.66 -23 5.32 -23 6 C-16.4 6 -9.8 6 -3 6 C-2.34 4.35 -1.68 2.7 -1 1 C-0.67 0.67 -0.34 0.34 0 0 Z M2 6 C1.74994614 9.04182893 1.74994614 9.04182893 2 12 C3.11166864 13.33187793 3.11166864 13.33187793 5.9375 13.1875 C9.10892859 13.33278733 9.10892859 13.33278733 11 11 C11.33333333 8.5 11.33333333 8.5 11 6 C9.17296773 3.7508092 9.17296773 3.7508092 6.5 3.75 C3.82703227 3.7508092 3.82703227 3.7508092 2 6 Z " fill="#64594E" transform="translate(68,49)"/>
<path d="M0 0 C2.125 0.375 2.125 0.375 4 1 C3.01 1.66 2.02 2.32 1 3 C-4.8541836 13.39622261 -3.82997325 26.46749576 -4 38 C-2.02 38 -0.04 38 2 38 C2 37.34 2 36.68 2 36 C2.66 36 3.32 36 4 36 C4.33 38.64 4.66 41.28 5 44 C4.01 43.67 3.02 43.34 2 43 C2 42.01 2 41.02 2 40 C-0.31 40 -2.62 40 -5 40 C-9.15499211 31.69001579 -6.97577747 15.27271158 -4.125 6.625 C-2.97495404 3.73710681 -2.20400134 2.20400134 0 0 Z " fill="#D6C2AB" transform="translate(25,18)"/>
<path d="M0 0 C0.99 0.33 1.98 0.66 3 1 C3 7.6 3 14.2 3 21 C0.69 21 -1.62 21 -4 21 C-4.45375 20.21625 -4.9075 19.4325 -5.375 18.625 C-6.71813879 15.84569628 -6.71813879 15.84569628 -9.17578125 15.22265625 C-11.44590172 14.73897584 -13.70176319 14.32281314 -16 14 C-16 13.67 -16 13.34 -16 13 C-8.01007787 12.2166743 -8.01007787 12.2166743 -3.9375 15.375 C-2 18 -2 18 -2 20 C-1.01 19.67 -0.02 19.34 1 19 C1.33 17.35 1.66 15.7 2 14 C1.34 14 0.68 14 0 14 C0 13.34 0 12.68 0 12 C-0.639375 11.773125 -1.27875 11.54625 -1.9375 11.3125 C-4 10 -4 10 -4.8125 7.4375 C-4.874375 6.633125 -4.93625 5.82875 -5 5 C-4 4 -4 4 -1.4375 3.9375 C-0.2309375 3.9684375 -0.2309375 3.9684375 1 4 C0.67 2.68 0.34 1.36 0 0 Z " fill="#63594D" transform="translate(86,35)"/>
<path d="M0 0 C5.76575914 -0.07418336 11.53124017 -0.12861797 17.29736328 -0.16479492 C19.25867553 -0.17987695 21.21995408 -0.20034547 23.18115234 -0.22631836 C26.00106118 -0.26272731 28.82052392 -0.27973216 31.640625 -0.29296875 C32.51680481 -0.30845261 33.39298462 -0.32393646 34.29571533 -0.33988953 C40.37251511 -0.34156762 40.37251511 -0.34156762 43.53808594 1.3815918 C45.20962378 3.23206347 45.66201557 4.54961286 46 7 C44.35 7 42.7 7 41 7 C41 6.34 41 5.68 41 5 C41.66 5 42.32 5 43 5 C42.505 4.01 42.505 4.01 42 3 C27.81 2.67 13.62 2.34 -1 2 C-0.67 1.34 -0.34 0.68 0 0 Z " fill="#292520" transform="translate(32,11)"/>
<path d="M0 0 C13.86 0 27.72 0 42 0 C42.495 1.485 42.495 1.485 43 3 C41.74340576 2.99476318 40.48681152 2.98952637 39.19213867 2.98413086 C34.53491934 2.96604583 29.87770312 2.95455513 25.22045898 2.94506836 C23.20385211 2.94003618 21.1872489 2.93320986 19.1706543 2.92456055 C16.27391661 2.91244627 13.37722712 2.90676057 10.48046875 2.90234375 C9.57725388 2.89718246 8.674039 2.89202118 7.74345398 2.88670349 C6.90280899 2.88662796 6.062164 2.88655243 5.19604492 2.88647461 C4.45658127 2.884254 3.71711761 2.88203339 2.95524597 2.87974548 C0.78368342 2.92910884 0.78368342 2.92910884 -2 4 C-1.34 2.68 -0.68 1.36 0 0 Z " fill="#D9C2A9" transform="translate(32,13)"/>
<path d="M0 0 C1.58206057 0.00667536 3.16410534 0.0186375 4.74609375 0.03515625 C5.55240234 0.03966797 6.35871094 0.04417969 7.18945312 0.04882812 C9.18753131 0.06065107 11.18557158 0.07858711 13.18359375 0.09765625 C13.18359375 4.71765625 13.18359375 9.33765625 13.18359375 14.09765625 C7.90359375 14.09765625 2.62359375 14.09765625 -2.81640625 14.09765625 C-2.81640625 13.76765625 -2.81640625 13.43765625 -2.81640625 13.09765625 C3.61859375 12.60265625 3.61859375 12.60265625 10.18359375 12.09765625 C10.51359375 8.79765625 10.84359375 5.49765625 11.18359375 2.09765625 C6.23359375 2.09765625 1.28359375 2.09765625 -3.81640625 2.09765625 C-3.81640625 5.39765625 -3.81640625 8.69765625 -3.81640625 12.09765625 C-4.14640625 12.09765625 -4.47640625 12.09765625 -4.81640625 12.09765625 C-4.84327904 10.28523573 -4.8627434 8.47270392 -4.87890625 6.66015625 C-4.89050781 5.65082031 -4.90210938 4.64148438 -4.9140625 3.6015625 C-4.75563358 -0.46055501 -4.26320223 0.10908911 0 0 Z " fill="#D6C3AE" transform="translate(47.81640625,19.90234375)"/>
<path d="M0 0 C4.49996683 -0.44117322 6.34611117 -0.52867608 9.9375 2.375 C12 5 12 5 12 7 C19.26 7 26.52 7 34 7 C34 7.33 34 7.66 34 8 C26.66236293 9.17402193 19.41834582 9.09377123 12 9 C12 9.99 12 10.98 12 12 C11.34 12 10.68 12 10 12 C9.71125 10.865625 9.4225 9.73125 9.125 8.5625 C8.75375 7.386875 8.3825 6.21125 8 5 C7.34 4.67 6.68 4.34 6 4 C6 3.34 6 2.68 6 2 C4.02 2 2.04 2 0 2 C0 1.34 0 0.68 0 0 Z " fill="#D5C0A9" transform="translate(32,49)"/>
<path d="M0 0 C0.78503906 0.00515625 1.57007813 0.0103125 2.37890625 0.015625 C3.55259766 0.00789063 3.55259766 0.00789063 4.75 0 C6.94140625 0.265625 6.94140625 0.265625 9.94140625 2.265625 C9.61140625 2.925625 9.28140625 3.585625 8.94140625 4.265625 C7.95140625 3.605625 6.96140625 2.945625 5.94140625 2.265625 C3.61752678 1.87174712 1.28346876 1.53076415 -1.05859375 1.265625 C-1.05859375 1.925625 -1.05859375 2.585625 -1.05859375 3.265625 C0.92140625 3.265625 2.90140625 3.265625 4.94140625 3.265625 C4.94140625 3.925625 4.94140625 4.585625 4.94140625 5.265625 C2.96140625 5.925625 0.98140625 6.585625 -1.05859375 7.265625 C-1.38859375 8.915625 -1.71859375 10.565625 -2.05859375 12.265625 C-2.71859375 12.265625 -3.37859375 12.265625 -4.05859375 12.265625 C-4.05859375 10.285625 -4.05859375 8.305625 -4.05859375 6.265625 C-4.71859375 6.265625 -5.37859375 6.265625 -6.05859375 6.265625 C-3.33548162 0.43038473 -3.33548162 0.43038473 0 0 Z " fill="#73675A" transform="translate(33.05859375,47.734375)"/>
<path d="M0 0 C3.09537351 1.06737018 3.98455997 1.97518567 5.75 4.8125 C6.94728978 7.86558893 7.28472808 9.77308179 7 13 C7.66 13.33 8.32 13.66 9 14 C2.07 14 -4.86 14 -12 14 C-12 13.67 -12 13.34 -12 13 C-6.39 13 -0.78 13 5 13 C4.360625 11.5975 3.72125 10.195 3.0625 8.75 C1.74106902 5.85137721 0.67883043 3.11547441 0 0 Z " fill="#50483F" transform="translate(77,21)"/>
<path d="M0 0 C0.33 0 0.66 0 1 0 C1 7.26 1 14.52 1 22 C2.98 22 4.96 22 7 22 C7 21.34 7 20.68 7 20 C7.66 20 8.32 20 9 20 C9.33 22.64 9.66 25.28 10 28 C9.01 27.67 8.02 27.34 7 27 C7 26.01 7 25.02 7 24 C4.69 24 2.38 24 0 24 C0 16.08 0 8.16 0 0 Z " fill="#C1AC97" transform="translate(20,34)"/>
<path d="M0 0 C4.62 0 9.24 0 14 0 C14 3.3 14 6.6 14 10 C9.38 10 4.76 10 0 10 C0 6.7 0 3.4 0 0 Z M1 1 C1 3.64 1 6.28 1 9 C4.63 9 8.26 9 12 9 C12.04241723 6.66705225 12.04092937 4.33297433 12 2 C10.96593327 0.74050951 10.96593327 0.74050951 8.71484375 0.90234375 C7.79832031 0.91394531 6.88179687 0.92554687 5.9375 0.9375 C5.01839844 0.94652344 4.09929688 0.95554687 3.15234375 0.96484375 C2.44207031 0.97644531 1.73179688 0.98804687 1 1 Z " fill="#3F3831" transform="translate(45,22)"/>
<path d="M0 0 C3.6875 0.4375 3.6875 0.4375 6.6875 2.5625 C8.6875 5.4375 8.6875 5.4375 8.5 8.75 C8.231875 9.636875 7.96375 10.52375 7.6875 11.4375 C7.3575 11.4375 7.0275 11.4375 6.6875 11.4375 C6.0275 9.1275 5.3675 6.8175 4.6875 4.4375 C2.769375 4.499375 2.769375 4.499375 0.8125 4.5625 C-1.3671875 4.6328125 -1.3671875 4.6328125 -3.3125 4.4375 C-3.9725 3.7775 -4.6325 3.1175 -5.3125 2.4375 C-3.3125 0.4375 -3.3125 0.4375 0 0 Z " fill="#BCA892" transform="translate(73.3125,48.5625)"/>
<path d="M0 0 C1.98 0 3.96 0 6 0 C6 0.66 6 1.32 6 2 C15.24 2 24.48 2 34 2 C34 2.33 34 2.66 34 3 C29.4793661 3.07406517 24.959084 3.12856045 20.43798828 3.16479492 C18.89951426 3.17989711 17.36108339 3.20038046 15.82275391 3.22631836 C13.61349859 3.26264074 11.40481152 3.27971119 9.1953125 3.29296875 C8.16085495 3.31619453 8.16085495 3.31619453 7.10549927 3.33988953 C5.16455078 3.34057617 5.16455078 3.34057617 2 3 C1.34 2.01 0.68 1.02 0 0 Z " fill="#918373" transform="translate(26,17)"/>
<path d="M0 0 C0.99 0.33 1.98 0.66 3 1 C3.80078125 2.7421875 3.80078125 2.7421875 4.3125 4.875 C4.49425781 5.57367188 4.67601562 6.27234375 4.86328125 6.9921875 C5 9 5 9 3 12 C3 11.34 3 10.68 3 10 C0.03 10 -2.94 10 -6 10 C-6 9.01 -6 8.02 -6 7 C-5.67 7.33 -5.34 7.66 -5 8 C-2.5 8.16666667 -2.5 8.16666667 0 8 C1.27556818 6.94775333 1.27556818 6.94775333 1.125 4.5625 C1.17306676 2.01021378 1.17306676 2.01021378 0 0 Z " fill="#675C51" transform="translate(38,53)"/>
<path d="M0 0 C2.73785408 0.35100693 3.74881298 0.68006706 5.484375 2.890625 C5.90203125 3.66921875 6.3196875 4.4478125 6.75 5.25 C7.39195313 6.40242188 7.39195313 6.40242188 8.046875 7.578125 C9.09006898 10.22886381 9.18016322 12.1774429 9 15 C8.34 15 7.68 15 7 15 C6.74476562 14.09507813 6.74476562 14.09507813 6.484375 13.171875 C5.03810329 8.40225553 3.86872957 5.33511169 0 2 C0 1.34 0 0.68 0 0 Z " fill="#C8B49F" transform="translate(77,19)"/>
<path d="M0 0 C1.79244141 0.01740234 1.79244141 0.01740234 3.62109375 0.03515625 C5.41740234 0.04869141 5.41740234 0.04869141 7.25 0.0625 C8.17683594 0.07410156 9.10367188 0.08570312 10.05859375 0.09765625 C10.05859375 0.42765625 10.05859375 0.75765625 10.05859375 1.09765625 C6.42859375 1.09765625 2.79859375 1.09765625 -0.94140625 1.09765625 C-1.39515625 2.56203125 -1.84890625 4.02640625 -2.31640625 5.53515625 C-3.08984375 8.03125 -3.08984375 8.03125 -3.94140625 10.09765625 C-4.93140625 10.59265625 -4.93140625 10.59265625 -5.94140625 11.09765625 C-5.63358129 9.45094213 -5.32001391 7.80530049 -5.00390625 6.16015625 C-4.82988281 5.24363281 -4.65585937 4.32710937 -4.4765625 3.3828125 C-3.68336215 -0.00421089 -3.59378696 0.11931564 0 0 Z " fill="#E6D4BC" transform="translate(31.94140625,19.90234375)"/>
<path d="M0 0 C0.66666667 2.66666667 1.33333333 5.33333333 2 8 C6.29 8 10.58 8 15 8 C15 8.33 15 8.66 15 9 C7.08 9.495 7.08 9.495 -1 10 C-1 3 -1 3 0 0 Z " fill="#AB9C8A" transform="translate(26,24)"/>
<path d="M0 0 C3 3.75 3 3.75 3 6 C-2.28 5.67 -7.56 5.34 -13 5 C-13 4.67 -13 4.34 -13 4 C-8.71 4 -4.42 4 0 4 C0 2.68 0 1.36 0 0 Z " fill="#BFAF9B" transform="translate(79,28)"/>
<path d="M0 0 C3.375 -0.1875 3.375 -0.1875 7 0 C7.66 0.99 8.32 1.98 9 3 C6.03 2.67 3.06 2.34 0 2 C0 1.34 0 0.68 0 0 Z " fill="#D7C2AC" transform="translate(32,49)"/>
</svg>
